<?xml version="1.0" standalone="no"?>
<!DOCTYPE svg PUBLIC "-//W3C//DTD SVG 1.1//EN" "http://www.w3.org/Graphics/SVG/1.1/DTD/svg11.dtd" >
<svg>
<metadata>
Created by FontForge 20090622 at Sun Aug  4 06:45:24 2019
 By deploy user
Copyright
</metadata>
<defs>
<font id="190803-Regular" horiz-adv-x="1000" >
  <font-face 
    font-family="190803"
    font-weight="400"
    font-stretch="normal"
    units-per-em="1000"
    panose-1="2 2 6 3 2 1 1 2 1 1"
    ascent="800"
    descent="-200"
    x-height="567"
    cap-height="709"
    bbox="0 -274 998.167 967"
    underline-thickness="25"
    underline-position="-133"
    unicode-range="U+0020-U+FFE6"
  />
<missing-glyph 
d="M900 -45h-800v800h800v-800zM150 705v-700h700v700h-700z" />
    <glyph glyph-name=".notdef" 
d="M900 -45h-800v800h800v-800zM150 705v-700h700v700h-700z" />
    <glyph glyph-name=".null" horiz-adv-x="0" 
 />
    <glyph glyph-name="nonmarkingreturn" horiz-adv-x="333" 
 />
    <glyph glyph-name="space" unicode=" " horiz-adv-x="333" 
 />
    <glyph glyph-name="exclam" unicode="!" 
d="M376 -176l84 -21q5 -2 5 4l20 80q0 6 -4 7l-84 20q-5 0 -7 -5l-18 -79q-1 -4 4 -6zM432 19q46 261 145 657l84 -20q-109 -462 -168 -651q-7 2 -27.5 6.5z" />
    <glyph glyph-name="quotedbl" unicode="&#x22;" 
d="M70 689q-4 25 28 29q34 5 38 -29q4 -55 0 -112q-7 -28 -38 -25t-28 25q4 58 0 112zM195 690q-4 24 28 29q33 5 39 -29q4 -55 0 -112q-7 -28 -38 -25q-16 1 -23 7.5t-6 17.5q6 58 0 112z" />
    <glyph glyph-name="numbersign" unicode="#" horiz-adv-x="688" 
d="M236 582l38 119q12 25 41 19t22 -40l-31 -98h186l42 127q16 28 43 20t20 -40l-34 -107h81q32 -4 30 -33q-1 -28 -30 -34h-102l-69 -220h112q33 -1 31 -31t-31 -34h-133l-40 -129q-13 -19 -41 -12q-29 8 -21 34l33 107h-189l-37 -120q-11 -22 -40 -14t-22 35l30 99h-88
q-23 5 -25 34q-2 30 25 31h109l70 220h-113q-17 0 -26 7.5t-8 22.5q1 30 32 37h135zM473 515h-188l-70 -220h188z" />
    <glyph glyph-name="dollar" unicode="$" horiz-adv-x="521" 
d="M473 558q0 -20 -10 -30t-24 -10q-12 0 -22 8t-10 20q0 60 -27.5 85t-98.5 29q-6 -91 -4 -232q134 -11 186 -75q25 -35 25 -92q0 -91 -49.5 -129.5t-153.5 -41.5q0 -30 5 -38q3 -22 -5.5 -34t-20.5 -12q-14 0 -24.5 10t-10.5 27l-3 21q-3 24 -3 26q-194 11 -194 177
q0 14 9.5 22.5t22.5 9.5q32 2 32 -22q0 -59 27.5 -89t98.5 -36q-7 105 -7 221q-105 5 -147 54q-29 37 -29 113q0 81 34 121q44 49 150 56q0 31 3 43q0 17 10 28t25 12q14 1 23.5 -10t8.5 -33q-4 -13 -6 -40q114 -7 156 -56q33 -38 33 -103zM216 660q-70 -4 -92 -29
q-21 -21 -21 -91q0 -69 27 -90q24 -20 81 -20q0 144 5 230zM281 151q76 2 110 26t34 82q0 40 -12 59q-34 45 -136 54q0 -142 4 -221z" />
    <glyph glyph-name="percent" unicode="%" horiz-adv-x="705" 
d="M161 608q-82 0 -82 -77q-1 -33 22.5 -52t59.5 -19q79 0 81 81q-1 28 -22.5 47.5t-58.5 19.5zM164 671q79 -2 113 -43q35 -41 35 -88q0 -63 -41.5 -102t-106.5 -39q-68 0 -111.5 38.5t-43.5 102.5q0 46 36 88q37 42 119 43zM527 705q16 22 49 5q32 -17 2 -57
q-160 -237 -388 -535q-28 -24 -53 -2q-24 23 3 53q220 292 387 536zM538 328q-81 0 -81 -77q-2 -34 21 -52.5t60 -18.5q40 0 60 22t21 58q-1 29 -22.5 48.5t-58.5 19.5zM541 390q77 0 112 -42q35 -41 35 -89q0 -62 -41.5 -101t-105.5 -39q-67 0 -110.5 38.5t-43.5 101.5
q0 47 36 89t118 42z" />
    <glyph glyph-name="ampersand" unicode="&#x26;" horiz-adv-x="697" 
d="M517 130q-67 -81 -206 -79q-58 1 -107.5 18t-71.5 45q-79 74 -44 187q16 48 50 86t76 55q-34 39 -52.5 94t-12.5 105q8 52 44 84q37 34 117 28q75 -6 113 -50q37 -43 39 -99q1 -58 -35.5 -110.5t-103.5 -76.5q20 -36 93 -109q70 -65 87 -76q1 2 5.5 12.5l9.5 22t12.5 35
t14.5 50.5q8 35 43 27q36 -7 30 -42q-25 -101 -63 -151q45 -44 113 -91q23 -26 6 -46q-14 -19 -49 -2q-50 33 -108 83zM280 469q103 42 112 131q3 35 -22 57.5t-61 25.5q-37 3 -64 -13.5t-27 -50.5q-7 -31 8 -73t54 -77zM461 176q-106 86 -206 210q-52 -21 -81.5 -66
t-26.5 -92q4 -50 47 -81.5t122 -28.5q90 -6 145 58z" />
    <glyph glyph-name="quotesingle" unicode="'" 
d="M44 577v108q3 27 31 28q30 2 34 -28v-108q-3 -22 -33 -25q-31 -2 -32 25z" />
    <glyph glyph-name="parenleft" unicode="(" 
d="M497 345q169 0 288 -57t178 -161l-38 -22q-66 91 -177.5 139t-250.5 49h-2q-139 -1 -250.5 -49t-177.5 -139l-38 22q59 104 178 161t288 57h2z" />
    <glyph glyph-name="parenright" unicode=")" 
d="M495 141q-169 0 -288 57t-178 161l38 22q66 -91 177.5 -139t250.5 -49h2q139 1 250.5 49t177.5 139l38 -22q-59 -104 -178 -161t-288 -57h-2z" />
    <glyph glyph-name="asterisk" unicode="*" horiz-adv-x="496" 
d="M278 523l118 92q12 7 24 2.5t18 -16.5q20 -29 1 -40l-141 -109l157 -104q20 -23 0 -47q-21 -23 -42 -7l-135 90v-141q-2 -30 -35 -30q-34 0 -34 30l-1 140l-120 -91q-24 -24 -47 2q-10 11 -10 23.5t13 22.5l138 109l-147 98q-21 17 -2 42q20 24 43 12l132 -89v146
q-1 11 9.5 18t24.5 8q14 0 24.5 -7t11.5 -19v-135z" />
    <glyph glyph-name="plus" unicode="+" horiz-adv-x="484" 
d="M209 463v147q0 26 32 26q33 2 33 -26v-147h144q29 -3 27 -32q-1 -29 -27 -30h-144v-148q0 -32 -33 -32q-32 0 -32 32v148h-140q-32 0 -33 31q0 31 33 31h140z" />
    <glyph glyph-name="comma" unicode="," horiz-adv-x="938" 
d="M303 647q-73 -78 -131 -189q-1 -2 -8 -2l-44 21q-6 2 -5 9q9 33 36 94t66 116q14 20 21.5 19.5t36.5 -21.5q27 -18 32.5 -28t-4.5 -19z" />
    <glyph glyph-name="hyphen" unicode="-" horiz-adv-x="977" 
d="M470 -274v1241h56v-1241h-56z" />
    <glyph glyph-name="period" unicode="." horiz-adv-x="917" 
d="M263 720q60 0 102 -41.5t42 -101.5t-42 -101.5t-102 -41.5t-102 41.5t-42 101.5t42 101.5t102 41.5zM263 660q-35 0 -59.5 -24t-24.5 -59t24.5 -59t59.5 -24t59.5 24t24.5 59t-24.5 59t-59.5 24z" />
    <glyph glyph-name="slash" unicode="/" horiz-adv-x="488" 
d="M392 674q16 33 45 12q29 -22 1 -59l-340 -473q-26 -20 -49 0t3 48z" />
    <glyph glyph-name="zero" unicode="0" 
d="M526 701q172 0 275.5 -86t103.5 -221t-103.5 -221t-275.5 -86t-275.5 86t-103.5 221t103.5 221t275.5 86zM526 632q-146 0 -230.5 -65.5t-84.5 -171.5t84.5 -171.5t230.5 -65.5t230.5 65.5t84.5 171.5t-84.5 171.5t-230.5 65.5z" />
    <glyph glyph-name="one" unicode="1" 
d="M169 231v324h53l18 -134v-63l-18 -127h-53zM193 421h619l-29 122l52 16l58 -141v-60h-700v63z" />
    <glyph glyph-name="two" unicode="2" 
d="M673 626l19 64q100 -32 156.5 -112.5t56.5 -186.5q0 -126 -68.5 -208.5t-183.5 -82.5q-65 0 -111.5 28t-72.5 72t-44.5 98t-34 108t-34.5 98t-52 72t-81 28q0 7 -5 26.5t-5 31t10 11.5q60 0 102.5 -28t66.5 -72t42 -98l34.5 -108t37.5 -98t58 -72t89 -28q88 0 138 62
t50 161q0 81 -45 144.5t-123 89.5zM169 102v571h58l4 -571h-62z" />
    <glyph glyph-name="three" unicode="3" 
d="M286 678l36 -61q-109 -58 -109 -221q0 -101 38 -162.5t101 -61.5q65 0 104.5 60t41.5 159v10h64v-12q2 -86 39.5 -141t96.5 -55q61 0 100.5 57t39.5 146q0 72 -27 124.5t-72 70.5l24 66q64 -26 103 -96.5t39 -165.5q0 -118 -58.5 -196.5t-146.5 -78.5q-55 0 -98.5 32.5
t-68.5 88.5q-25 -67 -71 -105t-108 -38q-94 0 -150.5 83t-56.5 214q0 217 139 283z" />
    <glyph glyph-name="four" unicode="4" 
d="M169 105v276h53l18 -108v-63l-18 -105h-53zM891 275v-65h-698v63h606l-351 322v88zM387 683h61v-607h-61v607z" />
    <glyph glyph-name="five" unicode="5" 
d="M510 648h382v-66h-382v66zM829 648h63v-506h-63v506zM267 652l35 -55q-40 -26 -65.5 -78t-25.5 -126q0 -92 48.5 -147.5t121.5 -55.5q78 0 127.5 50t49.5 149q0 116 -48 193h74q38 -76 38 -194q0 -128 -67.5 -199.5t-171.5 -71.5q-100 0 -168 77t-68 198q0 187 120 260z
" />
    <glyph glyph-name="six" unicode="6" 
d="M593 385q0 -127 -63 -204t-160 -77t-160.5 77t-63.5 204q0 315 396 315q170 0 266.5 -92t95.5 -231q-1 -116 -64.5 -189t-162.5 -96l-15 66q78 21 127.5 75.5t50.5 143.5q1 108 -77 181t-221 73q-45 0 -73 -3q56 -24 90 -90.5t34 -152.5zM372 595q-74 0 -118.5 -60.5
t-44.5 -148.5q0 -98 46.5 -155.5t116.5 -57.5t113.5 57t43.5 156q0 98 -43.5 153.5t-113.5 55.5z" />
    <glyph glyph-name="seven" unicode="7" 
d="M169 490l655 -288v423l69 16v-523h-65l-659 297v75zM710 667l183 24v-89h-183v65z" />
    <glyph glyph-name="eight" unicode="8" 
d="M358 692q91 0 151 -83.5t60 -212.5t-60 -213t-151 -84t-151.5 84t-60.5 213q0 128 60.5 212t151.5 84zM356 622q-64 0 -105.5 -62.5t-41.5 -162.5t41.5 -162.5t105.5 -62.5t106.5 62.5t42.5 162.5t-42.5 162.5t-106.5 62.5zM705 670q88 0 144 -78t56 -196
q0 -119 -56 -197t-144 -78q-87 0 -142.5 78t-55.5 197q0 118 55.5 196t142.5 78zM703 600q-61 0 -97.5 -56.5t-36.5 -146.5t36.5 -146.5t97.5 -56.5t97.5 56.5t36.5 146.5t-36.5 146.5t-97.5 56.5z" />
    <glyph glyph-name="nine" unicode="9" 
d="M351 668l19 -65q-160 -40 -160 -212q0 -108 77 -169.5t242 -62.5q31 0 40 1q-104 66 -104 235q0 126 62 202.5t158 76.5q95 0 157 -76.5t62 -202.5q0 -305 -375 -301q-196 2 -289.5 79t-93.5 218q0 227 205 277zM684 191q70 0 114 55t44 152t-43 152t-112 55
q-70 0 -114.5 -55t-44.5 -152t43.5 -152t112.5 -55z" />
    <glyph glyph-name="colon" unicode=":" 
d="M277 342v-91q0 -5 -5 -5h-83q-5 0 -5 5v91q0 5 5 5h83q5 0 5 -5zM846 251q0 -5 -5 -5h-83q-5 0 -5 5v91q0 5 5 5h83q5 0 5 -5v-91z" />
    <glyph glyph-name="semicolon" unicode=";" horiz-adv-x="240" 
d="M98 107l19 47q-17 0 -24 4q-16 14 -16 53q-1 25 13.5 38.5t33.5 12.5q20 -1 33.5 -16.5t10.5 -41.5q0 -75 -36 -119q-21 -11 -29.5 -6t-4.5 28zM119 632q31 0 46 -18t15 -44q0 -33 -12.5 -46t-42.5 -13q-34 0 -43 20q-8 22 -8 39q0 62 45 62z" />
    <glyph glyph-name="less" unicode="&#x3c;" 
d="M490 269l478 -254l-23 -40l-455 229l-455 -229l-23 40z" />
    <glyph glyph-name="equal" unicode="=" horiz-adv-x="486" 
d="M72 562h340q27 0 27 -33t-26 -33h-343q-26 0 -28 33t30 33zM72 351h340q27 0 27 -33t-26 -33h-343q-26 0 -28 33t30 33z" />
    <glyph glyph-name="greater" unicode="&#x3e;" 
d="M490 242l-478 254l23 40l455 -229l455 229l23 -40z" />
    <glyph glyph-name="question" unicode="?" 
d="M386 -189q-4 0 -4 4v78q0 5 4 5h82q5 0 5 -5v-78q0 -4 -4 -4h-83zM392 -29q-1 72 10.5 114t42.5 80q19 23 64.5 54l82.5 55.5t67.5 70t30.5 101.5q0 78 -54 127t-141.5 57.5t-197.5 -19.5l-8 -77h-72q-1 30 -2 66t-2 64q111 38 213.5 42t178 -24t120 -89t43.5 -146
q-1 -60 -23.5 -108t-57.5 -80t-70.5 -55.5l-71 -48t-50.5 -45.5q-33 -44 -35 -139h-68z" />
    <glyph glyph-name="at" unicode="@" horiz-adv-x="738" 
d="M306 507q52 19 119 21q0 16 1 24.5t8.5 17t22.5 8.5q31 0 29 -30q-14 -165 -11 -250q8 -49 68 -47q93 17 72 212q-37 169 -271 159q-211 -12 -229 -218q-11 -260 201 -284q148 -10 246 33q24 9 34 -16q10 -23 -16 -42q-106 -51 -279 -36q-265 46 -253 334q23 274 298 290
q294 10 331 -223q15 -134 -23.5 -198t-132.5 -69q-75 11 -95 65q-45 -49 -130 -49q-97 0 -109 87q-6 81 27 135.5t92 75.5zM322 452q-75 -40 -76 -125q0 -55 54 -57q34 -2 73 17q40 19 43 59q2 88 4 121q-40 3 -98 -15z" />
    <glyph glyph-name="A" unicode="A" horiz-adv-x="553" 
d="M16 173q72 158 123 311q12 35 35 113t37 116q3 14 15.5 22.5t28.5 8.5q38 0 45 -31q96 -313 232 -534q9 -15 4.5 -26t-17.5 -18q-11 -7 -26.5 -3.5t-23.5 17.5q-18 25 -40 72q-21 41 -38 80l-242 -1q-34 -95 -70 -149q-12 -20 -27 -25t-24 2q-11 7 -15 19.5t3 25.5z
M167 360h196q-65 146 -105 289q-32 -113 -91 -289z" />
    <glyph glyph-name="B" unicode="B" horiz-adv-x="488" 
d="M115 127q-26 -3 -39 4.5t-15 30.5q-16 78 -22 250q-8 207 6 322q0 34 67 28q160 0 229 -24q97 -39 97 -154q0 -54 -30 -86q-28 -28 -62 -46q55 -23 82 -55t27 -88q0 -87 -36 -128q-35 -39 -87 -51q-32 -7 -69.5 -8t-83.5 2t-64 3zM200 476q74 0 115 20q57 26 57 88
q0 88 -89 111q-18 4 -42.5 6t-40 2.5t-47.5 0t-41 -0.5q-10 -79 -8 -224l49 -2q8 0 23.5 -0.5t23.5 -0.5zM104 419q5 -165 17 -237q169 -10 222 12q27 14 38 40.5t11 74.5q0 71 -92 96q-50 12 -196 14z" />
    <glyph glyph-name="C" unicode="C" horiz-adv-x="551" 
d="M490 669q23 -23 5 -48q-18 -24 -40 -6q-8 5 -22 15l-27 19t-27 16q-59 27 -123 27q-79 0 -127 -90q-45 -75 -45 -177q0 -98 42 -163q47 -76 127 -76q67 0 125 36q62 41 84 107q5 11 17 14.5t23 -0.5q28 -9 18 -43q-29 -80 -102 -130q-74 -49 -165 -49q-106 0 -172 88
q-63 87 -63 217q0 134 68 229q70 96 167 96q80 0 134.5 -19.5t102.5 -62.5z" />
    <glyph glyph-name="D" unicode="D" horiz-adv-x="541" 
d="M115 116q-50 -11 -54 33q-16 78 -22 248q-8 204 6 319q0 35 67 29q208 -5 291 -58q107 -67 107 -244q0 -206 -114 -277q-47 -31 -114 -40.5t-167 -9.5zM112 685q-10 -74 -8 -283q6 -154 18 -232q7 0 40 2t43 3l36 3.5t39.5 6t32 9.5t33.5 14q100 53 100 236
q0 139 -84 194q-73 47 -250 47z" />
    <glyph glyph-name="E" unicode="E" horiz-adv-x="516" 
d="M476 125l-361 -9q-50 -11 -54 33q-16 78 -22 248q-8 204 6 319q0 35 67 29l328 -5q15 0 24 -10t10 -23q0 -14 -9 -23.5t-25 -9.5l-328 7q-10 -80 -8 -223l345 14q15 0 23.5 -9.5t8.5 -22.5q0 -32 -28 -32l-348 -17q1 -134 16 -214l355 11q14 0 22.5 -9.5t8.5 -22.5
t-8.5 -22t-22.5 -9z" />
    <glyph glyph-name="F" unicode="F" horiz-adv-x="500" 
d="M121 158q1 -49 -29 -47q-12 1 -21.5 11.5t-9.5 26.5q-16 78 -22 248q-8 204 6 319q0 35 67 29l328 -5q15 0 24 -10t10 -23q0 -14 -9 -23.5t-25 -9.5l-328 7q-10 -80 -8 -223l345 14q15 0 23.5 -9.5t8.5 -22.5q0 -32 -28 -32l-348 -17q2 -90 5 -134q4 -62 11 -99z" />
    <glyph glyph-name="G" unicode="G" horiz-adv-x="570" 
d="M490 669q23 -23 5 -48q-18 -24 -40 -6q-8 5 -22 15l-27 19t-27 16q-59 27 -123 27q-71 0 -125 -90q-49 -80 -49 -177q0 -94 43 -163q47 -76 128 -76q63 0 124 32q69 41 89 112v21v33q-77 10 -211 0q-26 -5 -32 26q-2 30 30 34q64 6 130 6q66 1 103 0q49 -4 48 -57v-137
q-2 -85 -6 -135q-2 -14 -12 -22t-24 -8q-13 0 -22.5 8t-9.5 24q4 47 6 87q-82 -87 -213 -87q-108 0 -172 86q-63 88 -63 217q0 134 68 229q70 96 167 96q80 0 134.5 -19.5t102.5 -62.5z" />
    <glyph glyph-name="H" unicode="H" horiz-adv-x="539" 
d="M112 696q-10 -84 -8 -238l318 13q-2 127 9 219q0 17 10 28t24 12q15 1 24 -10t8 -33q-7 -54 -8 -127q-1 -52 1 -159q2 -102 5 -150q4 -67 11 -102q1 -49 -28 -47q-12 1 -22 12t-11 26q-16 85 -22 267l-318 -16q0 -73 6 -139q5 -75 10 -103q1 -49 -29 -47q-12 1 -21.5 12
t-9.5 26q-16 78 -22 243q-8 198 6 316q0 17 10 28t25 12q14 1 23.5 -10t8.5 -33z" />
    <glyph glyph-name="I" unicode="I" horiz-adv-x="268" 
d="M177 696q-9 -43 -10 -119q-3 -52 -3 -172q0 -103 4 -163q6 -82 9 -93q3 -22 -5.5 -34t-21.5 -12q-12 0 -22.5 10t-11.5 27q-12 58 -17 243q-2 181 11 316q0 17 10.5 28t25.5 12q14 1 23.5 -10t7.5 -33z" />
    <glyph glyph-name="J" unicode="J" horiz-adv-x="490" 
d="M423 270q-18 -80 -76 -120.5t-144 -40.5t-137 92q-40 74 -40 166q-4 19 5 31.5t24 14.5q13 2 24.5 -7t13.5 -29q0 -94 33 -149t86 -55q116 0 149 115q11 37 9 195q-2 86 -5 129q-5 71 -11 101q-1 22 8.5 33t23.5 10t25 -12t11 -28q14 -145 14 -258q0 -120 -13 -188z" />
    <glyph glyph-name="K" unicode="K" horiz-adv-x="490" 
d="M106 696q-5 -31 -10 -116q-2 -103 -1 -165q77 69 154 146q64 64 143 154q10 13 24.5 14t21.5 -7q23 -21 8 -42q-78 -88 -163 -173q52 -69 104 -165q53 -97 82 -177q13 -39 -17 -52q-11 -7 -24 -2t-19 20q-90 220 -175 329l-138 -126q0 -135 10 -185q3 -22 -5 -34t-21 -12
t-23 10t-11 27q-13 64 -18 243q-2 196 12 316q0 16 10.5 27.5t24.5 12.5t23.5 -10t7.5 -33z" />
    <glyph glyph-name="L" unicode="L" horiz-adv-x="523" 
d="M112 705q-13 -205 -7 -375q4 -84 16 -153l346 11q14 0 22.5 -9.5t8.5 -22.5t-8.5 -22t-22.5 -9l-352 -9q-50 -11 -54 33q-16 78 -22 241q-8 197 6 315q0 14 10 22.5t25 8.5q14 -1 23.5 -9t8.5 -22z" />
    <glyph glyph-name="M" unicode="M" horiz-adv-x="604" 
d="M107 635q-7 -140 -3 -275q0 -162 11 -193q3 -23 -5 -34.5t-21 -11.5t-23 9.5t-11 27.5q-13 64 -18 233q-2 188 12 305q0 32 27 41q25 7 43 -17l172 -219l186 232q6 11 18 14.5t23 0.5q25 -10 25 -40q15 -158 15 -311q0 -166 -13 -239q-2 -18 -12.5 -27.5t-22.5 -9.5
q-14 0 -22.5 12t-4.5 34q8 32 8 195q0 70 -3 145q-1 62 -5 132l-162 -198q-10 -15 -35 -12q-24 5 -33 19l-73 93z" />
    <glyph glyph-name="N" unicode="N" horiz-adv-x="520" 
d="M397 133q-6 11 -27 45.5l-34 56.5l-85 143q-30 53 -86 142l-58 98q-7 -141 -3 -276q0 -160 11 -193q3 -22 -5 -34t-21 -12t-23 10t-11 27q-13 65 -18 233q-2 185 12 305q0 32 34 41q30 7 49 -16l273 -453q1 57 1 216q-2 160 -2 215q-4 20 5 32.5t23 13.5q13 2 24 -8.5
t13 -29.5q4 -114 2 -295q0 -141 -9 -247q-4 -27 -28 -35q-22 -7 -37 21z" />
    <glyph glyph-name="O" unicode="O" horiz-adv-x="551" 
d="M519 427q0 -172 -73 -252q-60 -64 -178 -64q-113 0 -166 61q-70 76 -70 249q0 152 61.5 236.5t177.5 84.5q117 0 182 -86q66 -85 66 -229zM451 425q-2 255 -179 255q-67 0 -111 -46q-61 -64 -61 -212q0 -123 34 -180q39 -73 132 -73q84 0 128 44q56 62 57 212z" />
    <glyph glyph-name="P" unicode="P" horiz-adv-x="473" 
d="M104 418q37 -5 57 -6q43 -4 96 3t88 37q40 35 40 99q0 113 -96 136q-24 7 -52 8.5t-71.5 0t-53.5 -1.5q-6 -53 -8 -131v-145zM446 551q0 -83 -43 -129q-33 -40 -97 -56q-46 -13 -115 -13q-16 0 -33 1t-32.5 2.5t-21.5 1.5q0 -60 6 -122q3 -35 11 -80q0 -23 -8.5 -35
t-20.5 -11t-21 12t-10 31q-16 78 -22 250q-8 207 6 322q0 34 67 28h32h33.5t30 -0.5t31.5 -1t28 -2t29 -4t24.5 -6t24.5 -7.5q101 -41 101 -181z" />
    <glyph glyph-name="Q" unicode="Q" horiz-adv-x="590" 
d="M519 427q0 -135 -43 -211q25 -25 83 -71q21 -18 3 -44q-25 -27 -47 -5q-40 30 -79 69q-61 -54 -168 -54q-113 0 -166 61q-70 76 -70 249q0 152 61.5 236.5t177.5 84.5q117 0 182 -86q66 -85 66 -229zM451 425q-2 255 -179 255q-67 0 -111 -46q-61 -64 -61 -212
q0 -123 34 -180q39 -73 132 -73q79 0 124 40q-50 47 -93 111q-24 20 -2 46q21 24 46 -1q30 -43 86 -99q24 58 24 159z" />
    <glyph glyph-name="R" unicode="R" horiz-adv-x="500" 
d="M104 428q37 -5 57 -6q48 -5 96 2q56 9 88 37q40 35 40 99q0 111 -96 132q-24 5 -54 5.5t-68.5 -1.5t-54.5 -2q-6 -54 -8 -126v-140zM446 560q0 -54 -21.5 -97.5t-55.5 -61.5q58 -49 83 -122q15 -42 23 -134q0 -19 -10 -30.5t-23 -11.5q-13 -1 -23 10t-10 31
q-8 77 -23 122q-31 82 -92 107q-46 -10 -108 -10q-57 2 -82 6q1 -120 17 -213q0 -23 -8.5 -35t-20.5 -11t-21 12t-10 31q-16 78 -22 250q-8 207 6 322q0 34 67 28h42.5h44.5t38.5 -0.5t40.5 -2.5t33.5 -5.5t33.5 -8.5q101 -35 101 -176z" />
    <glyph glyph-name="S" unicode="S" horiz-adv-x="514" 
d="M473 584q0 -20 -10 -30t-24 -10q-12 0 -22 8.5t-10 20.5q0 66 -34 96t-118 30q-93 0 -123 -29q-29 -24 -29 -104q0 -74 36 -96q23 -13 103 -13q164 -5 217 -73q29 -36 29 -96q0 -100 -59 -143.5t-178 -43.5q-112 0 -167 52t-55 140q0 14 9.5 23t22.5 10t22.5 -5t9.5 -18
q0 -70 32 -101q37 -40 130 -40q89 0 129.5 29t40.5 95l1 7q0 7 -0.5 12t-2 13t-5 16t-9.5 15q-37 50 -171 50q-122 0 -169 50q-33 38 -33 117q0 88 40 134q52 57 177 57q129 0 183 -58q37 -45 37 -115z" />
    <glyph glyph-name="T" unicode="T" horiz-adv-x="557" 
d="M152 670l-105 -2q-16 -2 -25.5 6t-9.5 22q-2 32 35 37q20 0 103.5 1.5t125.5 1.5q122 0 232 -5q18 -1 26.5 -11t7.5 -23q-1 -12 -10.5 -21.5t-23.5 -9.5l-102 3q-54 2 -91 2q-6 -47 -8 -124q-2 -102 -2 -163l4 -150q6 -78 8 -85q3 -22 -5 -34t-21 -12t-23 10t-11 27
q-15 75 -17 230q-5 159 9 302z" />
    <glyph glyph-name="U" unicode="U" horiz-adv-x="578" 
d="M49 699q0 15 10 25.5t23 11.5q14 0 24 -8.5t11 -24.5q0 -96 -6 -193q-6 -99 7 -176q12 -80 52 -129t134 -49q66 0 97 52q33 52 45 132q12 83 11 175v179q0 16 10 25t23 9t23 -8t10 -22q0 -77 -2 -221q-1 -107 -21 -193q-19 -84 -64 -138q-43 -52 -128 -52
q-110 0 -166 40.5t-77 123.5q-10 37 -14 91.5t-4 95.5t1 126t1 128z" />
    <glyph glyph-name="V" unicode="V" horiz-adv-x="559" 
d="M40 708q0 15 10 25.5t23 11.5q14 0 24 -8.5t11 -25.5q0 -194 45 -345q53 -161 142 -201q78 45 118 209q35 139 35 329q0 16 10 25t23 9t23.5 -8.5t10.5 -21.5q0 -241 -53 -401q-57 -176 -167 -206q-115 30 -182 180q-73 157 -73 428z" />
    <glyph glyph-name="W" unicode="W" horiz-adv-x="615" 
d="M24 690q0 27 33 33q32 2 36 -31q-9 -131 21 -289q29 -135 69 -205q34 109 46 162q21 100 42 232q0 17 11.5 27t28.5 11q16 1 28.5 -8t12.5 -27q28 -264 86 -397q39 100 60 230q22 126 22 261q0 15 9.5 24t22.5 10t23.5 -8t11.5 -26q0 -197 -45 -375q-45 -184 -103 -223
q-39 30 -70 113q-45 117 -60 281q-23 -161 -54 -256q-27 -82 -67 -137q-74 48 -120 217q-44 165 -44 381z" />
    <glyph glyph-name="X" unicode="X" horiz-adv-x="551" 
d="M411 716q5 11 17.5 14.5t24.5 -2.5q13 -4 19.5 -15t0.5 -26q-34 -74 -79 -154l-83 -136q87 -119 202 -235q22 -22 -1 -43q-24 -24 -46 -5q-76 83 -192 225q-66 -103 -164 -238q-15 -22 -46 -4q-25 23 -6 43q107 149 174 255l-96 125q-42 52 -100 144q-9 16 -5.5 28
t15.5 18q25 13 43 -7q33 -59 88 -133l91 -117l33.5 56.5l39.5 67.5q39 67 70 139z" />
    <glyph glyph-name="Y" unicode="Y" horiz-adv-x="510" 
d="M313 367q4 -115 -1 -255q0 -14 -10 -22.5t-23 -9.5q-13 -3 -23 5t-11 27q5 107 -3 257q-96 126 -205 299q-9 16 -5.5 28t15.5 18q24 13 43 -7q78 -136 185 -281q89 150 149 290q5 11 17.5 14.5t24.5 -2.5q31 -10 19 -41q-66 -149 -172 -320z" />
    <glyph glyph-name="Z" unicode="Z" horiz-adv-x="504" 
d="M70 125q-14 -2 -24 6t-12 21q-7 30 17 45q130 153 201 260q64 94 113 197q-134 5 -301 -2q-15 -2 -25 6t-11 20q-2 30 36 36q50 1 108.5 3t66.5 2q92 0 177 -4q27 -2 34 -21.5t-2 -36.5q-120 -232 -315 -468q114 2 151 1q46 0 164 -5q36 -1 34 -32q-1 -12 -10 -21t-24 -9
q-143 4 -172 4q-80 0 -206 -2z" />
    <glyph glyph-name="bracketleft" unicode="[" horiz-adv-x="477" 
d="M238 137v602q0 18 10.5 26.5t24.5 8.5h103q20 0 29.5 -8.5t8.5 -25.5q-2 -33 -35 -32h-58q-17 0 -17 -20l1 -488q1 -12 5 -16.5t15 -4.5h48q19 0 28.5 -8.5t8.5 -25.5q-2 -33 -33 -32h-106q-33 0 -33 24z" />
    <glyph glyph-name="backslash" unicode="\" horiz-adv-x="424" 
d="M27 557q-6 9 -3 24.5t14 27.5q26 30 62 -8q53 -74 138 -227q72 -124 145 -199q36 -44 14 -73q-7 -13 -23 -14.5t-31 12.5q-88 80 -171 222l-44 74l-54.5 90z" />
    <glyph glyph-name="bracketright" unicode="]" horiz-adv-x="354" 
d="M235 738v-602q0 -24 -33 -24h-105q-32 -1 -34 32q0 34 38 34h48q19 0 20 21v488q0 20 -18 20h-57q-34 0 -35 33q-1 16 8.5 24.5t29.5 8.5h103q35 0 35 -35z" />
    <glyph glyph-name="asciicircum" unicode="^" horiz-adv-x="459" 
d="M45 488q17 95 63 156q36 44 97 81q72 -30 127.5 -89t78.5 -135q6 -17 -1 -28t-20 -14q-13 -4 -24.5 0.5t-15.5 16.5q-16 69 -59 112q-26 26 -82 57q-80 -39 -99 -173q-11 -29 -40 -22q-31 6 -25 38z" />
    <glyph glyph-name="underscore" unicode="_" horiz-adv-x="432" 
d="M473 -274v691h53v-691h-53z" />
    <glyph glyph-name="grave" unicode="`" horiz-adv-x="391" 
d="M174 715q46 -57 100 -102q17 -26 -2 -43q-18 -18 -44 -4q-60 47 -101 102q-22 34 -1 50q22 16 48 -3z" />
    <glyph glyph-name="a" unicode="a" horiz-adv-x="529" 
d="M193 522q-57 0 -86.5 -42t-29.5 -120q0 -93 37 -133q33 -33 97 -33q53 0 86 48t33 123q0 74 -28 112q-33 45 -109 45zM191 582q92 0 139 -39q38 -30 60 -106q31 -96 44 -124q20 -40 68 -111q16 -26 -9 -47q-10 -10 -22 -10.5t-19 10.5q-14 21 -41 68q-18 31 -33 67
q-39 -154 -165 -154q-94 0 -144.5 56t-50.5 168q0 104 38 158q44 64 135 64z" />
    <glyph glyph-name="b" unicode="b" horiz-adv-x="447" 
d="M100 488q-7 -180 5 -289q156 -11 205 30q34 27 34 115q1 93 -70 120q-42 18 -174 24zM103 548q179 -11 243 -50q34 -23 48 -60t13 -96q0 -162 -108 -196q-44 -13 -100 -8q-54 4 -101 6q-27 -4 -39.5 4t-14.5 31q-13 65 -13 238q0 169 18 309q1 33 35 31q32 -6 31 -33
l-10 -81q-2 -50 -2 -95z" />
    <glyph glyph-name="c" unicode="c" horiz-adv-x="447" 
d="M388 528q17 -21 2 -44q-7 -10 -18 -12t-23 7q-74 50 -143 50q-45 0 -83 -60q-35 -55 -35 -114q0 -60 35 -104q38 -48 83 -48q49 0 86 20q48 22 60 65q4 11 15.5 13t22.5 -4q10 -6 15.5 -18.5t-0.5 -26.5q-20 -53 -75.5 -83t-126.5 -30q-75 0 -130 65t-55 151q0 92 51 162
q59 72 132 72q114 0 187 -61z" />
    <glyph glyph-name="d" unicode="d" horiz-adv-x="432" 
d="M333 488q-133 -6 -176 -24q-72 -28 -68 -120q0 -87 32 -115q48 -41 206 -30q12 104 6 289zM330 548q-2 77 -4 95q-1 13 -9 81q-2 13 7.5 21.5t23.5 11.5q32 2 36 -31q16 -135 16 -309q0 -176 -11 -238q-5 -43 -54 -35q-47 -2 -102 -6q-56 -5 -100 8q-108 34 -108 196
q-4 112 61 156q64 40 244 50z" />
    <glyph glyph-name="e" unicode="e" horiz-adv-x="455" 
d="M243 584q96 -21 140 -75q36 -41 49 -121q11 -52 -36 -56q-74 -9 -146 -8q-82 0 -168 14q0 -46 37 -89q38 -42 101 -51q37 -8 77 5q42 13 64 52q6 8 18 9t21 -5q25 -15 13 -40q-27 -46 -89 -71q-59 -24 -118 -13q-104 18 -157 102q-49 75 -31 162q11 88 71 142
q60 53 154 43zM367 391q-2 49 -28 80q-33 42 -101 55q-57 14 -101 -24q-48 -39 -49 -103q149 -30 279 -8z" />
    <glyph glyph-name="f" unicode="f" horiz-adv-x="498" 
d="M185 541q-6 -42 -6 -71q0 -34 4 -77q82 -6 169 0q12 2 20 -6t9 -20q2 -31 -25 -35q-95 -5 -169 -1q4 -75 16 -175q0 -30 -28 -32q-30 -2 -31 21q-18 80 -28 189l-40 4q-21 2 -40 6q-27 0 -25 33q6 30 31 29q40 -7 71 -8q0 6 -1.5 33t-1.5 41q-2 39 4 83q12 73 51 118
q42 50 104 54q71 0 115 -19q59 -27 83 -95q19 -77 -16 -150q-15 -25 -43 -16q-12 4 -17 13.5t1 20.5q14 36 15 62q0 8 -0.5 17.5t-1.5 21.5t-1 19q-12 35 -53 54q-30 13 -79 13q-33 -7 -56 -41t-31 -86z" />
    <glyph glyph-name="g" unicode="g" horiz-adv-x="457" 
d="M200 481q-44 -2 -78 -30q-44 -38 -40 -102q1 -68 48 -103q42 -33 96 -31q65 1 103 52q27 37 27 96q-1 65 -49 93q-46 28 -107 25zM206 546q88 2 144 -41q67 -46 77 -136q0 -6 1.5 -23.5t1.5 -28.5q2 -45 -3 -78q-10 -181 -109 -255q-81 -60 -204 -48q-22 2 -31.5 12
t-7.5 23t14 21t28 4q135 -10 197 74q37 47 44 134q-43 -51 -123 -51q-100 -4 -157 53q-55 54 -57 140q-1 96 54 148q50 47 131 52z" />
    <glyph glyph-name="h" unicode="h" horiz-adv-x="436" 
d="M407 332l-2 -159q-3 -20 -14.5 -29.5t-24.5 -9.5q-13 1 -21 11.5t-6 25.5l5 161q0 109 -69 129q-15 5 -35 8t-41 3h-45.5h-49.5q0 -157 17 -272q3 -30 -4.5 -46.5t-20.5 -17.5t-23.5 11.5t-11.5 31.5q-16 80 -22 230q-8 185 6 300q1 17 11.5 25t23.5 7t22.5 -10t9.5 -23
q-8 -66 -8 -82q-2 -50 -1 -94q177 5 237 -30q36 -20 51.5 -60.5t15.5 -109.5z" />
    <glyph glyph-name="i" unicode="i" horiz-adv-x="250" 
d="M150 523q-21 -257 0 -339q3 -22 -5 -34t-21 -12t-23 10t-11 27q-14 70 -18 140q-2 93 12 212q0 17 10 28t25 11q14 1 23.5 -10t7.5 -33zM115 773q31 0 46 -18t15 -45q0 -33 -12.5 -45.5t-42.5 -12.5q-34 0 -43 20q-8 22 -8 38q0 63 45 63z" />
    <glyph glyph-name="j" unicode="j" horiz-adv-x="383" 
d="M313 175q-19 -74 -99 -87q-36 -4 -70.5 7.5t-57.5 37.5q-43 42 -59 126q-7 34 23 42q29 9 41 -22q7 -50 33 -91q14 -31 63 -36q47 -2 62 34q26 70 4 337q-3 22 6.5 33t23.5 10q15 0 25.5 -11t10.5 -28q26 -249 -6 -352zM264 773q31 0 45.5 -18t14.5 -45q0 -33 -12 -45.5
t-42 -12.5q-35 0 -43 20q-8 22 -8 38q0 36 11.5 49.5t33.5 13.5z" />
    <glyph glyph-name="k" unicode="k" horiz-adv-x="412" 
d="M106 713q-5 -28 -10 -125q-2 -111 -1 -173q86 77 122 113q45 45 109 120q24 29 48 7q10 -7 12.5 -19.5t-5.5 -22.5q-47 -52 -139 -144q56 -79 87 -144q28 -57 59 -134q12 -36 -17 -49q-31 -10 -43 23q-36 88 -58 135q-33 65 -77 122l-49 -46l-48 -42q0 -109 10 -159
q3 -22 -5 -34t-21 -12t-23 10t-11 28q-13 65 -18 239q-2 192 12 310q0 17 10.5 28t24.5 12t23.5 -10t7.5 -33z" />
    <glyph glyph-name="l" unicode="l" horiz-adv-x="199" 
d="M133 713q-8 -41 -10 -118q-3 -51 -3 -169q0 -100 4 -159q5 -81 9 -92q3 -22 -5.5 -34t-21.5 -12q-12 0 -22.5 10t-11.5 28q-12 59 -17 239q-2 178 11 310q0 17 10.5 28t25.5 12q14 1 23.5 -10t7.5 -33z" />
    <glyph glyph-name="m" unicode="m" horiz-adv-x="629" 
d="M109 544v-22q15 21 44.5 32.5t60.5 11.5q32 0 61.5 -13.5t42.5 -38.5q19 28 62 40.5t92 9.5q87 -12 109 -109q2 -126 0 -266q0 -14 -9.5 -22.5t-22.5 -8.5q-33 0 -32 37q2 93 1 138q-2 80 -5 107q-12 53 -68 59q-34 1 -61.5 -12t-30.5 -36q-5 -47 -7 -126q-1 -61 4 -137
q2 -18 -7.5 -28t-23.5 -10t-24.5 10t-9.5 29q-6 139 1 271q-10 39 -86 45q-33 1 -58 -14.5t-31 -44.5q-8 -87 -6 -260q0 -33 -34 -33q-13 0 -23 8t-10 22q-2 108 -2 177l3 183q0 15 10 24t23 9q32 -2 37 -32z" />
    <glyph glyph-name="n" unicode="n" horiz-adv-x="447" 
d="M104 538v-41q32 55 163 60q54 0 91.5 -28.5t45.5 -84.5q3 -120 3 -140q0 -60 -2 -132q0 -16 -9.5 -26.5t-22.5 -11.5q-14 -1 -23 9t-9 30q0 17 0.5 62t0.5 70q0 59 -2 131q-4 29 -29.5 44t-65.5 14q-40 -3 -83 -26q-41 -23 -57 -64l-3 -71.5t-2 -66.5q0 -79 1 -96
q-1 -11 -11 -19t-23 -9q-32 -2 -32 26v166l3 202q-1 16 9 25.5t23 9.5t23.5 -9.5t10.5 -23.5z" />
    <glyph glyph-name="o" unicode="o" horiz-adv-x="443" 
d="M413 357q0 -119 -59 -173q-49 -45 -143 -45q-91 0 -130 33q-56 50 -56 180q0 126 47 181.5t144 55.5q197 0 197 -232zM346 357q0 174 -131 174q-52 0 -80 -29q-44 -37 -44 -151q0 -82 26 -117.5t96 -35.5q62 0 93 30q40 42 40 129z" />
    <glyph glyph-name="p" unicode="p" horiz-adv-x="434" 
d="M99 254h32.5h33t28 0.5t29 1.5t24 3.5t23.5 6.5q66 21 66 110q0 76 -29 105q-52 46 -202 39q-14 -90 -5 -266zM98 195q-1 -59 2 -106q2 -24 8 -89q0 -14 -9.5 -23.5t-22.5 -10.5q-13 -2 -23 6.5t-11 25.5q-15 127 -15 309q0 166 14 239q4 40 56 34q9 0 37 0.5t43 0
t38.5 -1.5t43 -5t36.5 -11q105 -40 105 -187q0 -110 -62 -147q-57 -34 -240 -34z" />
    <glyph glyph-name="q" unicode="q" horiz-adv-x="424" 
d="M316 254q9 175 -3 266q-152 7 -204 -39q-29 -29 -29 -105q0 -90 66 -110q10 -4 23 -6.5t23.5 -3.5t29 -1.5t28.5 -0.5h33h33zM317 195q-183 0 -240 34q-34 20 -47.5 54t-13.5 93q0 147 104 187q21 8 51 12t44 5t58.5 0.5t45.5 -0.5q50 6 56 -34q13 -76 13 -239
q0 -164 -14 -309q-2 -17 -12.5 -25.5t-23.5 -6.5q-13 1 -22 10.5t-8 23.5q6 63 7 89q2 56 2 106z" />
    <glyph glyph-name="r" unicode="r" horiz-adv-x="432" 
d="M413 439q3 -14 -6.5 -22.5t-23.5 -9.5q-13 -2 -24 4.5t-11 18.5q-5 30 -40 46q-38 17 -75 16q-45 -3 -83.5 -26t-52.5 -62q-4 -62 -6 -138q0 -79 1 -96q-1 -11 -11 -19t-22 -9q-33 -2 -33 26v166l3 202q-1 16 9 25.5t24 9.5q13 0 23 -9.5t11 -23.5v-41q40 54 144 58
q61 0 110 -28q56 -35 63 -88z" />
    <glyph glyph-name="s" unicode="s" horiz-adv-x="436" 
d="M344 481q-58 46 -137 46q-96 4 -107 -67q-6 -62 133 -75q166 -13 172 -109q-1 -135 -166 -136q-141 -4 -208 66q-13 25 8 39q20 13 46 -4q27 -24 57.5 -33.5t86.5 -15.5q113 -2 110 70q5 32 -31 50t-115 22q-82 8 -122 41t-36 90q5 119 165 119q123 -2 192 -62
q20 -26 2 -45t-50 4z" />
    <glyph glyph-name="t" unicode="t" horiz-adv-x="436" 
d="M178 258q13 -46 55 -50q41 -7 139 19q23 12 36 -16q6 -9 2 -23t-18 -20q-105 -42 -185 -22q-85 20 -95 95q-16 81 -8 225q-12 0 -36 2q-10 0 -32 2q-14 -1 -20.5 8t-6.5 23q0 13 6.5 22t19.5 8q24 -2 36 -2q26 -2 38 -2l4 61q1 32 6 69q0 17 11 28t24 11q14 1 24 -9.5
t8 -32.5q-9 -44 -11 -128q99 -2 166 8q11 4 19 -4.5t9 -22.5t-5.5 -24.5t-19.5 -10.5q-55 -8 -174 -8q-2 -67 0 -126t8 -80z" />
    <glyph glyph-name="u" unicode="u" horiz-adv-x="457" 
d="M24 544q0 17 11.5 26.5t26.5 8.5q15 0 25.5 -9.5t9.5 -26.5q-9 -172 7 -244q25 -95 114 -95q56 0 85.5 23.5t42.5 71.5q7 28 9.5 63t4.5 98t3 91q-2 17 8.5 25.5t24.5 7.5q13 0 24.5 -10.5t13.5 -27.5q-1 -23 -3.5 -70.5t-4 -70.5t-4.5 -56.5t-8.5 -57t-13.5 -43.5
q-21 -55 -66 -82.5t-127 -27.5q-124 0 -162 118q-11 35 -16 83t-5 97v108z" />
    <glyph glyph-name="v" unicode="v" horiz-adv-x="426" 
d="M25 533q2 42 32 45q16 2 25 -7.5t10 -30.5q-1 -45 23 -150q26 -106 59 -149q35 -65 70 -1q37 38 64 140q26 97 34 165q2 33 29 33q29 2 33 -30q0 -75 -32 -189q-31 -111 -97 -186q-65 -83 -132 0q-63 77 -91 189q-28 114 -27 171z" />
    <glyph glyph-name="w" unicode="w" horiz-adv-x="557" 
d="M12 522q2 41 32 44q16 2 24.5 -7.5t10.5 -29.5q-1 -47 6 -150q7 -102 47 -158q26 -35 61 -2q37 45 48 137q10 89 10 116q2 32 32 32t30 -32q0 -30 6 -119q6 -86 35 -132q28 -34 56 -2q40 56 50 150q11 102 7 166q2 32 30 32q27 1 32 -29q7 -99 -13 -214
q-20 -110 -75 -171q-53 -47 -109 0q-37 37 -56 88q-17 -54 -53 -87q-71 -47 -121 -1q-64 46 -78 179q-13 132 -12 190z" />
    <glyph glyph-name="x" unicode="x" horiz-adv-x="432" 
d="M88 553q45 -74 120 -157q66 87 119 165q26 34 52 14q27 -18 13 -45l-140 -185q71 -70 155 -143q23 -27 2 -51q-21 -23 -46 -4q-88 75 -154 146l-134 -162q-16 -9 -41 7t-13 41q71 76 144 163q-73 79 -136 170q-19 36 3 55q23 19 56 -14z" />
    <glyph glyph-name="y" unicode="y" horiz-adv-x="443" 
d="M85 538q17 -94 58 -159.5t112 -117.5q69 102 101 277q10 36 40 32q31 -4 31 -43q-43 -193 -132 -336q-88 -142 -149 -206q-30 -28 -53 -10q-22 18 -3 46q87 91 131 183q-82 53 -135.5 139t-67.5 187q-6 37 25 43t42 -35z" />
    <glyph glyph-name="z" unicode="z" horiz-adv-x="445" 
d="M41 571q128 9 283 0q30 0 44 -24.5t-2 -56.5q-111 -170 -212 -255q-28 -26 22 -34q98 -7 220 5q29 0 29 -31t-22 -31q-185 -9 -321 -2q-30 -5 -47 23q-17 29 8 59q161 138 231 243q13 19 5.5 29t-33.5 9q-102 10 -198 1q-29 0 -31 32q-1 32 24 33z" />
    <glyph glyph-name="braceleft" unicode="{" horiz-adv-x="326" 
d="M96 253q-2 10 -2.5 45t-1.5 58q0 10 -29 39q-23 23 -26 36q-3 15 25 46q27 31 27 44q2 93 8 114q7 35 38 66q34 34 76 40q23 -1 27 -27q4 -25 -9 -40q-31 -6 -51.5 -28.5t-23.5 -55.5q-1 -5 -1 -90q0 -13 -21 -32q-23 -22 -23 -35.5t25 -34.5q23 -23 23 -33
q1 -18 1 -45.5v-34.5q0 -63 71 -97q12 -19 6.5 -38t-23.5 -24q-102 30 -116 127z" />
    <glyph glyph-name="bar" unicode="|" horiz-adv-x="232" 
d="M81 209v446q0 25 32 30q33 4 34 -27v-449q-1 -27 -34 -28q-32 -2 -32 28z" />
    <glyph glyph-name="braceright" unicode="}" horiz-adv-x="311" 
d="M188 253q-14 -97 -118 -127q-16 5 -21.5 24t6.5 38q70 37 70 97q0 4 -0.5 32t1.5 48q0 8 23 33q24 21 24 34.5t-23 35.5q-20 24 -20 32q0 85 -1 90q-3 32 -23.5 55t-50.5 29q-14 16 -10 40q5 26 26 27q41 -6 75 -40q33 -32 41 -67q6 -24 6 -113q0 -15 29 -44
q26 -32 23 -46q-1 -12 -25 -36q-29 -29 -29 -39q-2 -28 -2.5 -63.5t-0.5 -39.5z" />
    <glyph glyph-name="asciitilde" unicode="~" horiz-adv-x="559" 
d="M62 384q17 46 53 75.5t84 29.5q44 0 88 -35q58 -49 94 -36q21 8 66 66q17 14 34 1q18 -10 10 -37q-17 -33 -49 -65q-32 -30 -71 -30q-44 0 -94 34t-83 35q-31 -1 -51 -23q-4 -4 -36 -44q-18 -20 -37 -8q-18 14 -8 37z" />
    <glyph glyph-name="uni007F" horiz-adv-x="365" 
d="M53 223v402q-1 47 9 63q10 18 59 19h118q35 -1 51.5 -15.5t17.5 -52.5v-401q0 -55 -13 -69q-14 -14 -56 -13h-118q-44 -1 -56 12t-12 55zM119 604v-352q-1 -17 16.5 -24t42.5 -7h-1q63 0 64 30v356q-1 32 -58 34q-29 -1 -47 -9t-17 -28z" />
    <glyph glyph-name="uni00A0" unicode="&#xa0;" horiz-adv-x="500" 
 />
    <glyph glyph-name="exclamdown" unicode="&#xa1;" horiz-adv-x="805" 
d="M411 595q44 0 44 -45q0 -22 -12 -40t-32 -18q-46 0 -46 37q0 21 12 43q14 23 34 23zM369 396q0 9 9 15.5t21 7.5q32 2 37 -25q3 -93 4 -128q1 -49 1 -134q0 -15 -10 -24.5t-25 -10.5q-13 -2 -24 7t-11 28q0 11 0.5 54t0.5 71q0 31 -3 139z" />
    <glyph glyph-name="cent" unicode="&#xa2;" horiz-adv-x="805" 
d="M500 664l-12 -108q28 2 61 -6q25 -5 34.5 -17t5.5 -26q-4 -13 -16.5 -21t-26.5 -3q-6 -1 -17.5 0t-15.5 1q-25 2 -34 -1l-27 -247q6 1 24 3.5t28 4.5q34 7 56 17q19 8 32.5 2t16.5 -19q4 -16 -3.5 -31t-27.5 -21q-49 -20 -135 -28l-11 -102q-12 -30 -46 -20
q-33 12 -22 36l10 82q-25 0 -37 4q-20 8 -24 10q-92 40 -105 151q-13 202 210 226l15 128q7 23 41 16t26 -31zM382 234l27 243q-67 -7 -101 -43t-30 -93q14 -86 65 -100q14 -8 39 -7z" />
    <glyph glyph-name="sterling" unicode="&#xa3;" horiz-adv-x="805" 
d="M575 615q-74 52 -118 46q-19 -2 -31.5 -13.5t-14.5 -25.5q0 -44 -2 -118q55 -8 91 -3q23 -10 21 -36q-1 -11 -8.5 -19t-18.5 -8q-32 1 -89 10q-15 -156 -37 -199q77 -54 247 -71q34 1 36 -27q2 -29 -24 -31q-72 2 -147 12q-74 12 -144 63q-42 -51 -96 -48q-64 0 -91 31.5
t-7 92.5q13 50 65 72q50 22 81 -13q8 -12 26 -32q22 60 28 162q-52 12 -89 30q-9 4 -11.5 15t1.5 22q3 12 11.5 17.5t19.5 0.5q5 -1 34 -11q5 -2 18 -6t16 -5q3 24 3 68q-2 60 9 82q12 26 59 51q34 16 83 6q59 -8 110 -49q22 -22 7 -53q-16 -30 -38 -13zM281 242
q-51 59 -77 21q-20 -36 5 -50q21 -8 43 2q18 12 29 27z" />
    <glyph glyph-name="currency" unicode="&#xa4;" horiz-adv-x="805" 
d="M406 500q25 0 51 -8q19 25 38.5 34.5t31.5 3.5q13 -5 11 -27.5t-22 -51.5q22 -30 22 -63q0 -40 -17 -63q27 -28 35 -49t-3 -26q-8 -8 -29 -1t-44 29q-28 -28 -74 -28q-55 0 -79 18q-14 -17 -32 -25t-30 -4q-8 2 -10 10t5 24t25 37q-13 17 -13 52q0 50 36 91
q-27 23 -32.5 43.5t8.5 25.5q12 7 32.5 -1t39.5 -33q21 12 50 12zM407 444q-29 0 -52 -27q-21 -25 -21 -52t20 -41t51 -14q30 0 51 26q21 27 21 53t-19.5 40.5t-50.5 14.5z" />
    <glyph glyph-name="yen" unicode="&#xa5;" horiz-adv-x="805" 
d="M212 612q-8 26 14 43q22 16 40 -12q10 -27 21 -45l25 -40h71h78q48 62 113 118q17 9 36 -5q22 -14 4 -39l-66 -76q6 0 17 -0.5t16 -0.5h29q22 -6 24 -35q0 -30 -23 -31q-26 0 -60 2q-19 0 -53 2l-78 -112q-5 -11 -6 -17q0 -3 -2 -10.5t-3 -12.5q28 0 98 -2
q17 0 52.5 -0.5t54.5 -0.5q22 -6 24 -35q0 -30 -23 -31l-211 6q-5 -93 11 -147q3 -14 -4 -23t-19 -9q-30 -2 -41 33q-16 48 -8 147q-29 0 -75 -2l-84 -3q-28 0 -26 30q1 12 7 21t15 9q82 7 166 7q3 19 3 38q-32 34 -76 116q-10 0 -41.5 -1.5l-51.5 -2.5q-28 0 -26 30
q1 12 7 21t15 9q4 0 26 1.5l36 2.5q-4 7 -9.5 18t-7.5 14q-8 19 -9 25zM350 496l15 -32q3 -4 9 -14t10 -14l13 27q7 16 19 32h-36q-6 0 -16 0.5t-14 0.5z" />
    <glyph glyph-name="section" unicode="&#xa7;" horiz-adv-x="805" 
d="M459 493q-56 36 -100 11q-18 -10 -29.5 -28.5t-11.5 -38.5q1 -27 26 -58q75 -14 110 25q38 34 5 89zM404 318l20 -15l11 -10q38 -37 46 -84.5t-15 -83.5q-26 -41 -75.5 -54.5t-126.5 7.5q-26 8 -35.5 23t-3.5 28q4 13 18.5 19t31.5 0q92 -29 127 15q15 17 7.5 44
t-34.5 56q-67 55 -90 87q-25 37 -25 99q4 56 34 91t76 40q-30 29 -52 57q-25 40 -25 73q1 43 24.5 69t61.5 32q83 14 170 -52q9 -8 10 -22t-5 -23q-20 -26 -38 -5q-61 44 -112 39q-22 -3 -35 -16t-12 -33q4 -38 58 -83l29.5 -23l32.5 -25t23 -20q58 -71 35 -144
q-10 -36 -43.5 -59.5t-87.5 -26.5z" />
    <glyph glyph-name="dieresis" unicode="&#xa8;" horiz-adv-x="805" 
d="M586 710q0 -27 -20.5 -48.5t-49.5 -21.5q-27 0 -47 21.5t-20 48.5t20 49t47 22q29 0 49.5 -21.5t20.5 -49.5zM359 710q0 -27 -20.5 -48.5t-49.5 -21.5q-26 0 -46 21.5t-20 48.5t20 49t46 22q29 0 49.5 -21.5t20.5 -49.5z" />
    <glyph glyph-name="copyright" unicode="&#xa9;" horiz-adv-x="805" 
d="M405 717q149 0 249 -89q104 -91 104 -232q0 -147 -104 -264q-105 -118 -249 -118q-155 0 -252 79q-104 83 -104 225q0 72 27.5 143.5t76.5 127.5q108 128 252 128zM398 652q-123 0 -207 -106q-78 -97 -78 -230q0 -121 78 -183q72 -55 207 -55q127 0 210 94q83 91 83 222
q0 122 -83 191q-77 67 -210 67zM502 489q23 -20 8 -38q-21 -17 -45 -10q-62 16 -95 9q-64 -15 -57 -105q6 -60 54 -75q42 -12 114 14q41 16 59 -10q8 -9 3 -22t-22 -22q-96 -39 -170 -22q-94 19 -104 132q-10 78 25 122q26 36 81 48q37 9 90 -1q38 -7 59 -20z" />
    <glyph glyph-name="ordfeminine" unicode="&#xaa;" horiz-adv-x="805" 
d="M256 228q86 -17 117 -18q79 -2 164 12q14 2 25 -5.5t14 -20.5q8 -32 -27 -44q-99 -15 -179 -10q-51 3 -122 16q-37 6 -28 41q3 13 14 22t22 7zM340 598q-116 0 -116 -126q0 -77 37 -102t96 -25q53 0 86.5 37t33.5 94q0 53 -28 87q-29 35 -109 35zM338 662q87 0 139 -35
q37 -27 59 -88q35 -84 44 -99q27 -42 68 -89q16 -23 -8 -45q-10 -9 -22.5 -10t-18.5 8q-35 44 -41 55q-20 28 -34 53q-37 -122 -165 -122q-195 0 -195 182q0 88 38 134q48 56 136 56z" />
    <glyph glyph-name="guillemotleft" unicode="&#xab;" horiz-adv-x="805" 
d="M450 168q20 -26 -2 -48q-23 -23 -48 0q-116 87 -215 205q-17 15 -12 41q5 21 16 32q90 111 214 219q25 20 45 -2q22 -22 4 -47q-125 -113 -202 -206q94 -112 200 -194zM694 168q20 -26 -2 -48q-9 -10 -21.5 -10.5t-25.5 10.5q-116 86 -216 205q-17 15 -12 41q5 24 17 32
q88 110 213 219q12 9 25 8t20 -10q22 -22 4 -47q-125 -113 -202 -206q88 -105 200 -194z" />
    <glyph glyph-name="uni00AD" unicode="&#xad;" horiz-adv-x="805" 
d="M241 379q94 -16 117 -17q65 -5 164 12q15 2 26 -7t14 -24t-4 -28.5t-24 -19.5q-98 -14 -179 -9q-57 4 -122 15q-19 3 -25.5 16t-2.5 29q3 15 13.5 25t22.5 8z" />
    <glyph glyph-name="registered" unicode="&#xae;" horiz-adv-x="805" 
d="M405 717q149 0 249 -89q104 -91 104 -232q0 -147 -104 -264q-105 -118 -249 -118q-155 0 -252 79q-104 83 -104 225q0 72 27.5 143.5t76.5 127.5q108 128 252 128zM398 652q-123 0 -207 -106q-78 -97 -78 -230q0 -121 78 -183q72 -55 207 -55q127 0 210 94q83 91 83 222
q0 122 -83 191q-77 67 -210 67zM402 363q54 -4 77 10q10 6 20 33q7 29 -16 43q-33 18 -129 18l-12 -98q2 0 6.5 -0.5t11.5 -1.5t12 -1q8 -1 18 -2t12 -1zM359 523q119 0 170 -44q41 -32 31 -76q-16 -46 -35.5 -67t-48.5 -19q9 -26 27 -70q4 -7 7 -15.5t4 -10.5
q10 -21 -13 -34q-22 -13 -40 12l-27 61q-11 23 -17 46q-4 0 -10 0.5t-15.5 1.5t-15.5 1q-31 5 -44 4q-9 -45 -19 -103q-3 -18 -15.5 -25.5t-25.5 -4.5q-13 2 -20 14t-1 27l9 50l15 99l16 101q6 42 11 63q5 23 35 17q29 -5 22 -28z" />
    <glyph glyph-name="degree" unicode="&#xb0;" horiz-adv-x="805" 
d="M300 703q0 36 30 68q32 34 72 34q37 0 69 -30q34 -34 34 -65q0 -38 -36 -76q-36 -34 -71 -34q-41 0 -69.5 30.5t-28.5 72.5zM356 703q0 -46 42 -46q17 0 33.5 16.5t16.5 35.5q0 15 -15 27.5t-31 12.5q-19 0 -32.5 -15t-13.5 -31z" />
    <glyph glyph-name="plusminus" unicode="&#xb1;" horiz-adv-x="805" 
d="M254 199q86 -17 118 -18q64 -5 165 12q12 2 22 -6t13 -20q6 -32 -25 -42q-98 -15 -178 -10l-121 15q-34 6 -26 39q3 14 12 23t20 7zM254 507q23 -5 59 -10q28 -7 59 -8q-5 59 7 132q-2 16 7 23t22 4t22 -12t8 -20q0 -11 -0.5 -31t-0.5 -30q0 -43 1 -66l99 12
q12 2 22 -5.5t13 -20.5q6 -30 -25 -42l-27 -3t-27 -4l-25.5 -2.5t-19.5 -1.5q6 -34 18 -88q2 -31 -24 -38q-25 -8 -43 22q-17 85 -20 105q-29 0 -69 6q-38 5 -62 10q-34 5 -26 39q3 13 12 22t20 7z" />
    <glyph glyph-name="twosuperior" unicode="&#xb2;" horiz-adv-x="805" 
d="M133 540q55 13 87 35q41 27 41 68q0 65 -56 65q-24 0 -35 -5q-16 -9 -31 -36q-18 -23 -39 -6q-24 16 -10 37q31 69 125 69q45 0 77 -40q29 -37 29 -87q0 -55 -41 -96q-33 -33 -80 -47q62 -2 89 4q24 6 30 -25q2 -13 -2.5 -23t-15.5 -10q-31 -6 -86 -6t-83 6
q-15 1 -23.5 14t-8.5 31q-2 42 33 52z" />
    <glyph glyph-name="threesuperior" unicode="&#xb3;" horiz-adv-x="805" 
d="M80 734q17 24 60 37q44 13 83 0q72 -29 70 -119q0 -40 -22 -66q-18 -20 -31 -20l2 -2q2 -3 6.5 -9t7.5 -13q16 -33 2 -76q-20 -51 -79 -57q-33 -4 -77 7q-24 1 -22 26q0 10 6.5 17t17.5 7q42 -7 67 -4q18 3 27.5 10.5t8.5 23.5q-4 29 -35 42q-16 6 -58 6q-11 0 -17 8
t-6 18t6.5 18t17.5 8q47 -2 78 8q45 14 45 52q0 45 -37 62q-40 15 -83 -21q-14 -18 -35 -1t-3 38z" />
    <glyph glyph-name="acute" unicode="&#xb4;" horiz-adv-x="805" 
d="M340 630l39 37q44 35 62 47q12 5 24.5 2t19.5 -12q9 -9 9.5 -20t-8.5 -18q-30 -29 -63 -47q-7 -4 -64 -30q-22 -6 -30 7.5t11 33.5z" />
    <glyph glyph-name="paragraph" unicode="&#xb6;" horiz-adv-x="805" 
d="M524 696v-460q0 -17 -6 -26t-14 -8q-21 2 -21 34v467h-78v-467q0 -34 -21 -34q-21 2 -20 30v210q-89 -1 -130 41q-39 44 -38 113q-1 66 44 111q52 39 111 40l138 -1q26 0 32 -12q3 -9 3 -38z" />
    <glyph glyph-name="periodcentered" unicode="&#xb7;" horiz-adv-x="805" 
d="M412 372q24 0 41 -17t17 -39q0 -24 -17 -42t-40 -18q-59 0 -59 43q0 22 17 48q16 25 41 25z" />
    <glyph glyph-name="cedilla" unicode="&#xb8;" horiz-adv-x="805" 
d="M424 144q-1 -6 -3.5 -16t-2.5 -13q-2 -17 4 -18q28 0 49 -25t22 -55q0 -29 -26 -53q-25 -25 -88 -23q-32 1 -34 29q-1 10 5.5 18t18.5 8q31 -8 49 0.5t18 25.5q0 16 -17.5 27.5t-45.5 8.5q-12 1 -12 37q1 11 3.5 29t2.5 22q0 19 29 17q28 -2 28 -19z" />
    <glyph glyph-name="onesuperior" unicode="&#xb9;" horiz-adv-x="805" 
d="M86 699q44 21 93 65q14 10 32 0t19 -31q11 -149 -1 -279q26 0 40 2q11 3 18 -5t7 -21q-1 -13 -8.5 -22t-18.5 -9q-75 -5 -159 7q-12 0 -19 8.5t-6 21.5q2 29 30 25q6 -2 33 -4q4 0 13 -1t13 -1q10 160 2 230q-8 -9 -25 -16q-1 -1 -14 -7l-21 -10q-10 -7 -20 -3.5
t-17 14.5q-7 8 -5 19t14 17z" />
    <glyph glyph-name="ordmasculine" unicode="&#xba;" horiz-adv-x="805" 
d="M412 673q77 0 123.5 -45t46.5 -121q0 -80 -56 -142q-54 -67 -131 -67q-82 0 -132 41q-54 43 -54 119t62 145q67 70 141 70zM407 599q-47 0 -89 -49q-41 -46 -41 -93q0 -45 31.5 -65.5t82.5 -20.5q45 0 79 44q34 43 34 91q0 45 -25.5 69t-71.5 24zM246 253q94 -16 118 -17
q66 -5 165 12q12 2 22.5 -6t12.5 -21q6 -31 -25 -42q-78 -12 -178 -10q-48 3 -121 16q-34 6 -26 39q3 13 12 22t20 7z" />
    <glyph glyph-name="guillemotright" unicode="&#xbb;" horiz-adv-x="805" 
d="M353 168q112 89 200 194q-72 86 -202 206q-20 24 3 47q7 9 20 10t25 -8q112 -95 214 -219q11 -11 16 -32q5 -26 -11 -41q-105 -122 -216 -205q-26 -24 -48 0q-23 23 -1 48zM108 168q109 84 201 194q-79 95 -203 206q-18 24 3 47q9 9 21.5 10t24.5 -8q112 -95 214 -219
q11 -11 16 -32q5 -26 -11 -41q-109 -125 -216 -205q-25 -24 -49 0q-19 24 -1 48z" />
    <glyph glyph-name="onequarter" unicode="&#xbc;" horiz-adv-x="805" 
d="M354 370l103 200q7 14 19 19t22 -1q29 -10 18 -40q-12 -31 -103 -205q-100 -188 -110 -209q-18 -23 -43 -8q-11 4 -14.5 16t4.5 27q30 64 104 201zM563 328q22 18 41 1q6 -6 6 -17.5t-9 -19.5q-24 -25 -51 -75q-27 -49 -38 -89q12 -1 47 -1q9 0 21.5 0.5t13.5 0.5
q3 45 5 63q1 28 7 73q1 22 27 20q22 -2 27 -23q-2 -12 -8 -65q-3 -40 -3 -69l9 -1h18q9 0 16.5 -7.5t9.5 -16.5q2 -10 -3 -18t-17 -8q-16 -2 -20 -2h-14q0 -37 3 -52q0 -24 -26 -26q-27 -2 -31 21q-2 24 -2 31q0 16 1 27q-35 0 -56 1q-30 0 -52 2q-28 -11 -37 9q-7 16 0 37
q9 39 36 94q35 70 79 110zM96 669q48 25 92 66q15 10 32.5 0t19.5 -31q11 -149 -1 -280q26 0 39 2q12 3 19 -4.5t7 -20.5q-1 -13 -8.5 -22t-19.5 -9q-72 -5 -158 6q-27 0 -25 31q2 29 30 25q13 -3 32 -5q5 0 14 -1t13 -1q10 156 2 231q-8 -8 -25 -16q-21 -12 -35 -17
q-20 -15 -37 10q-7 9 -5 20t14 16z" />
    <glyph glyph-name="onehalf" unicode="&#xbd;" horiz-adv-x="805" 
d="M486 552q6 14 19 19.5t22 -0.5q12 -4 17.5 -15t0.5 -25q-31 -76 -103 -205l-56 -106l-54 -103q-18 -24 -43 -9q-26 14 -10 44q17 35 104 200l37 71.5l39 75zM115 650q48 24 93 65q15 10 32.5 1t19.5 -32q11 -149 -1 -279q25 0 39 2q12 3 18.5 -5t6.5 -21q-1 -12 -8 -21.5
t-19 -9.5q-74 -5 -158 7q-13 0 -20 9t-6 21t9 20t22 6q11 -3 32 -5q5 0 13.5 -1t12.5 -1q10 160 2 230q-7 -7 -24 -15q-3 -2 -15.5 -8t-19.5 -10q-22 -16 -38 11q-14 24 9 36zM512 90q57 16 87 36q41 27 41 68q-1 29 -16 47t-37 20q-22 3 -41.5 -8.5t-27.5 -35.5
q-17 -22 -39 -6q-10 6 -13 17t3 21q13 39 53 54q38 16 80 8q44 -7 72.5 -38.5t25.5 -81.5q0 -55 -41 -96q-32 -32 -80 -48q62 -2 89 4q24 7 30 -24q2 -13 -2.5 -23t-15.5 -10q-31 -6 -86 -6q-58 0 -83 6q-14 0 -22.5 13t-9.5 32q0 44 33 51z" />
    <glyph glyph-name="threequarters" unicode="&#xbe;" horiz-adv-x="805" 
d="M354 370l103 200q7 14 19 19t22 -1q29 -10 18 -40q-12 -31 -103 -205q-100 -188 -110 -209q-18 -23 -43 -8q-11 4 -14.5 16t4.5 27q30 64 104 201zM563 328q22 18 41 1q6 -6 6 -17.5t-9 -19.5q-24 -25 -51 -75q-27 -49 -38 -89q12 -1 47 -1q9 0 21.5 0.5t13.5 0.5
q3 45 5 63q1 28 7 73q1 22 27 20q22 -2 27 -23q-2 -12 -8 -65q-3 -40 -3 -69l9 -1h18q9 0 16.5 -7.5t9.5 -16.5q2 -10 -3 -18t-17 -8q-16 -2 -20 -2h-14q0 -37 3 -52q0 -24 -26 -26q-27 -2 -31 21q-2 24 -2 31q0 16 1 27q-35 0 -56 1q-30 0 -52 2q-28 -11 -37 9q-7 16 0 37
q9 39 36 94q35 70 79 110zM88 683q18 26 56.5 37t76.5 2q41 -10 64.5 -40.5t15.5 -80.5q0 -42 -23 -65q-15 -21 -30 -21l2 -3q2 -2 6.5 -8t7.5 -13q14 -30 2 -75q-19 -52 -79 -58q-31 -4 -78 7q-23 1 -21 26q0 10 6.5 17.5t16.5 7.5q45 -7 68 -4q17 3 27 10t9 23
q-4 27 -35 42q-19 7 -58 7q-23 0 -23 25q0 11 6.5 18.5t17.5 7.5q46 -2 75 7q47 15 48 53q0 49 -37 63q-41 20 -83 -22q-14 -18 -35 -1t-3 38z" />
    <glyph glyph-name="questiondown" unicode="&#xbf;" horiz-adv-x="805" 
d="M364 556q0 22 9.5 34t22.5 13q13 0 22.5 -11.5t9.5 -34.5q0 -68 -25 -108q-22 -38 -53 -70l-12 -11.5l-12 -11.5l-10.5 -11t-10.5 -12t-8.5 -11t-8.5 -13t-6.5 -13t-5.5 -14.5t-2.5 -15t-1.5 -17.5q0 -65 36 -93t81 -26q43 1 79 30q37 30 37 84q0 17 9.5 27t24.5 11
q14 1 24 -9t10 -29q0 -86 -57 -140q-54 -48 -126 -46q-75 0 -125 47q-58 52 -58 144q0 55 24 97q5 8 13 17t12 13t16 14.5t13 11.5q38 30 54 56q25 36 25 98zM397 784q24 0 40.5 -16.5t16.5 -40.5q0 -23 -16.5 -40t-40.5 -17t-40 16.5t-16 40.5t16 40.5t40 16.5z" />
    <glyph glyph-name="Adieresis" unicode="&#xc4;" horiz-adv-x="805" 
d="M143 85q72 157 123 297l73 215q6 30 44 30t45 -30q80 -261 231 -506q9 -15 4.5 -26t-17.5 -18q-11 -6 -26.5 -3t-23.5 17q-35 51 -82 148l-242 -1q-34 -97 -66 -145q-12 -19 -27 -24.5t-24 2.5q-11 6 -15 18.5t3 25.5zM290 267h196q-71 162 -100 266q-18 -64 -45 -131
q-36 -92 -51 -135zM561 727q0 -22 -16.5 -39t-39.5 -17q-21 0 -37.5 17.5t-16.5 38.5t16.5 39t37.5 18q23 0 39.5 -17.5t16.5 -39.5zM331 727q0 -22 -17 -39t-40 -17q-21 0 -36.5 17.5t-15.5 38.5t15.5 39t36.5 18q23 0 40 -17.5t17 -39.5z" />
    <glyph glyph-name="Aring" unicode="&#xc5;" horiz-adv-x="805" 
d="M143 85q72 157 123 297l73 215q6 30 44 30t45 -30q80 -261 231 -506q9 -15 4.5 -26t-17.5 -18q-11 -6 -26.5 -3t-23.5 17q-35 51 -82 148l-242 -1q-34 -97 -66 -145q-12 -19 -27 -24.5t-24 2.5q-11 6 -15 18.5t3 25.5zM290 267h196q-71 162 -100 266q-18 -64 -45 -131
q-36 -92 -51 -135zM288 744q0 32 27 61q30 30 66 30q32 0 61 -27q31 -29 31 -57q0 -36 -33 -69q-31 -31 -63 -31q-37 0 -63 27.5t-26 65.5zM340 744q0 -42 37 -42q15 0 30 15t15 33q0 14 -13 24.5t-28 10.5q-18 0 -29.5 -13t-11.5 -28z" />
    <glyph glyph-name="AE" unicode="&#xc6;" horiz-adv-x="805" 
d="M362 681l-95 -274l94 -5q0 8 2 47t3 66q0 99 -4 166zM342 146l-1 10q-1 9 0 23q0 46 10 152l-122 2q-12 -38 -32 -93q-15 -47 -34 -97q-18 -45 -49 -31q-11 6 -16 18.5t1 30.5q22 52 50 130l59 162l59 150q31 72 52 101q7 0 22.5 1t41.5 3t48 3q99 5 192 -5
q9 -4 15.5 -16t6.5 -24q1 -14 -4 -23t-16 -7q-43 6 -100 6q-18 0 -49.5 -2t-42.5 -2l-3 -220q141 0 205 6q10 0 17 -8.5t8 -19.5q5 -28 -18 -33q-94 -10 -214 -3l-6 -147q85 -14 218 12q26 0 32 -34q2 -34 -18 -39q-158 -18 -193 -20q-46 -3 -87 -1q-18 1 -26 4.5t-6 10.5z
" />
    <glyph glyph-name="Eacute" unicode="&#xc9;" horiz-adv-x="805" 
d="M580 125l-332 -9q-51 -11 -55 33q-16 88 -21 199q-7 155 6 271q0 34 67 28l300 -5q15 0 23.5 -9.5t9.5 -23.5q0 -32 -33 -32l-300 7q-7 -58 -8 -83q-2 -54 -1 -92l318 14q14 0 23 -9.5t9 -22.5t-8 -22.5t-20 -9.5l-320 -17q0 -64 6 -100q3 -27 10 -65l326 11
q15 0 23 -9.5t8 -22.5t-8.5 -22t-22.5 -9zM471 775l-51 -70q-11 -20 -42 -12q-28 8 -21 29l51 96q11 20 29 24.5t30 -5.5q13 -10 15.5 -26.5t-11.5 -35.5z" />
    <glyph glyph-name="Eth" unicode="&#xd0;" horiz-adv-x="805" 
d="M353 648q0 -106 -1 -170q25 6 43 7q7 2 22.5 4.5l21.5 3.5q12 1 20.5 -6t10.5 -19q6 -26 -23 -38q-56 -11 -99 -12q-4 -84 -12 -175q123 -36 188 22q78 65 29 236q-48 104 -91 128q-15 9 -34.5 13.5t-32 5t-42.5 0.5zM620 493q39 -150 -5 -234q-36 -75 -127 -93
q-76 -19 -172 2q-96 25 -142 63q-22 16 -9 46q13 27 31 19q13 -8 35 -15q20 -7 40 -16q8 84 13 153q-35 0 -72 7l-62 12q-30 6 -22 36q3 12 10.5 20t15.5 8q42 -10 63 -14q42 -8 71 -9q7 180 -5 238q1 0 7.5 1t18 2.5t23.5 1.5q55 2 102 -9q62 -15 110 -63q54 -59 76 -156z
" />
    <glyph glyph-name="Ntilde" unicode="&#xd1;" horiz-adv-x="805" 
d="M534 161l-61 71l-85 100l-86 97q-34 39 -58 69q-9 -90 -4 -189q2 -112 12 -134q3 -17 -5 -26t-21 -9q-13 -1 -23.5 6.5t-11.5 20.5q-12 47 -17 164q-2 132 12 214q0 24 34 31q30 7 49 -12l273 -315q1 39 1 148q-2 110 -2 149q-4 15 5 25t22 11q14 0 25 -7.5t12 -22.5
q4 -80 2 -206q0 -106 -8 -175q-5 -20 -28 -26q-22 -4 -37 16zM494 658q-32 -13 -92 10q-15 4 -17.5 5t-15 3.5t-18 1.5t-14 -3t-15.5 -7q-28 -27 -42 3q-10 32 11 47q38 34 105 14q9 -2 25.5 -7l23.5 -7t20.5 -4t16.5 2q44 16 50 -11q2 -31 -38 -47z" />
    <glyph glyph-name="Odieresis" unicode="&#xd6;" horiz-adv-x="805" 
d="M588 357q0 -119 -59 -173q-49 -45 -143 -45q-91 0 -130 33q-56 48 -56 180q0 126 47 181.5t144 55.5q197 0 197 -232zM521 357q0 174 -131 174q-52 0 -80 -29q-44 -37 -44 -151q0 -82 26 -117.5t96 -35.5q62 0 92 30q41 41 41 129zM563 726q0 -22 -16.5 -39t-39.5 -17
q-21 0 -37.5 17.5t-16.5 38.5t16.5 39t37.5 18q23 0 39.5 -17.5t16.5 -39.5zM333 726q0 -22 -17 -39t-40 -17q-21 0 -36.5 17.5t-15.5 38.5t15.5 39t36.5 18q23 0 40 -17.5t17 -39.5z" />
    <glyph glyph-name="multiply" unicode="&#xd7;" horiz-adv-x="805" 
d="M299 565q8 -18 42 -64l45 -59q1 0 23.5 21l35.5 34q52 47 67 57q24 22 48 -8q7 -12 7.5 -24.5t-8.5 -18.5q-27 -19 -73 -61t-59 -55q18 -24 49 -55q37 -42 56 -59q20 -23 0 -44q-21 -23 -48 -3q-30 27 -56 59q-22 22 -49 55q-5 -4 -12.5 -12l-18.5 -19.5l-19 -19.5
q-31 -34 -53 -56t-44 -5q-21 15 -9 48q7 8 28 29.5t30 31.5l55 58q-1 1 -20 27l-30 40q-38 54 -44 64q-16 31 16 45q12 6 24.5 4.5t16.5 -10.5z" />
    <glyph glyph-name="Oslash" unicode="&#xd8;" horiz-adv-x="805" 
d="M207 546q72 114 186 122q69 6 131 -20q4 4 10 13.5l9 14.5q5 8 19 26q32 34 57 13q9 -7 12.5 -20t-1.5 -20q-6 -6 -22 -31q-3 -6 -10.5 -17t-10.5 -16q56 -40 77 -121q23 -106 -51 -223q-79 -108 -193 -115q-63 -5 -131 20q-33 -39 -66 -69q-33 -27 -58 -10q-22 20 11 59
q11 11 23 27q11 15 24 30q-60 31 -73 129q-9 112 57 208zM266 517q-65 -91 -53 -167q10 -65 57 -93q59 73 118 164l102 169q-43 14 -94 10q-84 -9 -130 -83zM553 289q62 92 49 174q-11 53 -50 90q-129 -211 -226 -333q68 -14 127 -3q60 11 100 72z" />
    <glyph glyph-name="Udieresis" unicode="&#xdc;" horiz-adv-x="805" 
d="M164 561q0 13 10 21t23 9q14 0 24 -7.5t11 -22.5q0 -77 -6 -154q-5 -79 7 -140t52 -100q41 -39 134 -39q114 0 143 146q5 29 7.5 69t3 66t0 79.5t-0.5 68.5q0 28 33 28q13 0 23.5 -7t10.5 -18v-44v-47.5t-0.5 -42.5t-1.5 -46t-2.5 -40t-4 -43t-6.5 -36t-9 -37
q-42 -154 -192 -154q-110 0 -166 33.5t-76 101.5q-10 30 -14.5 74t-4.5 77t1 102.5t1 102.5zM563 726q0 -22 -16.5 -39t-39.5 -17q-21 0 -37.5 17.5t-16.5 38.5t16.5 39t37.5 18q23 0 39.5 -17.5t16.5 -39.5zM333 726q0 -22 -17 -39t-40 -17q-21 0 -36.5 17.5t-15.5 38.5
t15.5 39t36.5 18q23 0 40 -17.5t17 -39.5z" />
    <glyph glyph-name="Thorn" unicode="&#xde;" horiz-adv-x="805" 
d="M330 523v-108v-118q24 -19 60 -22.5t70 9.5q82 28 104 119q16 75 -61 115q-77 39 -173 5zM248 157q16 84 16 248q1 47 -4 205q-9 36 -1.5 55t23.5 18q17 -1 30.5 -26.5t15.5 -72.5q47 20 103 20t103 -22q50 -23 77 -69.5t18 -112.5q-20 -135 -141 -180q-49 -17 -93 -14.5
t-66 20.5q-2 -19 -6 -42l-6 -33q-4 -33 -39 -28q-13 1 -22.5 10t-7.5 24z" />
    <glyph glyph-name="germandbls" unicode="&#xdf;" horiz-adv-x="805" 
d="M190 203l101 385q19 55 58 70q44 17 125 -21q115 -49 99 -125q-11 -55 -91 -119q97 -49 112 -107q13 -51 -36 -94q-45 -40 -109 -48q-69 -9 -108 30q-35 32 -16 64q7 12 18 15.5t16 -2.5q25 -31 71 -38q39 -6 70 12q28 20 17 50q-15 37 -90 77q-26 15 -15 47q13 33 45 55
q51 33 47 57q-3 25 -30 40q-28 17 -63 24q-34 7 -47 9l-106 -389q-15 -44 -46 -36q-14 2 -20.5 14t-1.5 30z" />
    <glyph glyph-name="agrave" unicode="&#xe0;" horiz-adv-x="805" 
d="M340 540q-116 0 -116 -126q0 -77 37 -102t96 -25q53 0 86.5 37t33.5 94q0 53 -28 87q-29 35 -109 35zM338 597q91 0 139 -31q38 -27 59 -86q38 -88 44 -99q29 -43 68 -88q8 -13 5 -25t-13 -20q-10 -9 -22.5 -10t-18.5 8q-31 38 -41 54q-20 28 -34 53q-40 -131 -165 -131
q-92 0 -143.5 49t-51.5 143q0 85 38 130q45 53 136 53zM348 705l-51 70q-16 19 -13.5 35.5t16.5 26.5q12 10 30 5.5t29 -24.5l51 -96q7 -20 -21 -29q-32 -8 -41 12z" />
    <glyph glyph-name="adieresis" unicode="&#xe4;" horiz-adv-x="805" 
d="M340 520q-116 0 -116 -126q0 -77 37 -102t96 -25q53 0 86.5 37t33.5 94q0 53 -28 87q-29 35 -109 35zM338 578q89 0 139 -32q38 -26 59 -86q37 -86 44 -98q27 -42 68 -89q16 -23 -8 -45q-10 -9 -22.5 -10t-18.5 8q-35 44 -41 55q-20 28 -34 53q-40 -131 -165 -131
q-92 0 -143.5 48.5t-51.5 142.5q0 86 38 131q46 53 136 53zM521 727q0 -22 -16 -39t-39 -17q-21 0 -37.5 17.5t-16.5 38.5t16.5 39t37.5 18q23 0 39 -17.5t16 -39.5zM292 727q0 -22 -17 -39t-40 -17q-21 0 -36.5 17.5t-15.5 38.5t15.5 39t36.5 18q23 0 40 -17.5t17 -39.5z
" />
    <glyph glyph-name="aring" unicode="&#xe5;" horiz-adv-x="805" 
d="M340 520q-116 0 -116 -126q0 -77 37 -102t96 -25q53 0 86.5 37t33.5 94q0 53 -28 87q-29 35 -109 35zM338 578q89 0 139 -32q38 -26 59 -86q37 -86 44 -98q27 -42 68 -89q16 -23 -8 -45q-10 -9 -22.5 -10t-18.5 8q-35 44 -41 55q-20 28 -34 53q-40 -131 -163 -131
q-93 0 -145 48.5t-52 142.5q0 86 38 131q46 53 136 53zM269 743q0 34 27 61q30 30 65 30q30 0 62 -27q30 -28 30 -57q0 -37 -32 -69q-33 -31 -64 -31q-37 0 -62.5 27.5t-25.5 65.5zM320 743q0 -42 37 -42q15 0 30 15t15 33q0 14 -13 24.5t-28 10.5q-17 0 -29 -13t-12 -28z
" />
    <glyph glyph-name="ae" unicode="&#xe6;" horiz-adv-x="805" 
d="M319 323q2 16 2 28q0 21 5 28q-85 36 -150 29q-82 -9 -82 -96q0 -128 85 -128q110 0 140 139zM505 365q126 -10 167 4q37 11 43 63q-5 63 -74 63q-61 -2 -98 -35q-38 -26 -38 -95zM434 330q-3 0 -10 2t-11 3q-14 5 -23 13q-7 -112 39 -164q23 -22 1 -42q-25 -21 -61 7
q-9 9 -15 25q-13 23 -21 32q-19 -31 -47 -52q-41 -30 -92 -30q-80 0 -123 47t-43 141q0 112 103 145q90 28 210 -20l4 83q0 30 -46 47q-36 13 -77 13q-14 0 -20 8t-2 20q14 29 66 29q103 0 132 -72q15 -34 11 -96q-2 -11 -5 -20q0 -3 -1 -8.5l-2 -11.5t-1 -11q12 -2 18 -5
q1 0 20 -9q25 82 70 122t124 40q82 0 121 -57q34 -49 16 -127q-10 -21 -15 -29.5t-16 -20.5t-26 -19q-47 -22 -191 -15q0 -25 10 -50.5t24 -34.5q37 -28 75.5 -30t102.5 26q32 17 50 -5q20 -22 -13 -50q-26 -22 -70.5 -34t-89.5 -6q-118 15 -161 137q-14 35 -15 79z" />
    <glyph glyph-name="ccedilla" unicode="&#xe7;" horiz-adv-x="805" 
d="M527 579q27 -24 8 -38q-16 -20 -49 -8q-21 6 -54 11q-33 7 -73 -1q-35 -7 -61 -41q-24 -32 -17 -104q6 -82 74 -102q64 -16 154 17q45 18 67 -7q9 -9 3.5 -23t-24.5 -25l-22 -7q-13 -16 -40 -39t-32 -28q-39 -34 -61 -84q-8 -20 -20.5 -26.5t-24.5 -0.5q-28 15 -15 49
q19 56 73 104q-84 0 -139 35q-54 36 -63 133q-11 96 31 153q32 45 100 59q53 11 112 -1q53 -11 73 -26z" />
    <glyph glyph-name="egrave" unicode="&#xe8;" horiz-adv-x="805" 
d="M390 584q97 -22 139 -75q36 -38 49 -121q13 -52 -35 -56q-74 -9 -147 -8q-81 0 -167 14q0 -46 37 -89q38 -42 100 -51q37 -8 77 5q42 13 65 52q13 18 39 4q24 -14 13 -40q-26 -44 -89 -71q-62 -24 -118 -13q-103 18 -158 102q-49 77 -31 162q13 90 71 142q63 53 155 43z
M514 391q-2 47 -29 80q-31 42 -100 55q-56 14 -102 -24q-48 -41 -49 -103q149 -30 280 -8zM348 705l-51 70q-16 19 -13.5 35.5t16.5 26.5q12 10 30 5.5t29 -24.5l51 -96q7 -20 -21 -29q-32 -8 -41 12z" />
    <glyph glyph-name="eacute" unicode="&#xe9;" horiz-adv-x="805" 
d="M390 584q97 -22 139 -75q36 -38 49 -121q13 -52 -35 -56q-74 -9 -147 -8q-81 0 -167 14q0 -46 37 -89q38 -42 100 -51q37 -8 77 5q42 13 65 52q13 18 39 4q24 -14 13 -40q-26 -44 -89 -71q-62 -24 -118 -13q-103 18 -158 102q-49 77 -31 162q13 90 71 142q63 53 155 43z
M514 391q-2 47 -29 80q-31 42 -100 55q-56 14 -102 -24q-48 -41 -49 -103q149 -30 280 -8zM471 775l-51 -70q-11 -20 -42 -12q-28 8 -21 29l51 96q11 20 29 24.5t30 -5.5q13 -10 15.5 -26.5t-11.5 -35.5z" />
    <glyph glyph-name="igrave" unicode="&#xec;" horiz-adv-x="805" 
d="M411 595q44 0 44 -45q0 -22 -12 -40t-32 -18q-46 0 -46 37q0 21 12 43q14 23 34 23zM369 396q0 9 9 15.5t21 7.5q32 2 37 -25q3 -93 4 -128q1 -49 1 -134q0 -15 -10 -24.5t-25 -10.5q-13 -2 -24 7t-11 28q0 11 0.5 54t0.5 71q0 31 -3 139z" />
    <glyph glyph-name="eth" unicode="&#xf0;" horiz-adv-x="805" 
d="M506 584q12 -6 15 -17t-4 -20q-19 -25 -56 -9q-32 9 -73 43l-19 -22l-15.5 -19t-10.5 -12l-29 -38q35 12 86 3q50 -7 95 -35q43 -28 66 -75q22 -46 0 -107q-77 -177 -203 -170q-52 3 -99.5 36.5t-77.5 85.5q-48 73 3 181q41 89 160 213q-42 45 -65 84q-17 33 8 47
q10 6 22 4.5t18 -10.5q26 -40 66 -79q46 41 73 60q20 14 36 -8q18 -22 0 -36q-60 -52 -65 -58q42 -33 69 -42zM289 431q-31 -31 -49 -69q-24 -64 9 -116q24 -37 58 -54.5t69 -12.5q76 11 122 106q16 41 1 75.5t-53 59.5q-37 25 -79 29.5t-78 -18.5z" />
    <glyph glyph-name="ntilde" unicode="&#xf1;" horiz-adv-x="805" 
d="M271 537v-41q31 55 162 60q55 0 93 -29t44 -84q3 -120 3 -140q0 -60 -2 -132q0 -16 -9.5 -26.5t-22.5 -11.5q-14 -1 -23 9t-9 30q0 17 0.5 62t0.5 70q0 59 -2 131q-4 29 -29.5 44t-65.5 14q-40 -3 -83 -26q-41 -23 -57 -64l-3 -71.5t-2 -66.5q0 -79 1 -96q-1 -11 -11 -19
t-23 -9q-32 -2 -32 26v166l3 202q-1 16 9 25.5t23 9.5t23.5 -9.5t11.5 -23.5zM494 658q-32 -13 -92 10q-15 4 -17.5 5t-15 3.5t-18 1.5t-14 -3t-15.5 -7q-28 -27 -42 3q-10 32 11 47q38 34 105 14q9 -2 25.5 -7l23.5 -7t20.5 -4t16.5 2q44 16 50 -11q2 -31 -38 -47z" />
    <glyph glyph-name="ograve" unicode="&#xf2;" horiz-adv-x="805" 
d="M588 357q0 -119 -59 -173q-49 -45 -143 -45q-91 0 -130 33q-56 48 -56 180q0 126 47 181.5t144 55.5q197 0 197 -232zM521 357q0 174 -131 174q-52 0 -80 -29q-44 -37 -44 -151q0 -82 26 -117.5t96 -35.5q62 0 92 30q41 41 41 129zM348 705l-51 70q-16 19 -13.5 35.5
t16.5 26.5q12 10 30 5.5t29 -24.5l51 -96q7 -20 -21 -29q-32 -8 -41 12z" />
    <glyph glyph-name="odieresis" unicode="&#xf6;" horiz-adv-x="805" 
d="M588 343q0 -115 -59 -166q-47 -38 -143 -38q-88 0 -131 34q-56 47 -55 165q-1 119 46 169.5t144 50.5q91 0 144 -49q54 -48 54 -166zM521 343q-2 157 -132 157q-54 0 -80 -25q-43 -36 -43 -138q0 -59 24 -100q26 -39 98 -39q61 0 91 30q41 37 42 115zM563 726
q0 -22 -16.5 -39t-39.5 -17q-21 0 -37.5 17.5t-16.5 38.5t16.5 39t37.5 18q23 0 39.5 -17.5t16.5 -39.5zM333 726q0 -22 -17 -39t-40 -17q-21 0 -36.5 17.5t-15.5 38.5t15.5 39t36.5 18q23 0 40 -17.5t17 -39.5z" />
    <glyph glyph-name="divide" unicode="&#xf7;" horiz-adv-x="805" 
d="M182 443q78 -16 199 -17q136 -5 246 13q12 2 22 -6t13 -20q6 -32 -25 -42q-105 -16 -259 -11q-131 2 -202 15q-17 2 -23.5 13.5t-3.5 25.5q3 13 12.5 22t20.5 7zM407 281q23 0 36.5 -11.5t13.5 -31.5q0 -23 -14 -43t-35 -20q-24 0 -38.5 11t-14.5 31q0 22 16 43t36 21z
M419 605q22 0 36 -11.5t14 -31.5q0 -22 -14.5 -42t-34.5 -20q-53 0 -53 42q0 22 15.5 42.5t36.5 20.5z" />
    <glyph glyph-name="oslash" unicode="&#xf8;" horiz-adv-x="805" 
d="M562 618q171 -132 76 -299q-61 -97 -150 -129q-96 -34 -189 13q-30 -62 -33 -71q-8 -11 -22.5 -13.5t-25.5 4.5q-14 6 -21 18t-1 26l6.5 13.5l9.5 19.5q14 24 23 42q-165 119 -68 279q55 91 145 134q90 39 183 2q23 30 26 36q14 20 22 30q18 20 47 -3t13 -48
q-4 -5 -10.5 -14.5t-9.5 -12.5l-11 -14zM451 587q-65 24 -124 -11q-57 -34 -98 -100q-23 -39 -24 -70.5t15.5 -55.5t50.5 -49l89 145zM336 264q67 -34 130 -7q64 27 105 96q25 42 24.5 78t-19.5 63t-58 55l-95 -144q-44 -64 -87 -141z" />
    <glyph glyph-name="ugrave" unicode="&#xf9;" horiz-adv-x="805" 
d="M190 544q0 17 11.5 26.5t26.5 8.5q15 0 25.5 -9.5t9.5 -26.5q-9 -176 8 -244q24 -95 113 -95q56 0 85.5 23.5t42.5 71.5q7 28 9.5 63t4.5 98t3 91q-2 17 8.5 25.5t24.5 7.5q13 0 24.5 -10.5t13.5 -27.5q-1 -23 -3.5 -70.5t-4 -70.5t-4.5 -56.5t-8.5 -57t-13.5 -43.5
q-21 -55 -66 -82.5t-127 -27.5q-124 0 -162 118q-11 35 -16 83t-5 97v108zM377 705l-51 70q-15 19 -13 35.5t16 26.5q12 10 30 5.5t30 -24.5l50 -96q7 -21 -21 -29q-32 -8 -41 12z" />
    <glyph glyph-name="udieresis" unicode="&#xfc;" horiz-adv-x="805" 
d="M190 544q0 17 11.5 26.5t26.5 8.5q15 0 25.5 -9.5t9.5 -26.5q-9 -176 8 -244q24 -95 113 -95q56 0 85.5 23.5t42.5 71.5q7 28 9.5 63t4.5 98t3 91q-2 17 8.5 25.5t24.5 7.5q13 0 24.5 -10.5t13.5 -27.5q-1 -23 -3.5 -70.5t-4 -70.5t-4.5 -56.5t-8.5 -57t-13.5 -43.5
q-21 -55 -66 -82.5t-127 -27.5q-124 0 -162 118q-11 35 -16 83t-5 97v108zM563 726q0 -22 -16.5 -39t-39.5 -17q-21 0 -37.5 17.5t-16.5 38.5t16.5 39t37.5 18q23 0 39.5 -17.5t16.5 -39.5zM333 726q0 -22 -17 -39t-40 -17q-21 0 -36.5 17.5t-15.5 38.5t15.5 39t36.5 18
q23 0 40 -17.5t17 -39.5z" />
    <glyph glyph-name="thorn" unicode="&#xfe;" horiz-adv-x="805" 
d="M323 501q3 -51 3 -178q60 -48 120 -36q69 13 92 107q17 76 -47 107q-65 35 -168 0zM233 44q31 189 23 417q-2 71 -9 155.5t-7 92.5q-2 17 9 27.5t26 10.5q16 1 28 -10t14 -30q7 -110 5 -138q116 47 206 9q101 -48 84 -185q-20 -143 -133 -173q-47 -11 -89 -2.5t-67 29.5
q0 -16 -8 -106l-8 -104q-4 -33 -40 -31q-15 2 -25.5 12.5t-8.5 25.5z" />
    <glyph glyph-name="dcroat" unicode="&#x111;" horiz-adv-x="805" 
d="M664 571q-55 -12 -99 -12q6 -215 6 -405q-203 -79 -304 -31q-89 40 -89 164q0 140 117 170q50 12 103 3t96 -35q0 69 -5 133q-47 1 -94 9q-13 2 -30 5.5t-23 4.5q-33 5 -27 40q3 13 12.5 22t20.5 7q33 -8 141 -14q-3 16 -3 44q-1 15 -1 38q0 14 11 21t25 7
q16 0 27.5 -7.5t12.5 -19.5l2 -84q57 0 91 8q14 3 24 -5t11 -20q8 -32 -25 -43zM500 211l-1 149q-74 39 -150 33q-95 -9 -95 -104q0 -93 91 -107q75 -10 155 29z" />
    <glyph glyph-name="Hbar" unicode="&#x126;" horiz-adv-x="805" 
d="M520 406q0 22 -0.5 64t-0.5 61q-36 0 -113 -0.5t-115 -0.5q0 -13 0.5 -58.5t0.5 -74.5q130 0 228 9zM654 592q21 0 27 -32q2 -32 -25 -32q-11 0 -35 1t-37 1q0 -36 1 -56q0 -41 1 -61q28 1 67 7q30 2 35 -26q6 -28 -25 -40q-11 -3 -37 -5q-19 -4 -40 -6q0 -57 2 -137
q0 -24 -0.5 -53.5t-0.5 -33.5q0 -15 -10.5 -25t-23.5 -10q-14 -2 -24 6.5t-10 28.5q0 2 0.5 30t0.5 52v139q-108 -7 -228 -7q0 -46 -1 -109.5t-1 -71.5q0 -15 -10 -24.5t-24 -10.5q-14 -2 -24 6.5t-10 28.5q0 10 1.5 73t2.5 109q-58 0 -79 4q-32 4 -24 38q3 12 12 21t18 8
q21 -5 74 -7v71v59q-14 0 -41 -1t-40 -1q-26 2 -24 32q0 30 24 36q17 0 64 1.5t68 1.5q51 3 168 5q107 0 146 -1q60 -2 62 -9z" />
    <glyph glyph-name="hbar" unicode="&#x127;" horiz-adv-x="805" 
d="M218 638q35 -9 83 -14v48q-2 12 7.5 20t24.5 8q14 0 25 -8t12 -23q0 -7 0.5 -24.5t0.5 -26.5q62 0 153 13q14 2 24 -5.5t12 -20.5q8 -30 -26 -42q-79 -13 -163 -13q0 -10 -0.5 -33t-0.5 -35v-76q54 60 122 48q63 -11 94 -66q24 -38 28 -77q2 -53 -26 -157q-6 -15 -19 -21
t-26 -2t-19.5 17.5t-1.5 32.5q36 115 5 168q-18 35 -64 42q-30 2 -57 -23q-27 -23 -43 -53q-1 -13 -2.5 -40t-3.5 -39l-4 -74q-3 -15 -15 -22.5t-25 -6.5q-15 1 -24.5 9t-6.5 22q21 137 21 391q-17 1 -47 7q-13 1 -44 7q-34 5 -26 39q2 13 11.5 22.5t20.5 7.5z" />
    <glyph glyph-name="dotlessi" unicode="&#x131;" horiz-adv-x="805" 
d="M386 621q0 8 10 14.5t22 7.5q32 2 38 -25q0 -17 2 -64.5t2 -72.5q2 -108 1 -145q0 -15 -11 -24.5t-25 -12.5q-15 -1 -25.5 8.5t-10.5 28.5v134q0 31 -3 151z" />
    <glyph glyph-name="IJ" unicode="&#x132;" horiz-adv-x="805" 
d="M267 676q2 12 13.5 17.5t24.5 3.5t22.5 -10.5t9.5 -20.5q-10 -181 -14 -314q-5 -189 8 -270q0 -27 -33 -33q-14 -1 -25 5.5t-12 20.5q-5 36 -7 123q0 112 1 173q1 32 3 91t2 83l2.5 48.5l2.5 48.5t2 34zM501 650q-1 11 8 17.5t21 7.5q32 0 37 -27q3 -73 7.5 -167.5
t6.5 -142t2 -96.5t-5 -77q-10 -59 -45.5 -69t-112.5 20q-14 7 -19 20t2 24q17 27 62 9q34 -4 44.5 9t9.5 63l-5.5 80t-8.5 148.5t-4 180.5z" />
    <glyph glyph-name="ij" unicode="&#x133;" horiz-adv-x="805" 
d="M329 748q24 0 38 -13t14 -34q0 -24 -14.5 -42.5t-37.5 -18.5q-50 0 -50 38q0 21 14 46q15 24 36 24zM283 536q1 9 11.5 16t22.5 8q14 2 25.5 -5t14.5 -22q4 -114 4 -137q2 -106 2 -145q0 -15 -11.5 -25.5t-26.5 -11.5q-16 0 -27 10t-11 32q0 12 -0.5 57t-0.5 75
q0 28 -3 148zM549 741q23 0 37.5 -13.5t14.5 -34.5q0 -23 -15 -42t-37 -19q-51 0 -51 38q0 23 13 46q13 25 38 25zM499 527q1 9 12 16t24 7q36 2 37 -28q0 -21 0.5 -75t-0.5 -84q0 -104 -14 -169q-19 -87 -65 -113q-53 -34 -149 11q-25 13 -31 29t5 25q10 12 30.5 13.5
t45.5 -9.5q16 -6 23.5 -8t19 -2.5t19.5 7.5t15 24q12 31 20 116q8 88 8 240z" />
    <glyph glyph-name="kgreenlandic" unicode="&#x138;" horiz-adv-x="805" 
d="M582 624l-22 -15q-22 -15 -38 -25q-48 -34 -58 -35q40 -76 55 -97q20 -32 60 -79q8 -9 3.5 -21t-16.5 -19q-9 -10 -24.5 -9.5t-24.5 12.5q-16 22 -53 77q-7 11 -14.5 24l-18.5 33.5l-19 35.5q-16 -12 -25 -18q-12 -10 -24 -18q-1 -20 -2 -43t-1 -31q0 -30 7 -62
q0 -12 -10 -20.5t-23 -9.5q-34 -2 -38 28q-5 9 -7 67q0 34 2 120q4 64 6 128l2 33.5t2 33t1 20.5q3 12 14.5 17t24.5 3q33 -6 32 -32q-4 -44 -4 -79q-2 -46 -2 -84l81 63q50 35 85 56q25 12 47 -13q9 -10 10 -22.5t-8 -18.5z" />
    <glyph glyph-name="Ldot" unicode="&#x13f;" horiz-adv-x="805" 
d="M269 705q-15 -212 -7 -375q4 -92 15 -153l346 11q15 0 23 -9.5t8 -22.5t-8.5 -22t-22.5 -9l-352 -9q-50 -11 -54 33q-16 78 -22 241q-8 197 6 315q0 14 10.5 22.5t24.5 8.5q14 -1 24 -9.5t9 -21.5z" />
    <glyph glyph-name="ldot" unicode="&#x140;" horiz-adv-x="805" 
d="M271 627q3 18 15 26t26 6q13 -2 22.5 -13t9.5 -25q-5 -73 -10 -224l-3 -138q0 -67 3 -108q0 -32 -35 -34q-37 -2 -43 25v249q2 164 15 236zM516 449q53 0 53 -41q0 -26 -15.5 -50t-38.5 -24q-28 0 -42.5 7.5t-14.5 28.5q0 27 17 50q20 29 41 29z" />
    <glyph glyph-name="Lslash" unicode="&#x141;" horiz-adv-x="805" 
d="M269 705q-9 -122 -9 -243l65 79l21 28q16 17 31 20t21 -6q8 -8 8.5 -23t-8.5 -27q-17 -31 -136 -168q4 -120 15 -188l346 11q15 0 23 -9.5t8 -22.5t-8.5 -22t-22.5 -9l-352 -9q-50 -11 -54 33q-5 20 -7 64q0 14 -2 43l-3 44l-31 -36q-2 -2 -24 -28q-14 -17 -29.5 -20.5
t-23.5 5.5q-23 18 5 56q4 7 93 111q-8 199 6 317q0 14 10.5 22.5t24.5 8.5q14 -1 24 -9.5t9 -21.5z" />
    <glyph glyph-name="lslash" unicode="&#x142;" horiz-adv-x="805" 
d="M418 639q7 34 41 32q33 -6 33 -37q-4 -46 -4 -49q0 -5 -1.5 -30l-2.5 -41q38 26 68 41q32 15 51 -12q13 -28 -10 -47q-10 -6 -27.5 -19.5t-27.5 -19.5l-25.5 -20.5l-30.5 -24.5q-6 -152 -1 -248q0 -33 -35 -35q-36 -2 -42 27v187q-23 -20 -36 -29q-25 -22 -49 6
q-22 26 -6 50q26 17 51 40q20 15 40 35q2 113 14 194z" />
    <glyph glyph-name="napostrophe" unicode="&#x149;" horiz-adv-x="805" 
d="M348 695q6 24 29 19q25 -6 30 -33q9 23 38.5 33.5t65.5 7.5q36 -4 65 -23t38 -49q10 -32 11 -95q2 -69 -11 -138q-7 -29 -34 -29q-12 0 -19.5 7t-7.5 19q8 155 0 191q-6 23 -16.5 34t-29.5 17q-39 7 -66 -20q-23 -22 -29 -53q-5 -30 -7 -89q-2 -65 -4 -77q-2 -13 -13 -20
t-25 -6q-13 1 -22.5 8t-6.5 18q3 40 3 97q0 11 2 61q1 39 9 120zM153 804q-7 13 16 28q22 13 39 1q50 -58 84 -126q7 -25 -25 -33q-36 -8 -43 15q-26 55 -43 79q-4 5 -13.5 16t-14.5 20z" />
    <glyph glyph-name="Eng" unicode="&#x14a;" horiz-adv-x="805" 
d="M159 232q0 71 19 207q16 140 26 169q9 50 36 52t63 -53q76 -156 189 -344q12 130 17 194q18 177 20 190q2 18 14.5 28.5t26.5 11.5q36 0 35 -46q-5 -40 -29 -260q-21 -163 -35 -202q-20 -118 -65 -153q-61 -46 -163 48q-13 16 -13 32t11 27q7 11 22.5 9.5t27.5 -17.5
q53 -49 85 -25q29 19 27 72q-120 159 -211 363q-12 -52 -24 -156q-10 -118 -10 -155q1 -25 -10.5 -42t-26.5 -18q-16 -2 -26 15t-6 53z" />
    <glyph glyph-name="eng" unicode="&#x14b;" horiz-adv-x="805" 
d="M288 742q3 13 14 19.5t23 3.5q31 -8 27 -56q8 20 42.5 35.5t75.5 17.5q44 2 77.5 -15.5t44.5 -57.5q35 -155 21 -243q-15 -115 -107 -137q-36 -1 -42 33q-3 14 2 25t15 12q34 4 49 53q16 44 11 107q-5 62 -21 103q-22 47 -47 47q-71 0 -95 -24q-11 -13 -17 -53
q-6 -27 -8 -100q-2 -74 -4 -88q-4 -29 -43 -29q-16 1 -26.5 9.5t-8.5 20.5q6 56 6 77q1 17 1 44q0 32 1 63q1 36 9 133z" />
    <glyph glyph-name="OE" unicode="&#x152;" horiz-adv-x="805" 
d="M392 145q-96 -28 -188 1q-112 36 -119 131q-11 215 86 279q44 27 94 23t102 -34q-7 26 36 38q39 10 105 8q56 0 119 -7q21 -1 49.5 -4.5t30.5 -3.5q22 -7 16 -39q-2 -13 -10 -22t-17 -7q-66 7 -129 8q-86 2 -113 2q-2 -30 -2 -59q-2 -48 -2 -81q167 0 238 -3q18 0 18 -36
q-1 -13 -7.5 -22.5t-17.5 -7.5q-144 9 -231 5q0 -9 -1 -34.5t0 -37.5q0 -46 20 -50q39 -9 121 -3q58 5 117 13q11 0 18.5 -10.5t8.5 -23.5q2 -15 -5.5 -26t-24.5 -12q-171 -13 -218 -13q-83 0 -94 28zM386 212q-5 83 0 237q-109 80 -163 54t-72 -168q0 -81 63 -119
q67 -34 172 -4z" />
    <glyph glyph-name="oe" unicode="&#x153;" horiz-adv-x="805" 
d="M240 495q-50 0 -96 -53q-45 -50 -45 -102q0 -46 34.5 -69.5t88.5 -23.5q48 0 90 49q40 50 40 100q0 49 -30.5 74t-81.5 25zM494 402q122 -8 157 6q21 6 29 19.5t10 38.5q-4 58 -71 58q-54 0 -92 -26q-18 -22 -25.5 -41.5t-7.5 -54.5zM422 476q29 56 65 83q45 31 130 35
q80 0 115 -54q34 -49 15 -124q-13 -28 -25.5 -43t-35.5 -24q-46 -20 -187 -14q4 -39 17 -57q8 -12 24 -21q72 -38 161 -3q39 12 63 -12q10 -9 7.5 -23t-21.5 -23q-20 -8 -69 -19q-43 -9 -94 -4q-123 9 -150 117q-9 48 -17 45q-20 -66 -72 -115q-60 -50 -122 -50
q-86 0 -141 44q-59 48 -59 127q0 83 68 158q70 75 151 75q72 0 109 -26q9 -5 18 -13.5t14.5 -15.5t17.5 -21t18 -22z" />
    <glyph glyph-name="Tbar" unicode="&#x166;" horiz-adv-x="805" 
d="M426 568q-6 -32 -7 -51q-4 -25 -4 -56q18 -1 52 1q48 3 49 3q9 0 17.5 -9t11.5 -21q6 -30 -19 -36q-45 -8 -111 -8q-2 -66 4 -140q7 -89 16 -124q2 -13 -7.5 -21t-23.5 -8q-13 -1 -24.5 5t-12.5 17q-21 105 -16 271q-71 -4 -129 8q-30 6 -24 37q6 30 29 30q19 -3 57 -5
q30 -1 65 0q0 35 3 52q1 26 6 57q-32 2 -60 6q-49 8 -55 8q-32 4 -24 38q3 12 11.5 21t18.5 8q86 -17 118 -18q66 -5 165 12q28 1 35 -26q6 -30 -25 -40q-74 -11 -116 -11z" />
    <glyph glyph-name="tbar" unicode="&#x167;" horiz-adv-x="805" 
d="M478 697q-13 -59 -13 -114q17 -1 56 1q9 0 26.5 1.5t24.5 1.5q12 0 21.5 -10t11.5 -23q3 -13 -1.5 -25t-17.5 -15q-55 -9 -121 -9q-2 -60 5 -150q7 -97 16 -132q3 -15 -7 -24t-25 -10q-37 0 -42 25q-8 36 -15 115q-6 79 -3 176q-72 -3 -138 9q-28 5 -26 41q2 13 11 23
t20 10q80 -8 132 -5q0 57 10 116q-24 1 -64 7l-59 8q-19 3 -25 15t-3 27q4 14 13.5 24t20.5 8q84 -17 127 -20q78 -5 179 14q14 2 24 -6.5t13 -22.5q3 -13 -3.5 -26t-22.5 -18q-78 -12 -125 -12z" />
    <glyph glyph-name="caron" unicode="&#x2c7;" horiz-adv-x="805" 
d="M307 582l-92 132q-12 30 11 44q24 16 49 -12l67 -104l113 145q21 18 42 -3q10 -9 11 -20.5t-10 -21.5l-125 -162q-14 -13 -23.5 -18t-20.5 -1t-22 21z" />
    <glyph glyph-name="uni02D0" unicode="&#x2d0;" horiz-adv-x="805" 
d="M404 476l-82 131l162 -2zM322 220l76 135l71 -141z" />
    <glyph glyph-name="breve" unicode="&#x2d8;" horiz-adv-x="805" 
d="M238 753q22 -33 32.5 -46.5t26.5 -26t31 -12.5q26 0 60 27.5t89 93.5q18 16 44 -2q10 -7 15 -18t1 -19q-128 -149 -209 -149q-38 0 -71 28.5t-71 86.5q-13 20 8 41q24 22 44 -4z" />
    <glyph glyph-name="dotaccent" unicode="&#x2d9;" horiz-adv-x="805" 
d="M410 742q27 0 45 -14.5t18 -38.5q0 -26 -19 -51q-18 -25 -44 -25q-28 0 -46 13.5t-18 39.5q0 25 19 50q20 26 45 26z" />
    <glyph glyph-name="ring" unicode="&#x2da;" horiz-adv-x="805" 
d="M410 783q45 0 75.5 -26.5t30.5 -69.5q0 -45 -32 -82q-27 -37 -74 -37q-46 0 -76.5 26.5t-30.5 69.5q0 45 31 81q36 38 76 38zM412 729q-22 0 -38 -22q-16 -20 -16 -41t16 -32.5t38 -11.5q20 0 35.5 20.5t15.5 42.5q0 20 -14.5 32t-36.5 12z" />
    <glyph glyph-name="ogonek" unicode="&#x2db;" horiz-adv-x="805" 
d="M160 117q20 8 33 -12q16 -18 -2 -29q-46 -40 -44 -65q2 -20 33 -22q30 -2 50 13q25 19 14 48q-11 21 12 31q22 7 33 -9q29 -69 -17 -108q-41 -35 -103 -28q-28 2 -48.5 15t-26.5 35q-15 53 66 131z" />
    <glyph glyph-name="hungarumlaut" unicode="&#x2dd;" horiz-adv-x="805" 
d="M246 630l39 37q45 36 63 47q22 12 44 -10q18 -24 1 -38q-32 -29 -64 -47q-9 -5 -19 -9.5l-23 -10.5l-21 -10q-22 -5 -30 8t10 33zM395 630l39 37q24 22 62 47q23 11 44 -10q9 -9 9.5 -20t-8.5 -18q-31 -28 -63 -47q-7 -4 -64 -30q-22 -6 -30 7.5t11 33.5z" />
    <glyph glyph-name="Alpha" unicode="&#x391;" horiz-adv-x="805" 
d="M469 484q-12 38 -24 85q-5 16 -12 46t-8 35q-33 -50 -85 -174q79 0 129 8zM619 293q6 -22 -0.5 -36.5t-20.5 -18.5q-15 -5 -29 2.5t-21 27.5q-12 26 -29 72q-12 34 -31 80q-59 -7 -175 -7q-45 -104 -65 -170q-20 -44 -56 -34q-14 4 -21 17t-1 27q11 30 35 82l65 145
l67 148l44 96q13 30 51 32q40 2 51 -37q20 -94 76 -257q40 -124 60 -169z" />
    <glyph glyph-name="Beta" unicode="&#x392;" horiz-adv-x="805" 
d="M316 672q-7 -93 -18 -184q-14 -115 -26 -186q76 -27 137 -27q71 0 94 30q19 35 -1 64q-29 38 -113 64q-29 12 -27 41q2 27 34 35q78 11 103 44q20 28 2 78q-25 36 -80 44q-41 6 -105 -3zM196 248q9 57 13 96l17 139q3 29 13 142q5 47 10 102q139 22 212 4q71 -17 108 -81
q24 -58 0 -107q-26 -62 -113 -77q92 -19 115 -63q23 -43 4 -103q-28 -78 -103 -98q-100 -29 -276 46z" />
    <glyph glyph-name="Gamma" unicode="&#x393;" horiz-adv-x="805" 
d="M265 658q88 6 193 -1q92 -6 175 -21q23 -11 17 -46q-3 -16 -9.5 -25.5t-17.5 -6.5q-105 17 -182 23q-101 7 -153 -4q-19 -135 -19 -322q0 -22 -11.5 -33t-28.5 -10q-15 0 -26.5 11t-10.5 28q-4 67 5 184q6 100 15 154q1 25 14 45.5t39 23.5z" />
    <glyph glyph-name="uni0394" unicode="&#x394;" horiz-adv-x="805" 
d="M118 186l10 18q1 2 12 22q-41 7 -52 8q-18 2 -10 31q7 27 32 26q11 -4 27 -4l35 -4q69 128 105 206l57 117t55 113q27 52 65 4q20 -21 95 -176q102 -209 156 -306q9 -20 -3.5 -33t-34.5 -10q-62 5 -274 13q-33 1 -97 2.5t-90 3.5q-28 -51 -42 -68q-14 -18 -36 -3t-10 40z
M246 276l87.5 -4t102.5 -5q128 -6 177 -6q-5 13 -32 72l-54 115q-8 18 -18 38l-22 44t-18 37q-31 63 -45 89q-26 -52 -82 -178q-56 -127 -96 -202z" />
    <glyph glyph-name="Epsilon" unicode="&#x395;" horiz-adv-x="805" 
d="M236 724q13 7 62 9q32 1 105 -1q100 -5 189 -16q24 -7 16 -40q-2 -13 -9.5 -22.5t-16.5 -7.5q-93 8 -147 9q-102 2 -131 2q-2 -34 -2 -68q-2 -54 -2 -90q190 0 270 -4q10 -1 15.5 -12t4.5 -25q-1 -15 -8.5 -25t-18.5 -8q-65 5 -138 6q-72 2 -125 0l3 -58q0 -20 2 -50
q0 -30 16 -30q49 -10 119 -3q24 2 67 7.5t47 5.5q11 0 19.5 -10.5t10.5 -25.5q2 -16 -4.5 -27t-22.5 -12q-132 -11 -175 -11q-28 0 -111 8q-25 1 -34 18q-4 8 -4 33q-2 13 -3.5 49t-2.5 53q-3 132 -3 142q0 60 2 132q5 64 10 72z" />
    <glyph glyph-name="Zeta" unicode="&#x396;" horiz-adv-x="805" 
d="M221 675q126 12 212 10q25 -1 127 -10q23 -6 28.5 -25.5t-14.5 -46.5q-127 -137 -188 -218l-39 -52.5t-54 -68.5q63 -6 137 -1q33 2 114 14q15 3 28 -7.5t19 -25.5q10 -39 -33 -45q-110 -9 -166 -10q-106 -2 -145 6q-37 3 -50.5 25.5t2.5 42.5q11 13 28.5 35.5l45.5 59.5
l47 61q100 131 162 198q-20 -3 -128 -5q-32 -2 -76 -3.5t-49 -1.5q-11 -2 -18.5 6.5t-8.5 21.5q-2 33 19 40z" />
    <glyph glyph-name="Eta" unicode="&#x397;" horiz-adv-x="805" 
d="M191 709q3 23 15 36.5t26 14.5t24 -13.5t8 -41.5q0 -91 6 -207q116 -8 217 -3q-4 127 1 214q3 23 15 36.5t26 14.5t24 -13.5t8 -41.5q0 -10 1.5 -44.5t1.5 -55.5q2 -25 4.5 -77l3.5 -72q6 -103 7 -147q6 -86 7 -91q1 -17 -9 -27.5t-25 -11.5q-15 -2 -28 6.5t-18 25.5
q-10 64 -17 216q-71 -3 -112 -2q-27 1 -104 5q7 -137 16 -212q1 -17 -9 -27.5t-25 -11.5q-15 -2 -28 6.5t-18 25.5q-1 4 -7 88q0 19 -2 69.5t-3 79.5q0 20 -2 74.5t-2 79.5q-2 94 -2 107z" />
    <glyph glyph-name="Theta" unicode="&#x398;" horiz-adv-x="805" 
d="M423 760q118 0 199 -70q83 -72 83 -185q0 -121 -84 -213q-85 -97 -200 -97q-121 0 -199 61q-83 65 -83 180q0 123 83 220q89 104 201 104zM422 690q-84 0 -152 -86q-64 -82 -64 -175q0 -85 65 -131q60 -42 153 -42q86 0 152 78q65 80 65 167t-66 138q-60 51 -153 51z
M309 496q77 18 231 -9q11 -4 16.5 -14t3.5 -20q-1 -12 -8.5 -19t-18.5 -5q-132 18 -219 13q-13 -3 -21 3.5t-8 16.5q-1 12 5.5 21.5t18.5 12.5z" />
    <glyph glyph-name="Iota" unicode="&#x399;" horiz-adv-x="805" 
d="M356 746q2 12 13.5 17.5t26.5 3.5q33 -6 33 -33q-13 -169 -14 -288q-5 -157 10 -240q0 -14 -10 -23t-24 -10q-34 -5 -39 27q-9 67 -7 266q5 181 11 280z" />
    <glyph glyph-name="Kappa" unicode="&#x39a;" horiz-adv-x="805" 
d="M224 198l5 527q3 12 15.5 18t27.5 4q16 -1 27 -10t11 -23q-4 -41 -4 -114q-2 -80 -2 -113q46 26 116 76l130 97q13 6 26 1.5t22 -16.5q20 -27 2 -44q-44 -34 -90 -65l-105 -73q98 -111 199 -208q6 -10 1 -23t-18 -22q-36 -19 -54 4q-89 96 -100 109l-95 102
q-2 -2 -8 -5.5t-8 -5.5l-15 -12q0 -15 -2 -52t-2 -57q-2 -59 3 -88q0 -27 -39 -33q-17 -1 -29.5 5.5t-13.5 20.5z" />
    <glyph glyph-name="Lambda" unicode="&#x39b;" horiz-adv-x="805" 
d="M132 261q13 42 91 193q75 144 131 268q17 32 47 36q32 5 55 -39q39 -68 81 -167q41 -92 147 -358q11 -49 -19 -61q-12 -6 -25 -0.5t-19 20.5l-115 273l-98 221q-42 -75 -108 -215l-101 -208q-16 -28 -47 -14q-30 16 -20 51z" />
    <glyph glyph-name="Mu" unicode="&#x39c;" horiz-adv-x="805" 
d="M408 276q-18 -4 -78 120q-22 43 -49 105q-26 65 -35 92q-5 -142 -5 -188q-2 -91 1 -148q3 -27 -9 -42.5t-29 -15.5q-17 -1 -28.5 14.5t-6.5 43.5q-6 71 1 207q4 114 13 231q1 14 11.5 26.5t25.5 14.5q39 6 62 -52q14 -47 52 -119l70 -135q34 73 64 129l79 148
q22 29 49 25q33 -6 40 -49l11 -231q6 -106 14 -207q3 -18 -6.5 -30t-24.5 -14q-15 -3 -26.5 5.5t-12.5 29.5q-14 138 -16 167q-8 98 -8 197l-47.5 -106l-44.5 -100q-13 -30 -22 -49t-18.5 -37t-16 -25.5t-10.5 -6.5z" />
    <glyph glyph-name="Nu" unicode="&#x39d;" horiz-adv-x="805" 
d="M151 261q0 74 19 212q16 145 26 174q8 49 39 50q31 3 57 -50q83 -173 191 -357q21 56 48 199q22 108 36 211q2 16 14 27t25 12q35 0 34 -44q-14 -94 -45 -259q-36 -159 -51 -201q-16 -34 -52 -34q-39 0 -54 32q-53 83 -87 149q-32 59 -89 183q-15 -68 -26 -158
q-13 -93 -13 -154q1 -25 -11 -41t-26 -17q-16 -2 -27 15t-8 51z" />
    <glyph glyph-name="Xi" unicode="&#x39e;" horiz-adv-x="805" 
d="M158 263q111 11 479 4q24 -6 24 -38q1 -13 -5.5 -23.5t-18.5 -11.5q-164 5 -270 7q-77 0 -204 -5q-30 0 -28 33q1 13 7.5 23.5t15.5 10.5zM156 484q111 11 479 4q11 -3 17.5 -13.5t6.5 -23.5q0 -33 -24 -35q-58 0 -271 3q-127 0 -203 -1q-30 0 -28 33q1 12 7.5 22.5
t15.5 10.5zM156 709q120 10 479 3q24 -6 24 -37q0 -33 -24 -35q-54 0 -103.5 0.5t-97.5 2t-70 1.5q-152 0 -203 -2q-15 0 -22 10t-6 23t7.5 23.5t15.5 10.5z" />
    <glyph glyph-name="Omicron" unicode="&#x39f;" horiz-adv-x="805" 
d="M409 746q119 0 201 -71q84 -71 84 -186q0 -120 -85 -216q-84 -99 -201 -99q-121 0 -202 64q-84 65 -84 180q0 120 84 222q87 106 203 106zM409 670q-86 0 -151 -85q-63 -79 -63 -171q0 -87 64 -130q56 -42 151 -42q83 0 151 77q63 76 63 166q0 84 -63 136q-61 49 -152 49
z" />
    <glyph glyph-name="Pi" unicode="&#x3a0;" horiz-adv-x="805" 
d="M161 637q5 50 57 50h369q32 0 46 -15.5t14 -48.5v-387q0 -22 -12 -34t-28 -13q-16 0 -27.5 11t-11.5 31v378h-335v-391q0 -18 -11 -27.5t-25 -9.5t-25 9.5t-11 25.5q0 24 -0.5 95t-0.5 113q0 156 1 213z" />
    <glyph glyph-name="Rho" unicode="&#x3a1;" horiz-adv-x="805" 
d="M321 665q2 -106 2 -200q69 -40 115 -25q57 15 76 109q18 89 -32 121t-161 -5zM239 215q0 47 3 90l4 151q2 110 2 159q0 70 -5 115q-1 14 11 20.5t27 4.5q16 -1 27.5 -10.5t11.5 -24.5q122 51 196 13q83 -42 65 -186q-15 -144 -112 -173q-44 -11 -82 -5.5t-66 22.5l-3 -75
l-11 -109q-3 -17 -14.5 -24.5t-23.5 -5.5q-14 1 -23 11.5t-7 26.5z" />
    <glyph glyph-name="Sigma" unicode="&#x3a3;" horiz-adv-x="805" 
d="M611 189q-76 1 -228 10q-182 10 -251 21q-16 5 -27.5 18.5t-12.5 27.5q-2 38 61 63q41 6 145 47q95 34 173 69q-57 31 -167 86q-104 52 -169 93q-15 9 -22 24t-4 27q5 33 51 33q170 6 256 8q123 4 231 1q17 3 27.5 -5t12.5 -23q2 -36 -32 -41h-55.5h-75.5h-70
q-178 -2 -240 0l44 -23.5l38 -21t31 -15.5q57 -27 199 -84q12 4 27 -2t23 -19q18 -32 -43 -63q-191 -109 -348 -146q240 -9 247 -9q102 -5 187 -6q25 3 40 -9t14 -29t-17.5 -27.5t-44.5 -4.5z" />
    <glyph glyph-name="Tau" unicode="&#x3a4;" horiz-adv-x="805" 
d="M199 701q117 20 261 12q84 -6 150 -16q35 -7 27 -43q-4 -15 -13.5 -24t-19.5 -6q-63 11 -164 16q4 -83 6 -213q1 -77 1 -216q-6 -37 -39 -37q-13 0 -24 10.5t-13 26.5q0 22 0.5 93.5t0.5 115.5q-2 163 -5 220q-54 0 -86 -4q-14 -1 -73 -9q-14 -2 -23.5 6t-11.5 22
q-3 14 3.5 27t22.5 19z" />
    <glyph glyph-name="Upsilon" unicode="&#x3a5;" horiz-adv-x="805" 
d="M148 746q-13 33 17 56q29 20 47 -9q77 -162 156 -243q53 71 110 137q62 76 102 111q10 8 24 5.5t24 -12.5q29 -26 5 -50q-143 -146 -216 -270q-17 -59 -19 -134q0 -20 0.5 -64.5t-0.5 -71.5q1 -14 -8.5 -24t-24.5 -12q-37 -2 -41 38q-7 54 -6 111q0 52 11 146l-95 140
q-66 100 -86 146z" />
    <glyph glyph-name="Phi" unicode="&#x3a6;" horiz-adv-x="805" 
d="M445 692q220 -22 220 -219q0 -112 -63 -188q-66 -78 -171 -85q0 -54 6 -82q1 -14 -9.5 -23t-24.5 -10q-15 -1 -26.5 6t-12.5 21q0 4 -1.5 16t-2.5 21q-2 32 -2 52q-101 9 -152.5 57t-51.5 148q0 110 56 191q61 84 162 95q0 9 1 25t1 24l3 37q6 26 40 21q33 -6 33 -33
l-3 -35q-2 -26 -2 -39zM368 615q-72 -15 -106 -76t-34 -138q0 -70 31.5 -99t98.5 -35q0 126 10 348zM430 266q77 7 120.5 63t43.5 140q0 73 -39 107.5t-114 40.5q-11 -184 -11 -351z" />
    <glyph glyph-name="Chi" unicode="&#x3a7;" horiz-adv-x="805" 
d="M262 678q14 -26 58 -87l65 -85l63 84q54 75 67 91q10 10 23 7.5t25 -14.5q28 -28 12 -46q-10 -11 -72 -97q-49 -67 -65 -80q17 -23 90 -98q81 -85 97 -100q10 -10 7.5 -24t-13.5 -24q-27 -27 -52 -4q-19 15 -90 94q-73 77 -85 94q-13 -13 -74 -95q-70 -93 -74 -97
q-24 -23 -50 -4q-24 18 -13 50q11 12 78 107q69 95 76 103l-72 92q-53 71 -64 88q-17 32 18 48q33 17 45 -3z" />
    <glyph glyph-name="Psi" unicode="&#x3a8;" horiz-adv-x="805" 
d="M354 746q7 26 41 21q33 -6 33 -33q-6 -80 -7 -124q-5 -68 -5 -126q51 7 73 40q11 14 76 128q31 42 50 54q11 5 56 14q18 0 28.5 -10.5t11.5 -25.5q0 -15 -8.5 -25t-23.5 -10q-43 -16 -69 -52q-7 -12 -18.5 -36.5l-15.5 -32.5q-23 -45 -50 -66q-37 -31 -112 -42
q-2 -141 10 -214q0 -14 -10 -23t-24 -10q-34 -5 -39 27q-10 62 -8 222q-95 21 -130 75q-9 14 -15.5 29.5t-13 37.5t-9.5 29q-18 33 -34 44.5t-47 13.5q-23 1 -23 27q0 24 23 30q75 5 97 -8q8 -4 12.5 -8.5t10 -13t6.5 -10.5q29 -102 42 -126q24 -48 82 -59q4 141 10 263z
" />
    <glyph glyph-name="uni03A9" unicode="&#x3a9;" horiz-adv-x="805" 
d="M111 238q19 0 51 -1.5t45 -0.5q36 2 43 23q-48 73 -72 154.5t-13 150.5q11 71 65 122t167 60q73 2 133 -36t87 -104q17 -47 18.5 -101t-23.5 -122t-75 -137q-7 -12 -0.5 -16.5t25.5 -4.5q13 -1 47.5 1.5t53.5 2.5q15 -1 24 -10.5t10 -23.5q0 -13 -9 -22t-27 -9
q-50 0 -104 2q-12 0 -66 4q-39 4 -48 26.5t11 42.5q34 34 67 116q31 69 36 127q-7 173 -149 184q-76 0 -114 -25q-54 -34 -54 -129q-5 -39 23 -118l63 -154q9 -25 -6 -43t-52 -18q-20 0 -76 -2q-28 -1 -87 -1q-16 0 -16 31q1 12 7 21.5t15 9.5z" />
    <glyph glyph-name="alpha" unicode="&#x3b1;" horiz-adv-x="805" 
d="M493 379q0 3 1.5 10.5l2.5 12.5l3 25q-65 27 -133 21q-88 -7 -88 -81q0 -52 25.5 -81.5t65.5 -29.5q48 0 78 27.5t45 95.5zM513 495q16 103 26 123q5 11 14.5 12.5t23.5 -1.5q39 -8 31 -53q-2 -11 -10 -34t-9 -31q-13 -63 -18 -125q-3 -32 6.5 -70.5t28.5 -61.5
q14 -12 13.5 -25t-12.5 -22q-11 -10 -29.5 -10t-35.5 14q-8 7 -17 25q-9 19 -11 21q-22 -29 -41 -43q-39 -28 -88 -28q-81 0 -128 46q-53 50 -53 138q0 54 29.5 89t78.5 49q92 29 201 -13z" />
    <glyph glyph-name="beta" unicode="&#x3b2;" horiz-adv-x="805" 
d="M153 248l103 392q20 57 57 69q50 15 125 -21q116 -48 100 -125q-15 -62 -94 -122q100 -49 115 -108q12 -52 -35 -94q-45 -40 -109 -48q-69 -9 -108 30q-33 31 -17 63q7 10 16.5 14t15.5 -2q25 -34 73 -39q42 -6 73 12q30 21 18 53q-15 36 -92 79q-25 14 -14 46
q10 31 44 54q50 33 50 60q1 23 -32 42q-30 19 -65 25q-41 9 -51 10l-108 -396q-12 -42 -44 -36q-13 2 -19.5 13.5t-1.5 28.5z" />
    <glyph glyph-name="gamma" unicode="&#x3b3;" horiz-adv-x="805" 
d="M188 664q90 -12 135 -53q44 -40 68 -131q12 62 83 116q64 55 136 66q16 2 28.5 -10t15.5 -28q3 -18 -7.5 -29.5t-33.5 -9.5q-84 -1 -147 -94q-62 -93 -81 -236q-6 -26 -20 -35.5t-30 -3.5q-15 5 -22 20t0 32q35 143 15 211q-27 87 -140 116q-12 1 -19.5 11t-7.5 23
q-1 14 6 24t21 11z" />
    <glyph glyph-name="delta" unicode="&#x3b4;" horiz-adv-x="805" 
d="M405 706q39 -2 60 -5q5 0 28.5 -1.5l39.5 -2.5q30 -4 30 -34q0 -13 -8 -22.5t-22 -9.5q-10 0 -45.5 4t-55.5 5q-66 6 -73 -11q-16 -32 -9.5 -62t44.5 -55q81 -28 125 -61q48 -42 47 -107q-6 -76 -55 -125q-53 -48 -118 -27q-140 42 -152 143q-6 69 54 190q-18 37 -8 83
q8 46 26 69q29 34 92 29zM342 470q-3 -9 -12 -33t-12.5 -34t-6.5 -26t-3 -28q2 -55 89 -94q47 -16 83 35q16 21 20.5 44.5t-6.5 41.5q-35 55 -152 94z" />
    <glyph glyph-name="epsilon" unicode="&#x3b5;" horiz-adv-x="805" 
d="M271 611q0 30 18.5 53.5t51.5 32.5q77 19 184 -54q20 -17 5 -45q-17 -25 -36 -14q-74 55 -117 50q-35 -4 -41 -36q-5 -42 55 -81q39 -26 125 -57q7 -4 9 -19t-2 -30q-2 -17 -9.5 -28t-16.5 -8q-26 2 -78 9t-74 8q-35 0 -53.5 -11t-18.5 -40q2 -47 53 -56q54 -9 134 -2
q14 1 22 -8t9 -23q1 -13 -6 -23.5t-22 -11.5q-117 -12 -177 11q-58 22 -73 103q-13 74 61 102q69 25 184 -2q-102 38 -144.5 79t-42.5 101z" />
    <glyph glyph-name="zeta" unicode="&#x3b6;" horiz-adv-x="805" 
d="M307 734q83 -9 98 -9q47 -2 110 9q26 2 44 -20q15 -21 4 -40q-115 -131 -139 -189q-39 -85 26 -150q30 -35 28.5 -74.5t-28.5 -64.5q-25 -25 -70 -22q-44 5 -93 59q-19 19 -7 38q11 19 33 9q23 -20 48 -30.5t38 -6.5q33 12 -30 93q-76 130 96 327q-88 -2 -96 -2
q-32 0 -70 7q-20 1 -18 35q6 31 26 31z" />
    <glyph glyph-name="eta" unicode="&#x3b7;" horiz-adv-x="805" 
d="M231 646q0 17 11.5 26.5t24.5 7.5q14 -1 23.5 -16t7.5 -43q80 74 128 84q29 4 46.5 -17t19.5 -74q-3 -140 -1 -226q1 -72 9 -98q8 -27 21 -18l33 24q18 18 39 -4q8 -8 9.5 -20.5t-4.5 -21.5q-47 -40 -72 -52q-35 -18 -56 6q-28 26 -35 113q-12 88 -4 268q0 75 -68 20
q-26 -20 -63 -60q0 -42 -2 -82q-1 -15 -9 -76q-3 -14 -14 -22t-24 -7q-13 0 -20.5 9.5t-4.5 25.5q7 72 7 124q0 19 -1 62.5t-1 66.5z" />
    <glyph glyph-name="theta" unicode="&#x3b8;" horiz-adv-x="805" 
d="M389 725q102 0 161 -65q60 -64 60 -170q0 -109 -59 -197q-67 -89 -163 -89q-102 0 -157 58.5t-55 164.5q0 115 54 201q61 97 159 97zM389 648q-67 0 -108 -74q-33 -63 -33 -151q0 -78 33.5 -113.5t107.5 -35.5q69 0 111 67q39 58 39 145q0 76 -39 119t-111 43zM288 484
q74 16 203 -8q24 -7 22 -39q-6 -31 -31 -27q-128 15 -187 11q-15 -3 -22.5 5t-7.5 21q-2 31 23 37z" />
    <glyph glyph-name="iota" unicode="&#x3b9;" horiz-adv-x="805" 
d="M274 622q2 14 14 22t26 7q37 -6 37 -40q-17 -113 -5 -203q11 -82 32 -100q45 -33 116 54q24 24 56 14q32 -15 10 -54q-49 -62 -111 -92q-69 -30 -112 2q-49 34 -65 175q-12 112 2 215z" />
    <glyph glyph-name="kappa" unicode="&#x3ba;" horiz-adv-x="805" 
d="M289 252q-5 15 -7 70q0 34 2 116l4 116l5 75q3 11 14 16t24 3q13 -1 22.5 -8.5t8.5 -19.5q-3 -27 -5 -67q-2 -38 -2 -63q102 71 173 111q23 11 44 -12q9 -9 9.5 -20t-8.5 -18q-58 -31 -134 -83q32 -63 47 -85q25 -36 69 -80q17 -20 -11 -41q-31 -18 -48 4q-52 61 -63 78
q-24 34 -46 88q-4 -2 -9.5 -6t-8.5 -6q-2 -1 -8.5 -4t-8.5 -5q-2 -106 6 -154q0 -12 -10 -19.5t-23 -8.5t-24 5t-12 18z" />
    <glyph glyph-name="lambda" unicode="&#x3bb;" horiz-adv-x="805" 
d="M271 701q32 -12 47 -18.5t35 -19t35 -28.5q45 -50 71 -169q4 -14 8.5 -35.5t7 -32.5t7 -23.5t10.5 -21.5q28 -36 137 -56q31 -6 31 -42q0 -15 -8 -26t-22 -10q-130 24 -181 81q-41 50 -55 156q-2 2 -6.5 -4t-13.5 -22.5t-20.5 -41.5t-28 -65l-34.5 -88q-10 -26 -41 -16
q-32 14 -22 39q47 140 142 297q-26 58 -121 91q-27 10 -19 39q3 11 14.5 16.5t26.5 -0.5z" />
    <glyph glyph-name="uni03BC" unicode="&#x3bc;" horiz-adv-x="805" 
d="M271 669q0 12 11 19.5t25 7.5t24.5 -8.5t10.5 -22.5q-2 -57 -9 -126t-7 -88q1 -34 17 -50.5t59 -23.5q21 -1 33 10.5t21 40.5q6 18 11 43.5t14 76.5l15 84q0 9 11.5 16t24.5 7q14 0 23.5 -9t8.5 -25q-21 -149 -53 -246q7 -5 47 -45q21 -21 5 -45q-7 -10 -18.5 -12.5
t-23.5 4.5q-9 5 -28 24l-29 28q-20 -15 -54 -15q-43 0 -63 11q-17 8 -32 23q0 -28 -3 -68q-1 -33 -7 -62q-3 -16 -14.5 -23t-24.5 -4q-34 8 -34 41q21 203 22 212q13 153 17 225z" />
    <glyph glyph-name="nu" unicode="&#x3bd;" horiz-adv-x="805" 
d="M176 591q38 5 94 -4t63 -30q5 -14 14 -46t15 -50q15 -44 39 -126q13 24 28.5 55.5l22.5 45.5q38 63 96 142q18 24 50 11q13 -6 20 -16.5t3 -21.5q-71 -94 -117 -172q-35 -60 -61 -110q-20 -37 -52 -31q-33 2 -40 29q-19 64 -36 114q-11 40 -37 124q-20 33 -99 21
q-9 -3 -16.5 6t-9.5 22q-6 33 23 37z" />
    <glyph glyph-name="xi" unicode="&#x3be;" horiz-adv-x="805" 
d="M303 659q35 -5 60 -6q21 -4 53 -2q82 87 47 111q-15 9 -44 0.5t-61 -32.5q-27 -8 -38 7t4 40q22 34 72 47q51 13 93 -1q46 -15 53 -57q7 -47 -48 -115l13 6q1 1 5 2q28 2 43 -20q18 -19 4 -40q-114 -132 -139 -189q-38 -87 28 -150q30 -35 28.5 -74.5t-29.5 -64.5
q-25 -25 -70 -22q-44 3 -93 58q-17 17 -8 38q11 17 35 10q22 -20 47 -30.5t38 -6.5q10 3 11 13t-9 30.5t-33 49.5q-74 133 97 326q-88 -2 -96 -2q-32 0 -70 7q-21 4 -19 35q6 32 26 32z" />
    <glyph glyph-name="omicron" unicode="&#x3bf;" horiz-adv-x="805" 
d="M389 709q101 0 158.5 -62t57.5 -168q0 -110 -58 -193q-63 -88 -159 -88q-101 0 -154 56.5t-53 162.5q0 115 52 198q60 94 156 94zM388 645q-66 0 -106 -74q-33 -62 -33 -147q0 -76 34 -112.5t106 -36.5q67 0 109 67q38 61 38 144q0 74 -39 116.5t-109 42.5z" />
    <glyph glyph-name="pi" unicode="&#x3c0;" horiz-adv-x="805" 
d="M198 641q80 7 198 9q91 0 177 -2q12 -3 20.5 -15t8.5 -25q1 -15 -7 -25.5t-22 -11.5q-7 0 -23 1t-23 1q-30 2 -43 2q-1 -19 -2.5 -41.5t-2.5 -35t-2 -27t-1 -22.5v-16.5t1 -13.5t2 -9q4 -9 12 -13.5t29.5 -12t39.5 -16.5q39 -21 30 -51q-4 -12 -15.5 -19t-26.5 -4
q-98 27 -125 89q-22 58 -2 193h-45q-8 0 -23.5 -0.5t-23.5 -0.5q15 -164 -85 -257q-29 -19 -50 4q-20 22 4 51q77 85 66 200q-6 0 -16 -0.5t-14 -0.5t-15 -0.5t-17 -0.5q-33 0 -31 35q0 13 8 24t19 11z" />
    <glyph glyph-name="rho" unicode="&#x3c1;" horiz-adv-x="805" 
d="M171 280q33 133 49 179q36 117 81 185q13 20 40.5 36.5t60.5 20.5q87 7 156 -75q52 -82 51 -162q0 -78 -42 -125t-121 -48q-78 -2 -181 67q-13 -37 -27 -87q-16 -32 -46 -25q-11 3 -17.5 13t-3.5 21zM286 423q110 -65 167 -62t78 72q16 75 -23 131q-39 52 -100 63
q-33 1 -64 -59q-21 -36 -58 -145z" />
    <glyph glyph-name="sigma" unicode="&#x3c3;" horiz-adv-x="805" 
d="M664 611q25 -8 23 -41q-6 -32 -41 -26l-87 10q19 -117 -11.5 -190t-95.5 -95q-59 -20 -131 10q-73 32 -128 112q-49 100 -6 172q32 56 93 71q70 10 193 1q-8 18 -2.5 30t19.5 14q35 2 50 -52q26 -3 68 -8.5t56 -7.5zM487 560q-110 9 -154 5q-69 -7 -80 -38
q-18 -63 18 -114q32 -58 112 -74q71 -8 96.5 44t7.5 177z" />
    <glyph glyph-name="tau" unicode="&#x3c4;" horiz-adv-x="805" 
d="M230 619q77 7 180 7q27 0 56.5 -0.5t59.5 -2t43 -1.5q25 -6 27 -36q0 -12 -7 -21.5t-19 -10.5q-32 4 -92 4q-10 -147 1 -185q9 -21 25 -20.5t49 22.5q11 6 23.5 3t18.5 -13q18 -26 -11 -43q-126 -78 -154 3q-13 32 -14.5 98t3.5 135h-87q-20 0 -94 -2q-15 0 -22.5 9
t-7.5 22t6.5 22.5t15.5 9.5z" />
    <glyph glyph-name="upsilon" unicode="&#x3c5;" horiz-adv-x="805" 
d="M575 621q41 -201 -22 -315q-25 -44 -60.5 -65t-68.5 -19q-152 7 -199 94q-45 86 15 276q16 40 55 34q15 -2 22 -13t0 -25q-63 -181 -18 -247q29 -46 129 -48q17 1 36.5 19t32.5 52q33 84 1 242q-3 13 6 23t23 13q36 8 48 -21z" />
    <glyph glyph-name="phi" unicode="&#x3c6;" horiz-adv-x="805" 
d="M272 348q-72 26 -90 78q-14 42 8 104q21 49 63 101q27 35 72 73q20 17 38 -8q16 -30 -11 -48q-24 -28 -51 -56q-30 -31 -49 -68q-18 -35 -10 -71q9 -34 70 -59q1 -1 7 -3l10 -3q74 157 124 226q8 17 30 32q25 14 34 -12q10 -40 14.5 -60t11 -53.5t8.5 -53.5t2.5 -43.5
t-3.5 -41.5q-25 -100 -179 -64q-49 -119 -54 -135q-9 -20 -23.5 -27.5t-27.5 -1.5q-15 4 -22 15t-2 26l64 141q-10 2 -18 6q-9 2 -16 6zM394 374q83 -11 96 40q7 32 -20 125q-27 -46 -30 -47z" />
    <glyph glyph-name="chi" unicode="&#x3c7;" horiz-adv-x="805" 
d="M262 611q32 -22 60 -58q22 -23 61 -75l69 64q50 44 74 62q27 24 49 -8q9 -13 9.5 -25t-10.5 -18q-2 -2 -80 -67q-10 -10 -67 -61q5 -6 22 -32t30 -42q39 -55 69 -55q23 -2 35.5 -12.5t9.5 -23.5t-21.5 -20.5t-51.5 -4.5q-29 0 -80 61q-14 17 -35 45.5t-26 34.5
q-7 -6 -26.5 -26.5l-29.5 -30.5q-39 -40 -57 -62q-23 -21 -46 -6q-23 16 -11 48l65 70q50 50 63 65q-7 8 -24.5 32.5t-28.5 37.5q-31 39 -74 61q-21 3 -32 14.5t-5 23.5q14 31 89 8z" />
    <glyph glyph-name="psi" unicode="&#x3c8;" horiz-adv-x="805" 
d="M372 659q0 11 11.5 18.5t24.5 6.5q37 -2 37 -38q-6 -82 -7 -111q0 -17 -2 -54.5t-3 -60.5q45 6 66 64q5 15 22 118q3 24 34 41.5t71 24.5q37 0 37 -30q0 -13 -9 -21.5t-24 -8.5q-32 -15 -45 -55l-8.5 -25t-9.5 -29.5l-8 -26.5q-14 -42 -42 -77q-26 -33 -87 -38
q-1 -57 0 -84q0 -8 8 -61q0 -14 -9.5 -23t-24.5 -10q-14 -2 -25.5 5t-13.5 22q-4 26 -6 61q0 46 1 91q-88 20 -116 74q-8 18 -13.5 51t-10.5 46q-18 33 -33.5 44t-46.5 13q-23 1 -23 28q0 23 23 29q71 7 97 -8q10 -5 29 -32q8 -28 15.5 -69.5t11.5 -54.5q7 -25 22.5 -39.5
t45.5 -20.5q0 31 2 79.5t2 54.5l3 52.5t4 53.5z" />
    <glyph glyph-name="omega" unicode="&#x3c9;" horiz-adv-x="805" 
d="M243 626q25 3 27 -12t-18 -33q-57 -92 -40 -189q6 -40 22.5 -64t36.5 -20q55 -4 76 110q5 35 10 108t8 98q6 25 32 25q10 -1 18 -7.5t8 -15.5q-1 -27 -5 -76t-5.5 -84.5t-0.5 -62.5q3 -50 18.5 -74.5t50.5 -20.5q28 3 51 23t35 52q27 74 -7 159q-17 30 4 47q20 15 33 -5
q49 -94 42 -172q-7 -76 -48 -120t-102 -47q-62 -2 -118 53q-93 -72 -155 -50q-27 9 -46 35.5t-26 62.5q-17 72 8 156q27 85 91 124z" />
    <glyph glyph-name="uni0401" unicode="&#x401;" horiz-adv-x="805" 
d="M543 827q20 0 32.5 -9t12.5 -25q0 -19 -13.5 -33.5t-33.5 -14.5q-45 0 -45 34q0 18 13.5 33t33.5 15zM246 815q20 0 32.5 -9t12.5 -25q0 -19 -13.5 -33t-33.5 -14q-45 0 -45 34q0 18 13.5 32.5t33.5 14.5zM190 658q15 9 72 9q37 1 125 -1q67 -3 130 -9q72 -7 93 -10
q24 -7 18 -40q-2 -15 -9.5 -24t-16.5 -7q-97 9 -179 10q-61 3 -163 3q-2 -46 -2 -87l-3 -116q211 0 331 -5q20 -1 18 -38q0 -14 -7 -24t-18 -8q-88 7 -168 8q-97 2 -157 -1q1 -16 3 -41t2 -35q0 -23 2 -61q-1 -24 34 -34q37 -9 87 -9q44 0 102 5q50 4 83 9q12 0 21 -11
t11 -26t-5.5 -27t-24.5 -13q-187 -15 -264 -10q-117 8 -117 61q0 1 -7 123q0 13 -2 74.5t-2 94.5q0 70 2 156q5 73 11 84z" />
    <glyph glyph-name="uni0410" unicode="&#x410;" horiz-adv-x="805" 
d="M470 489q-10 33 -30 106q-4 19 -13.5 54t-13.5 54q-34 -56 -109 -225q88 0 166 11zM567 465l74 -204q7 -25 0 -40.5t-23 -19.5q-15 -6 -32 3t-23 31q-11 23 -35 87q-21 60 -38 99q-80 -10 -216 -10q-66 -163 -79 -206q-10 -27 -27.5 -36t-33.5 -3q-16 3 -24 17t-1 30
q2 5 42 99l78 173l81 179l52 115q7 15 23.5 25.5t34.5 12.5q43 2 58 -43q16 -79 38 -151z" />
    <glyph glyph-name="uni0411" unicode="&#x411;" horiz-adv-x="805" 
d="M340 759q64 -12 103 -17q47 -6 104 -6q16 -1 24.5 -12.5t7.5 -24.5q0 -15 -9 -26t-23 -11q-71 -4 -193 28q-31 -59 -38 -123q-1 -20 39 -40q12 -6 43.5 -20.5t48.5 -23.5q60 -29 93 -66q42 -47 43 -108q-9 -91 -65 -139.5t-145 -41.5q-101 0 -144 56q-38 47 -36 142
q1 65 31 186q8 37 26 104t23 89q8 40 21 50t46 4zM304 477q-44 -119 -35 -184q7 -90 114 -94q59 -10 104 49q20 25 25 52t-9 52q-17 23 -85 61q-68 31 -114 64z" />
    <glyph glyph-name="uni0412" unicode="&#x412;" horiz-adv-x="805" 
d="M278 723q-3 -27 -10.5 -103.5t-12.5 -120.5q-7 -65 -30 -227q81 -34 170 -34q88 0 115 38q23 40 -1 80q-35 48 -139 78q-32 14 -30 45q2 29 39 39q98 16 126 56q23 34 2 97q-30 43 -99 55q-54 9 -130 -3zM143 211q2 12 7 51l8 63q5 49 19 167q3 26 17 168q5 68 11 121
q163 24 249 5q86 -22 128 -96q29 -66 -2 -126q-40 -72 -153 -92q114 -23 154 -78q32 -43 7 -121q-32 -91 -121 -116q-116 -34 -324 54z" />
    <glyph glyph-name="uni0413" unicode="&#x413;" horiz-adv-x="805" 
d="M238 674q95 6 210 -1q99 -7 191 -22q21 -12 16 -45q-1 -15 -7.5 -24.5t-17.5 -6.5q-88 15 -199 24q-106 8 -172 -4q-23 -168 -23 -351q0 -24 -11 -36t-27 -11q-14 0 -25.5 10.5t-9.5 26.5q-4 73 5 201q6 101 16 169q6 65 54 70z" />
    <glyph glyph-name="uni0414" unicode="&#x414;" horiz-adv-x="805" 
d="M288 363h211v317q-66 0 -108 -6q-35 -6 -73 -6q0 -76 -12 -163q-15 -95 -18 -142zM139 197v117q0 27 7 35q16 14 73 14q0 16 14 170q14 114 15 163q2 50 56 50q37 0 99 5q17 0 56 2.5t58 2.5q31 0 45 -15t14 -50v-328q43 0 54 -4q36 -13 36 -60v-146q0 -22 -11.5 -34.5
t-26.5 -12.5q-16 -1 -27 10t-11 32v139h-379v-152q0 -18 -11.5 -26.5t-24.5 -2.5q-36 15 -36 91z" />
    <glyph glyph-name="uni0415" unicode="&#x415;" horiz-adv-x="805" 
d="M190 775q14 8 72 10q50 1 125 -2q67 -3 130 -9q72 -7 93 -10q24 -7 18 -40q-2 -15 -9.5 -24t-16.5 -7q-110 10 -179 11q-61 3 -163 3q-2 -48 -2 -87l-3 -117q203 0 331 -4q20 -1 18 -39q0 -14 -7 -24t-18 -8q-88 7 -168 8q-97 2 -157 -1q1 -15 3 -40.5t2 -35.5
q0 -23 2 -61q-1 -24 34 -34q37 -9 87 -9q44 0 102 5q50 4 83 9q12 0 21 -11t11 -26t-5.5 -27t-24.5 -13q-187 -15 -264 -10q-117 8 -117 62q-1 11 -2 29l-2.5 46l-2.5 47q0 13 -2 74.5t-2 94.5q0 70 2 156q5 73 11 84z" />
    <glyph glyph-name="uni0416" unicode="&#x416;" horiz-adv-x="805" 
d="M365 775q3 11 14.5 16t24.5 3q14 -1 24 -10t9 -23l-8 -133q-5 -75 -5 -138q47 0 81 39q19 20 57 87q26 51 57 86q42 40 89 40q18 0 28 -10.5t11 -23.5q0 -15 -8.5 -25t-22.5 -10q-41 -14 -63.5 -37.5t-41.5 -61.5q-32 -66 -56 -90q-14 -15 -32 -27q14 -8 27 -24
t19.5 -27.5t19 -38l16.5 -34.5q21 -43 47 -66t69 -23q19 -6 19 -30q-2 -23 -22 -28q-67 -1 -110 36q-32 30 -53 82q-31 65 -47 82q-32 37 -86 38q-4 -145 10 -240q1 -14 -9 -22t-24 -9q-13 -1 -24.5 6t-13.5 20q-8 55 -8 246q-44 -10 -79 -52q-10 -15 -48 -85
q-25 -52 -52 -80q-38 -35 -88 -35q-19 0 -29 10t-10 24q0 13 8.5 23.5t24.5 10.5q40 13 61.5 36.5t38.5 61.5q1 2 8 17t9 19l8.5 16.5t11 18.5t12.5 15.5t16.5 17t18.5 14.5q-18 10 -32 23t-25 33.5t-15.5 31l-15.5 37.5q-18 42 -39 65t-60 28q-21 4 -19 26q2 19 24 25
q70 0 108 -38q23 -22 48 -82q25 -65 37 -83q27 -37 79 -37q1 117 11 289z" />
    <glyph glyph-name="uni0417" unicode="&#x417;" horiz-adv-x="805" 
d="M544 679q31 -85 -22 -138q-52 -53 -186 -96q134 27 209 6q89 -28 71 -134q-22 -96 -91 -124q-69 -30 -216 -12q-25 5 -25 41q2 35 26 35q105 -11 158 0q55 13 70 72q5 29 -13.5 43.5t-56.5 17.5q-52 6 -172 -16q-14 -4 -25.5 11t-17.5 38q-7 21 -2 41t20 25
q109 38 145 57q62 39 57 92q-10 40 -56 46q-60 6 -155 -57q-23 -12 -40 21q-18 34 7 51q141 79 214 68q64 -9 101 -88z" />
    <glyph glyph-name="uni0418" unicode="&#x418;" horiz-adv-x="805" 
d="M173 141q-8 54 -9 125q-5 88 -5 174q-2 120 -2 163q2 84 4 93q0 21 9 33t22 11q13 0 24.5 -13.5t15.5 -36.5q2 -30 2 -66q0 -44 2 -60q59 -62 161 -137q119 -85 172 -129q7 59 5 197q-8 170 -8 201q0 21 9.5 34t23.5 15q13 1 25 -11t17 -34q10 -133 8 -334
q-1 -50 -11 -284q0 -29 -11.5 -42.5t-25.5 -10.5q-15 3 -26 20t-11 45q0 20 -0.5 59.5t-0.5 54.5q-22 19 -153 119q-99 71 -175 133q-11 -147 11 -317q6 -28 -3.5 -48t-24.5 -23q-17 -4 -29.5 13t-15.5 56z" />
    <glyph glyph-name="uni0419" unicode="&#x419;" horiz-adv-x="805" 
d="M273 796q25 -37 37 -52t31 -30t38 -15q30 -1 71.5 30.5t105.5 104.5q17 13 41 -1q22 -16 15 -32q-146 -159 -230 -160q-41 0 -77.5 31t-78.5 93q-5 7 -2.5 17.5t9.5 17.5q6 8 18.5 7.5t21.5 -11.5zM184 18q-8 54 -9 125q-5 88 -5 174q-2 120 -2 163q2 84 4 93q0 21 9 33
t22 11q29 0 40 -50l3 -67q0 -50 1 -58q63 -68 161 -138q119 -85 172 -129q10 76 5 197q0 31 -3.5 99.5t-3.5 101.5q0 21 9.5 34t22.5 15q13 1 24.5 -11t16.5 -34q14 -164 9 -334q-4 -132 -12 -284q0 -29 -10.5 -42t-26.5 -11q-14 3 -25 20.5t-11 44.5q0 51 -2 113
q-24 22 -47 40l-59.5 45.5l-45.5 34.5q-101 72 -174 133q-11 -147 11 -317q6 -28 -3.5 -48t-25.5 -23q-16 -4 -29 13t-16 56z" />
    <glyph glyph-name="uni041A" unicode="&#x41a;" horiz-adv-x="805" 
d="M175 150l7 632q3 12 17 18t30 4q17 -1 29 -10.5t12 -24.5q-5 -62 -5 -138l-4 -143q59 31 146 96l157 116q31 14 53 -16q24 -30 2 -48q-23 -18 -108 -78l-128 -90q100 -116 240 -253q8 -12 2.5 -25.5t-21.5 -22.5q-12 -10 -30 -9.5t-29 13.5q-92 98 -120 130l-116 126
l-22 -15q-2 -2 -9 -7.5t-12 -8.5q-1 -25 -3 -69.5t-2 -62.5q-2 -72 4 -108q0 -15 -13 -24t-29 -10q-44 -2 -48 28z" />
    <glyph glyph-name="uni041B" unicode="&#x41b;" horiz-adv-x="805" 
d="M121 632q105 9 282 11q84 1 254 -2q32 -6 34 -43q0 -16 -8 -27.5t-25 -12.5q-66 6 -138 6q-10 -156 6 -206q12 -29 36 -48t72 -40q50 -24 40 -57q-4 -14 -18.5 -21.5t-32.5 -2.5q-72 18 -112 44.5t-58 70.5q-30 73 1 263q-27 0 -77 -2q-9 0 -37 -2t-43 -2q2 -110 -5 -173
q-2 -18 -19 -143q-4 -36 -44 -36q-17 0 -28.5 9t-9.5 25q15 85 22 166q2 15 6.5 67t8.5 86q-59 0 -100 -4q-37 0 -37 37q1 15 9.5 26t20.5 11z" />
    <glyph glyph-name="uni041C" unicode="&#x41c;" horiz-adv-x="805" 
d="M98 209q-6 92 0 248q8 201 15 276q1 17 13.5 30.5t28.5 16.5q41 5 70 -61q16 -52 61 -160q49 -111 87 -185l81 179q71 148 97 193q23 34 54 28q36 -5 43 -56q2 -44 15 -277q10 -171 17 -247q4 -20 -7 -33.5t-27 -16.5t-29 7.5t-13 32.5q-17 169 -17 480l-30 -57l-24 -48
l-38 -83l-67 -160q6 -15 1.5 -34t-16.5 -28q-32 -24 -70 40q-117 200 -171 382q-6 -174 -6 -268q-2 -116 2 -200q3 -31 -8.5 -49t-28.5 -18t-28 17.5t-5 50.5z" />
    <glyph glyph-name="uni041D" unicode="&#x41d;" horiz-adv-x="805" 
d="M136 761q3 27 15.5 43.5t28.5 16.5q16 1 26 -15.5t8 -48.5q0 -80 7 -253q48 -4 131 -6q86 0 139 3q-5 143 1 259q3 28 15.5 44t28.5 17t26 -15.5t8 -48.5q0 -10 2 -50.5t3 -69.5l9 -179q2 -35 5 -95.5l4 -81.5q2 -20 3.5 -45.5t2.5 -41t2 -22.5q1 -18 -10 -30t-27 -13
q-38 -2 -50 39q-14 76 -21 260q-53 -3 -139 -1q-50 0 -128 5q7 -158 18 -260q1 -18 -9.5 -30t-26.5 -13q-39 -2 -51 39q-3 13 -8 105q-2 27 -3.5 87t-2.5 90q-1 34 -3 96t-2 88q-2 110 -2 127z" />
    <glyph glyph-name="uni041E" unicode="&#x41e;" horiz-adv-x="805" 
d="M394 770q129 0 216 -75q90 -79 90 -201q0 -131 -91 -233q-92 -105 -217 -105q-133 0 -218 67q-90 71 -90 195q0 130 91 239q94 113 219 113zM394 697q-94 0 -169 -95q-71 -89 -71 -190q0 -95 72 -146q65 -47 170 -47q91 0 167 86q70 85 70 186q0 93 -71 151
q-71 55 -168 55z" />
    <glyph glyph-name="uni041F" unicode="&#x41f;" horiz-adv-x="805" 
d="M123 656q2 53 61 53h402q65 0 65 -69v-421q0 -23 -12.5 -36.5t-29.5 -14.5q-17 0 -29 12t-12 34v412h-369v-426q0 -20 -11 -30t-27 -10t-27 9.5t-11 27.5q0 26 -0.5 104t-0.5 123q0 171 1 232z" />
    <glyph glyph-name="uni0420" unicode="&#x420;" horiz-adv-x="805" 
d="M284 712q1 -33 1 -118q1 -45 1 -127q81 -49 143 -31q72 20 93 134q24 108 -38 147.5t-200 -5.5zM192 168q0 41 4 109q0 22 2 84t3 98q3 160 2 190q0 92 -6 140q-1 14 12 21t30 5q43 -8 43 -44q152 59 238 19q97 -51 76 -221q-16 -171 -133 -205q-48 -15 -98 -6
q-52 11 -81 29q-1 -58 -5 -95q-1 -17 -5.5 -59.5t-6.5 -71.5q-5 -35 -42 -35q-15 2 -25 13.5t-8 28.5z" />
    <glyph glyph-name="uni0421" unicode="&#x421;" horiz-adv-x="805" 
d="M604 722q12 -14 13.5 -30.5t-7.5 -25.5q-7 -12 -21 -16.5t-28 1.5q-151 53 -229 25q-109 -34 -108 -211q-1 -42 21 -80.5t61 -65.5q92 -64 222 -26q33 2 49 -27q15 -31 -7 -43q-49 -16 -124 -19q-73 -3 -139 21q-70 26 -115 83q-46 58 -46 162q0 138 53 210q46 63 128 81
q63 14 152 -2q62 -11 125 -37z" />
    <glyph glyph-name="uni0422" unicode="&#x422;" horiz-adv-x="805" 
d="M142 748q145 25 312 15q53 -3 181 -19q18 -4 24.5 -17t3.5 -29q-4 -16 -13.5 -26.5t-20.5 -7.5q-53 8 -79 11q-31 4 -125 9q2 -33 9 -259q1 -93 1 -258q-6 -44 -43 -42q-15 0 -26.5 10.5t-13.5 30.5v65v95.5v90.5q0 149 -5 267q-70 0 -107 -4q-11 -1 -89 -12
q-14 -2 -25 7t-14 24q-3 14 4 28.5t26 20.5z" />
    <glyph glyph-name="uni0423" unicode="&#x423;" horiz-adv-x="805" 
d="M143 728q-16 36 17 61q12 9 27 7.5t24 -15.5q85 -177 170 -267l122 150q79 91 111 121q25 18 51 -8q28 -25 5 -54q-145 -146 -234 -294q-20 -71 -22 -141q-1 -25 0 -74t1 -71q2 -15 -8.5 -25t-26.5 -11q-16 -2 -29 8t-16 32q-8 66 -7 114q1 57 13 156q-32 44 -104 152
q-75 116 -94 159z" />
    <glyph glyph-name="uni0424" unicode="&#x424;" horiz-adv-x="805" 
d="M431 758l-3 -46q240 -24 240 -235q0 -122 -67 -203q-72 -83 -189 -93q0 -56 7 -93q1 -26 -32 -32q-35 -2 -39 27q-5 35 -6 99q-112 12 -167.5 63.5t-55.5 158.5q0 124 61 206q65 89 176 102q0 5 3 56l3 42q2 11 13.5 16.5t24.5 3.5q34 -5 34 -34zM354 638
q-82 -17 -125 -86q-40 -61 -40 -155q0 -77 37.5 -110.5t115.5 -39.5q0 201 12 391zM411 246q92 8 140 72q49 64 49 156q0 81 -45 119.5t-131 45.5q-13 -215 -13 -393z" />
    <glyph glyph-name="uni0425" unicode="&#x425;" horiz-adv-x="805" 
d="M218 750q19 -37 82 -119l101 -126q69 85 98 126q57 79 93 122q16 18 47 -7q10 -10 14.5 -23t-1.5 -20q-36 -41 -102 -130q-66 -90 -96 -116q20 -24 133 -141q86 -90 134 -134q19 -21 -6 -46t-53 -2l-126 128q-116 120 -127 133q-21 -21 -109 -135q-80 -104 -104 -131
q-25 -23 -50 -6q-26 14 -14 46q20 23 108 144q82 114 113 146q-7 8 -46 56l-61 76q-79 100 -89 116q-7 16 -1 27t20 17q12 6 25 5.5t17 -6.5z" />
    <glyph glyph-name="uni0426" unicode="&#x426;" horiz-adv-x="805" 
d="M123 656q2 53 61 53h402q65 0 65 -69v-421q0 -23 -12.5 -36.5t-29.5 -14.5q-17 0 -29 12t-12 34v412h-369v-426q0 -20 -11 -30t-27 -10t-27 9.5t-11 27.5q0 26 -0.5 104t-0.5 123q0 171 1 232z" />
    <glyph glyph-name="uni0427" unicode="&#x427;" horiz-adv-x="805" 
d="M628 726q-12 -126 -24 -319q-13 -213 -14 -299q-6 -33 -42 -39q-36 -2 -36 35q-5 58 18 215q-46 -30 -77 -40q-38 -13 -93 -2q-55 6 -85 37.5t-43 91.5q-5 22 -8 48t-4.5 61t-2.5 61t-2 75.5t-2 76.5q1 31 37 25q15 -2 25 -10t9 -17q5 -229 19 -290q10 -41 30.5 -59.5
t58.5 -22.5q60 4 88.5 23t40.5 64q8 30 17 128.5t18 162.5q2 14 13.5 19.5t25.5 3.5t24 -10t9 -19z" />
    <glyph glyph-name="uni0428" unicode="&#x428;" horiz-adv-x="805" 
d="M122 627q2 18 15 25.5t29 4.5q15 -3 26 -14.5t10 -26.5q-13 -144 -1 -299q-1 -17 17.5 -23.5t49.5 -6.5q22 -1 61 2.5t45 3.5q9 114 -3 295q-3 12 7 20.5t25 9.5q16 2 28.5 -4t16.5 -20q2 -102 2 -141l2 -158q22 0 57 0.5t48 0.5q56 2 72 2l-3 150q-1 43 -9 172
q-3 9 6.5 16.5t23.5 9.5q35 5 47 -21q13 -106 17 -172q9 -125 -1 -233q-3 -11 -13.5 -19t-22.5 -9q-13 -2 -22.5 4t-11.5 20q-307 -18 -460 -7q-27 0 -33 5q-15 9 -20 40q-11 117 -12 153q0 103 7 220z" />
    <glyph glyph-name="uni0429" unicode="&#x429;" horiz-adv-x="805" 
d="M92 643q4 38 47 31q16 -3 27.5 -14.5t10.5 -26.5q-13 -133 -1 -299q-1 -16 18 -23t51 -7q1 0 110 4q10 121 -2 296q-3 13 6.5 20.5t27.5 10.5q41 2 48 -24q0 -26 0.5 -73t0.5 -70l2 -157q23 0 59 0.5t50 0.5q15 0 40 0.5t36 0.5q-2 168 -13 323q-3 9 7.5 17t26.5 11
q38 6 48 -23q2 -16 10 -117q8 -107 9 -184q2 -111 -2 -166q-2 -22 -5 -38t-7.5 -24t-8.5 -7q-39 -3 -52 36q-12 39 -6 92q-312 -20 -478 -9q-24 0 -35 5q-16 9 -21 40l-8 86q-3 31 -3 65q-1 34 0 84q0 15 1 35t3 51t3 53z" />
    <glyph glyph-name="uni042A" unicode="&#x42a;" horiz-adv-x="805" 
d="M162 144q20 92 95 288q49 126 108 257q-120 4 -204 -10q-13 -2 -20 8t-8 25q0 39 24 39q72 13 160 13q103 0 121 -25q12 -23 -23 -116q107 7 185 -83q56 -92 58 -184q2 -87 -48 -141t-138 -53q-95 2 -210 79q-6 -23 -16.5 -57.5l-14.5 -47.5q-8 -17 -21.5 -23.5
t-24.5 -3.5q-12 3 -19 13t-4 22zM285 308q129 -77 197.5 -74t93.5 85q18 89 -27 154q-46 61 -117 75q-41 1 -79 -69q-34 -59 -68 -171z" />
    <glyph glyph-name="uni042B" unicode="&#x42b;" horiz-adv-x="805" 
d="M43 173q22 87 97 257q61 141 111 232q-149 0 -207 -10q-13 -2 -21 7t-9 22q-2 31 23 35q86 11 164 11q105 -2 122 -24q15 -20 -23 -103q108 8 188 -73q61 -85 61 -164q0 -78 -49 -124q-50 -47 -140 -48q-89 -1 -214 70q-2 -4 -9 -23t-10 -28q-2 -7 -7.5 -21t-7.5 -21
q-16 -33 -47 -25q-10 2 -17.5 11.5t-4.5 18.5zM168 320q132 -70 201 -67t96 77q17 79 -29 138q-43 55 -120 69q-40 0 -80 -64q-36 -60 -68 -153zM668 723q4 15 15.5 21.5t24.5 3.5t22 -15.5t8 -29.5q-10 -186 -10 -256q-2 -151 10 -233q1 -17 -9 -28t-25 -12q-15 -2 -27 7.5
t-15 27.5q-16 110 -11 249q4 115 17 265z" />
    <glyph glyph-name="uni042C" unicode="&#x42c;" horiz-adv-x="805" 
d="M185 93q-7 55 -7 144q2 116 5 173q8 185 20 283q-10 99 8 131q10 21 37 19q20 -4 28 -15.5t10 -36.5q2 -3 0 -58t-2 -79q110 50 224 -11q92 -69 126 -158q30 -85 -2 -155q-32 -72 -127 -102q-102 -32 -249 2q-2 -17 -2 -65q0 -10 0.5 -28.5t0.5 -25.5q-2 -20 -12.5 -30.5
t-23.5 -11.5t-23 5.5t-11 18.5zM255 297q163 -29 236 0.5t73 120.5q-12 97 -85 145q-69 44 -151 31q-47 -16 -61 -99q-14 -66 -12 -198z" />
    <glyph glyph-name="uni042D" unicode="&#x42d;" horiz-adv-x="805" 
d="M109 625q261 106 420 47q63 -23 98 -65.5t41 -86.5q31 -215 -71 -300q-104 -84 -369 -52q-48 9 -55 51q-1 17 9 27t28 7q198 -34 294 12q79 37 92 136q-74 9 -195 0q-39 -2 -100.5 -7.5t-71.5 -6.5q-13 -3 -19.5 5t-6.5 22q2 32 26 38q48 11 169 16q128 2 198 -7
q-1 50 -31 88t-86 55q-123 39 -335 -48q-33 -12 -48 18q-7 11 -4 25.5t17 25.5z" />
    <glyph glyph-name="uni042E" unicode="&#x42e;" horiz-adv-x="805" 
d="M515 709q127 0 198 -71q70 -70 70 -187q0 -123 -71 -218q-75 -98 -199 -98q-234 0 -272 204q-64 9 -70 9q-17 1 -67 1q-4 -93 11 -181q0 -31 -35 -37q-37 -2 -41 31q-14 94 -9 224q4 113 15 240q3 14 15 20t27 4q34 -6 33 -39q-6 -77 -7 -102q-5 -52 -5 -88q44 4 65 0
q7 0 16 -1.5l24 -4l28 -4.5q18 125 87 207q74 91 187 91zM514 643q-91 0 -153 -90q-52 -77 -52 -180q0 -179 207 -179q94 0 149 80q51 77 51 173q0 92 -52.5 144t-149.5 52z" />
    <glyph glyph-name="uni042F" unicode="&#x42f;" horiz-adv-x="805" 
d="M578 506q0 36 -2 114q-2 72 -2 94q-18 2 -55 5.5t-52 4.5l-39 2.5t-39 1t-28 -2.5q-62 -7 -72 -66q-6 -31 25 -56.5t85 -46.5q72 -28 179 -50zM575 772q1 16 13.5 26t28.5 10q17 0 26.5 -10.5t6.5 -32.5v-116v-190v-183q2 -89 4 -95q5 -21 -5.5 -33t-28.5 -12
q-17 -1 -31 12.5t-15 36.5q-2 39 0 117v139q-13 3 -74 18l-74 18l-83 -142q-80 -126 -99 -154q-15 -12 -32.5 -14t-26.5 5q-12 7 -14.5 19t6.5 22q47 66 112 172l73 121q-79 18 -116.5 62.5t-28.5 99.5q10 48 23.5 73.5t45.5 38.5q74 26 289 -8z" />
    <glyph glyph-name="uni0430" unicode="&#x430;" horiz-adv-x="805" 
d="M346 211q96 1 136 100q15 34 20 71q2 17 7 41q-95 38 -175 33q-105 -9 -105 -103q0 -65 34 -103.5t83 -38.5zM442 715q114 0 150 -81q15 -38 11 -107q-1 -7 -7 -31.5t-11 -52.5t-7 -55q-8 -116 46 -177q14 -12 14 -25.5t-13 -22.5q-29 -23 -68 7q-9 9 -18 29
q-7 13 -21 33q-25 -49 -83 -74q-58 -27 -122 -19q-70 8 -111 58q-48 58 -48 157q0 64 34.5 104.5t91.5 56.5q114 32 244 -22q29 97 -14 133q-33 25 -117 23q-17 0 -23.5 10t-0.5 23q14 33 73 33z" />
    <glyph glyph-name="uni0431" unicode="&#x431;" horiz-adv-x="805" 
d="M401 782q9 -1 67 -8q47 -6 76 -7q15 -2 23 -12.5t8 -24.5t-7.5 -24t-22.5 -11q-4 0 -45.5 6.5t-69.5 7.5q-92 6 -107 -30q-17 -48 -10 -87q9 -43 62 -65q114 -40 160 -110q46 -64 34 -138q-11 -70 -63 -116q-57 -49 -132 -43q-172 15 -191 156q-19 119 72 272
q-16 22 -18.5 63t12.5 82q14 39 51 68q37 28 101 21zM304 484q-47 -129 -43 -191q7 -94 122 -103q65 3 88 47t17 102q-10 48 -72 91q-51 39 -112 54z" />
    <glyph glyph-name="uni0432" unicode="&#x432;" horiz-adv-x="805" 
d="M278 723q-3 -27 -10.5 -103.5t-12.5 -120.5q-7 -65 -30 -227q81 -34 170 -34q88 0 115 38q23 40 -1 80q-35 48 -139 78q-32 14 -30 45q2 29 39 39q98 16 126 56q23 34 2 97q-30 43 -99 55q-54 9 -130 -3zM143 211q2 12 7 51l8 63q5 49 19 167q3 26 17 168q5 68 11 121
q163 24 249 5q86 -22 128 -96q29 -66 -2 -126q-40 -72 -153 -92q114 -23 154 -78q32 -43 7 -121q-32 -91 -121 -116q-116 -34 -324 54z" />
    <glyph glyph-name="uni0433" unicode="&#x433;" horiz-adv-x="805" 
d="M237 659q111 6 227 0q118 -8 205 -24q21 -11 16 -45q-3 -14 -9.5 -23.5t-15.5 -6.5q-122 20 -216 25q-117 7 -186 -5q-24 -165 -24 -368q0 -49 -39 -49q-14 0 -25.5 10.5t-9.5 27.5q-5 68 5 210q7 96 18 176q6 67 54 72z" />
    <glyph glyph-name="uni0434" unicode="&#x434;" horiz-adv-x="805" 
d="M143 301q-11 76 16 104q18 18 64 18q1 63 14 160q1 12 7 68.5t8 84.5q0 46 54 46q36 0 98 5q78 6 112 6q31 0 44.5 -14.5t13.5 -46.5v-309q54 0 72 -10.5t18 -47.5v-138q0 -20 -11.5 -31.5t-26.5 -11.5q-16 -1 -27 9.5t-11 29.5v130h-374v-141q0 -18 -11.5 -25.5
t-24.5 1.5q-35 22 -35 113zM290 423h208v299q-66 0 -106 -6q-35 -6 -72 -6q0 -77 -13 -153q-15 -98 -17 -134z" />
    <glyph glyph-name="uni0435" unicode="&#x435;" horiz-adv-x="805" 
d="M252 412q140 -10 203 4q60 15 64 70q-5 69 -100 67q-36 0 -72.5 -11t-52.5 -26q-42 -33 -42 -104zM188 284q-49 149 25 252q71 99 216 99q91 0 134 -63q38 -60 18 -142q-26 -57 -81 -78q-64 -23 -229 -16q1 -48 28 -79.5t70 -45.5q39 -12 86 -4.5t85 33.5q16 8 32 5.5
t26 -12.5q21 -28 -16 -57q-29 -22 -84 -36t-112 -9q-60 6 -115 40q-54 34 -83 113z" />
    <glyph glyph-name="uni0436" unicode="&#x436;" horiz-adv-x="805" 
d="M361 759q5 24 39 22q35 -6 35 -34q-10 -126 -15 -270q47 -1 86 38q27 31 57 87q31 58 59 86q40 40 92 40q19 0 29.5 -10t11.5 -24q0 -13 -9 -23t-23 -10q-30 -11 -51.5 -28.5t-31.5 -32t-23 -39.5q-1 -2 -5.5 -12t-6 -13l-6 -12t-7 -13l-7 -11.5t-8.5 -12t-9.5 -11.5
t-11 -11.5t-12.5 -9.5l-14 -10q8 -4 15.5 -8.5t14 -12t11 -12t10 -14.5t8 -14t7 -17t5.5 -15.5t6 -17t5 -15.5q14 -39 35 -64q23 -27 78 -27q21 -6 21 -26q0 -21 -21 -26q-82 -1 -125 36q-25 23 -47 81q-17 55 -37 82q-35 37 -99 38q0 -180 12 -239q0 -12 -10.5 -21
t-23.5 -10q-36 -2 -40 26q-8 61 -8 245q-48 -12 -83 -54q-9 -10 -54 -85q-29 -57 -55 -79q-33 -34 -83 -33q-40 0 -42 34q-1 13 8.5 23.5t24.5 10.5q41 14 63.5 37t41.5 60q2 4 9.5 20t10.5 21.5t11.5 19t15 21t17.5 17.5t23 18q-43 16 -58 52q-18 48 -26 73q-12 35 -33 64
q-21 28 -75 28q-23 4 -23 26q0 20 23 26q75 7 105 -6q8 -4 13 -10t10 -13.5t9 -11.5q31 -107 53 -142q37 -59 95 -59q6 216 13 287z" />
    <glyph glyph-name="uni0437" unicode="&#x437;" horiz-adv-x="805" 
d="M504 668q11 -74 -55 -134q-58 -57 -168 -91q133 15 197 -3q103 -30 103 -144q-22 -100 -96 -128q-68 -27 -227 -8q-19 1 -26.5 10.5t-4.5 23.5q6 31 34 31q116 -10 175.5 6.5t73.5 75.5q6 36 -21 53t-83 24q-27 3 -106.5 5.5t-118.5 8.5q-24 6 -19 29q6 24 28 34
q101 38 164 82q79 56 74 117q-11 46 -51 50q-59 7 -164 -74q-12 -6 -23.5 -2t-18.5 16q-20 29 8 52q138 95 224 76q74 -17 101 -110z" />
    <glyph glyph-name="uni0438" unicode="&#x438;" horiz-adv-x="805" 
d="M113 195q2 49 7 103l15 131q23 170 31 194q9 53 36 54.5t69 -56.5q83 -171 225 -404q18 51 60 219q34 170 42 226q2 18 14 29.5t27 11.5q14 1 25 -11.5t10 -34.5q-25 -157 -54 -278q-29 -120 -59 -212q-22 -80 -60 -75q-37 5 -56 73q-55 87 -98 171q-39 71 -108 216
q-17 -71 -33 -195q-15 -133 -15 -181q1 -27 -11 -43.5t-30 -15.5q-17 0 -28.5 20t-8.5 58z" />
    <glyph glyph-name="uni0439" unicode="&#x439;" horiz-adv-x="805" 
d="M118 169q1 69 24 245q19 157 32 201q9 55 38.5 56t71.5 -58q75 -153 237 -420q27 76 46 206q7 43 16.5 116l12.5 96q2 19 14.5 31t28.5 12q15 1 26.5 -12t10.5 -36l-19.5 -133t-20.5 -135q-22 -133 -46 -199q-12 -41 -28.5 -60t-35.5 -16q-18 2 -33.5 22t-24.5 52
q-55 87 -111 185q-87 166 -117 228q-13 -55 -35 -201q-16 -125 -17 -188q2 -28 -9 -46.5t-27 -20.5q-16 -1 -26.5 18t-7.5 57zM321 816q31 -51 52 -74t45 -24q48 -1 144 111q22 18 46 0q9 -7 13.5 -18t-0.5 -20q-70 -74 -115.5 -108t-82.5 -36q-38 -3 -75 27.5t-87 101.5
q-7 11 -4 23t14 22q8 10 23 9.5t27 -14.5z" />
    <glyph glyph-name="uni043A" unicode="&#x43a;" horiz-adv-x="805" 
d="M214 158q0 10 -0.5 55.5t-0.5 77.5q0 27 -0.5 89t-0.5 96v178q0 73 2 111q6 25 41 23q35 -6 35 -35q-4 -39 -2 -160q2 -120 2 -164q119 31 276 151q28 12 50 -15q23 -28 0 -45q-25 -18 -94 -61q-12 -7 -28.5 -17.5l-27 -17l-17.5 -10.5q41 -84 63 -120q17 -33 60 -92
q14 -23 -15 -44q-33 -22 -55 7q-24 31 -57 94l-61 119q-24 -15 -51 -27l-48 -22q-1 -65 -1 -118q1 -26 6 -44q0 -15 -10 -25t-25 -11q-36 -5 -41 27z" />
    <glyph glyph-name="uni043B" unicode="&#x43b;" horiz-adv-x="805" 
d="M119 691q96 9 259 11q76 1 232 -2q28 -6 30 -42q1 -15 -7 -26t-22 -12q-1 0 -61 3q-63 3 -66 3q-11 -150 5 -199q11 -30 33.5 -50.5t65.5 -41.5q46 -22 36 -54q-4 -13 -17 -20.5t-28 -3.5q-128 36 -155 113q-29 73 0 256h-71h-75q23 -220 -104 -339q-32 -19 -54 3
q-23 22 8 53q50 58 68 111q28 77 19 168q-10 0 -25 -0.5t-22 -0.5q-8 0 -22 -0.5t-21 -0.5q-35 0 -33 35q1 14 8.5 25t18.5 11z" />
    <glyph glyph-name="uni043C" unicode="&#x43c;" horiz-adv-x="805" 
d="M98 191q-6 93 0 245q8 201 15 273q1 16 14 29.5t31 16.5q45 6 74 -61q26 -71 66 -156q51 -115 91 -182q65 137 85 175q35 75 100 190q20 32 58 30q38 -5 48 -56q8 -188 13 -274q9 -166 17 -244q4 -19 -7 -33t-27 -17q-18 -3 -31 7t-14 33q-18 139 -18 471
q-23 -44 -36 -66t-29 -52q-14 -25 -39 -79l-64 -144q6 -15 2 -33.5t-16 -28.5q-32 -23 -75 41q-126 207 -179 373q-5 -152 -7 -261q-1 -95 3 -198q3 -30 -9 -47.5t-30 -17.5q-19 -1 -30.5 16.5t-5.5 49.5z" />
    <glyph glyph-name="uni043D" unicode="&#x43d;" horiz-adv-x="805" 
d="M139 761q3 26 15 41.5t26 16.5q14 0 23.5 -15.5t7.5 -46.5q0 -76 7 -256q74 -5 134 -6q87 0 142 3q-5 147 1 262q3 26 15 42t26 17q35 0 31 -62q0 -10 2 -50.5t3 -69.5l9 -179q2 -35 5 -95.5l4 -81.5q2 -20 3.5 -45.5t2.5 -41t2 -22.5q1 -36 -35 -41q-15 -1 -29 8.5
t-17 28.5q-14 77 -21 263q-55 -3 -142 -1q-51 0 -131 5q6 -159 18 -263q1 -36 -34 -41q-37 -2 -47 37q-3 13 -8 105q-4 75 -6 177q-1 34 -3 96t-2 88q-2 110 -2 127z" />
    <glyph glyph-name="uni043E" unicode="&#x43e;" horiz-adv-x="805" 
d="M378 756q125 0 196.5 -75.5t71.5 -205.5q0 -135 -73 -236q-79 -107 -197 -107q-125 0 -190 68.5t-65 197.5q0 143 66 243q73 115 191 115zM378 681q-89 0 -144 -97q-45 -80 -45 -190q0 -197 191 -197q91 0 145 89q51 76 51 186q0 98 -51 153.5t-147 55.5z" />
    <glyph glyph-name="uni043F" unicode="&#x43f;" horiz-adv-x="805" 
d="M145 617q1 23 16 37t44 14h395q65 0 65 -67v-403q0 -23 -12 -36t-29 -14t-28.5 10.5t-11.5 34.5v396h-365v-410q0 -18 -11.5 -28.5t-25.5 -10.5q-16 0 -26.5 9.5t-10.5 26.5q0 58 -2 218q0 184 2 223z" />
    <glyph glyph-name="uni0440" unicode="&#x440;" horiz-adv-x="805" 
d="M281 714q1 -34 1 -121q1 -46 1 -128q83 -50 147 -32q74 22 95 136q24 110 -40 150t-204 -5zM195 168q0 41 4 109q0 22 2 84t3 98q3 160 2 190q0 92 -6 140q-1 12 11 18.5t28 4.5q40 -8 40 -46q153 61 239 21q96 -47 75 -218q-16 -168 -131 -202q-53 -12 -98 -4t-83 29
q-1 -62 -5 -99q-1 -33 -12 -132q-3 -17 -14.5 -25.5t-24.5 -7.5q-14 2 -23 13t-7 27z" />
    <glyph glyph-name="uni0441" unicode="&#x441;" horiz-adv-x="805" 
d="M603 719q23 -29 5 -52q-14 -26 -46 -13q-153 53 -231 25q-111 -35 -110 -214q-1 -42 21 -82t62 -66q94 -65 224 -26q31 1 46 -26q16 -26 -5 -39q-53 -17 -124 -20q-74 -2 -137 22q-68 24 -114 81q-46 58 -46 161q0 133 53 208q48 65 127 80q63 14 151 -2q56 -9 124 -37z
" />
    <glyph glyph-name="uni0442" unicode="&#x442;" horiz-adv-x="805" 
d="M143 745q143 25 311 15q51 -3 180 -19q17 -3 23 -16t3 -27q-3 -15 -12 -24.5t-19 -6.5q-9 1 -35.5 5t-43.5 6q-30 4 -128 9q2 -35 9 -262q1 -93 1 -258q-3 -20 -14.5 -30.5t-25.5 -10.5t-25 10.5t-13 29.5v65v95.5v91.5q0 172 -4 269q-70 0 -111 -4q-11 -1 -89 -12
q-14 -3 -24 5.5t-12 22.5q-3 14 4 27t25 19z" />
    <glyph glyph-name="uni0443" unicode="&#x443;" horiz-adv-x="805" 
d="M150 635q-10 30 17 50q28 17 45 -9q83 -156 169 -239q48 58 122 135q65 70 109 106q25 15 47 -4q11 -7 12.5 -18t-8.5 -23q-147 -139 -230 -260q-20 -66 -22 -134q-1 -23 0 -69t1 -64q1 -12 -9 -20.5t-23 -9.5q-36 -2 -41 33q-7 52 -6 106q0 53 12 144l-103 136
q-76 109 -92 140z" />
    <glyph glyph-name="uni0444" unicode="&#x444;" horiz-adv-x="805" 
d="M444 716l-4 -44q236 -21 236 -219q0 -116 -67 -191q-70 -79 -183 -86q0 -48 8 -88q0 -12 -10 -20t-23 -9q-13 -2 -24 4t-13 20q-3 33 -3 40q-3 45 -3 55q-109 9 -162.5 57t-53.5 149q0 116 58 192q62 83 173 96q1 57 6 92q4 21 36 19q13 -2 22 -10.5t9 -20.5zM371 603
q-78 -15 -123 -80q-39 -62 -39 -145q0 -73 37 -105t112 -35q0 172 13 365zM425 235q88 9 136 68t48 148q0 75 -43 111t-128 43q-13 -203 -13 -370z" />
    <glyph glyph-name="uni0445" unicode="&#x445;" horiz-adv-x="805" 
d="M201 659q25 -14 79 -75q39 -42 80 -101q36 28 94 84q77 68 98 83q19 14 34 10.5t25 -18.5t10.5 -30t-11.5 -22q-50 -39 -105 -89l-91 -82q7 -9 31 -44.5t39 -55.5q56 -72 94 -72q29 -3 44.5 -16t11.5 -27q-3 -16 -27 -25.5t-65 -5.5q-36 1 -103 80l-48 63t-34 45l-77 -78
q-52 -58 -76 -80q-31 -31 -54 -9q-26 22 -11 58q25 32 84 90l83 87q-5 6 -29.5 41.5t-40.5 54.5q-49 56 -100 80q-28 4 -41 18t-6 28q15 36 112 8z" />
    <glyph glyph-name="uni0446" unicode="&#x446;" horiz-adv-x="805" 
d="M223 738q0 12 10.5 19.5t25.5 7.5q14 0 24.5 -8.5t10.5 -24.5q-2 -73 -12 -164t-10 -117q1 -46 25 -69.5t86 -35.5q30 -2 49 14.5t32 57.5q7 19 13.5 49t11 53.5t14 80.5l14.5 88q0 10 11 16.5t26 6.5q33 -2 32 -35q-30 -197 -72 -329q11 -8 23.5 -19.5t26.5 -26.5
t15 -16q24 -23 9 -45q-7 -10 -19 -12.5t-25 5.5q-4 2 -9 7l-12.5 12t-13.5 12l-44 40q-42 -44 -111 -30q-71 13 -94 66q0 -60 -4 -109q-5 -57 -10 -82q-5 -37 -40 -29q-34 7 -34 44q4 28 8 71l10 105l10 101q20 243 23 296z" />
    <glyph glyph-name="uni0447" unicode="&#x447;" horiz-adv-x="805" 
d="M542 738q2 -34 5.5 -81.5l8.5 -112l8 -102.5q13 -161 30 -277q0 -17 -10.5 -29t-24.5 -15q-15 -3 -26.5 3.5t-12.5 25.5q-6 23 -11 82q-4 49 -4 109q-43 -36 -55 -43q-32 -15 -78 -15q-51 -3 -81.5 22.5t-50.5 79.5q-20 57 -60 292q-4 33 31 35q13 0 24.5 -7t12.5 -16
q37 -217 55 -261q13 -35 31.5 -48t51.5 -11q61 9 84 30t24 62q0 20 -10.5 108t-12.5 163q0 16 10 24.5t24 8.5q15 0 25.5 -7.5t11.5 -19.5z" />
    <glyph glyph-name="uni0448" unicode="&#x448;" horiz-adv-x="805" 
d="M82 502l6 138q3 18 16 25t29 4q16 -2 27 -13.5t10 -26.5q-7 -66 -7 -158q0 -88 6 -160q-4 -33 72 -33q24 -1 70 2l46 3q11 134 -3 317q-2 12 7.5 19.5t25.5 8.5q10 2 19.5 0t17 -8t9.5 -15q0 -99 1 -150q0 -105 1 -169q24 0 62 0.5t53 0.5q62 2 80 2q-2 26 -3 80t-2 82
q-1 51 -9 181q-3 9 6.5 16.5t23.5 9.5q37 6 47 -21q13 -105 18 -178q9 -135 -1 -239q-7 -22 -36 -27q-30 -2 -34 26q-326 -19 -493 -8q-26 0 -33 4q-14 8 -20 40l-8 94q-2 23 -4 69q-2 36 0 84z" />
    <glyph glyph-name="uni0449" unicode="&#x449;" horiz-adv-x="805" 
d="M88 674q2 18 15 25t30 4q15 -3 26 -14.5t10 -25.5q-7 -67 -7 -158q0 -101 5 -162q-4 -32 71 -32q24 -1 69 2.5t49 3.5q11 134 -3 316q-3 12 7 20t26 10q38 2 45 -24q0 -26 0.5 -76t0.5 -75l2 -169q45 0 107.5 1.5t86.5 1.5q-2 185 -13 345q-3 9 6.5 16t24.5 9
q39 2 46 -22q4 -28 11 -120q9 -161 9 -186q2 -126 -2 -170q-1 -17 -3 -30t-4 -22.5t-5.5 -14t-7.5 -3.5q-37 -4 -49 35t-6 94q-325 -19 -488 -8q-25 0 -34 5q-14 6 -20 40q-12 120 -12 168q-2 36 0 83z" />
    <glyph glyph-name="uni044A" unicode="&#x44a;" horiz-adv-x="805" 
d="M170 148q24 101 90 264q41 105 100 236q-126 2 -191 -9q-11 -2 -17.5 7t-6.5 22q-2 35 22 36q77 11 148 11q96 0 111 -23q11 -20 -22 -106q100 7 172 -77q56 -88 56 -168t-45 -128q-45 -47 -129 -48q-82 0 -195 74q-4 -12 -9 -30t-7 -24l-14 -44q-17 -32 -42 -24
q-27 8 -21 31zM283 298q121 -72 185 -69t88 79q16 83 -27 142q-38 54 -108 69q-38 1 -73 -63q-29 -49 -65 -158z" />
    <glyph glyph-name="uni044B" unicode="&#x44b;" horiz-adv-x="805" 
d="M80 183q22 86 88 245q47 116 100 220q-136 0 -189 -9q-11 -2 -17.5 6.5t-7.5 21.5q-1 12 4 22t16 11q81 9 148 9q96 0 110 -22q10 -17 -22 -99q96 8 169 -68q55 -80 55 -156q0 -74 -44 -118q-43 -43 -127 -45q-83 -1 -192 66l-17 -49q-3 -7 -6.5 -21t-5.5 -19
q-16 -30 -41 -24q-27 7 -21 29zM192 322q120 -66 182 -63t87 73q16 76 -27 132q-42 52 -108 64q-36 1 -72 -60q-23 -37 -62 -146zM669 707q3 14 15 20t27 4q34 -5 33 -41q-16 -245 -17 -263q-4 -96 11 -203q1 -16 -9 -27t-24 -12q-15 -2 -26.5 6t-14.5 25q-12 85 -10 238
q4 113 15 253z" />
    <glyph glyph-name="uni044C" unicode="&#x44c;" horiz-adv-x="805" 
d="M293 402l-3 -172q38 -20 87.5 -29.5t91.5 -3.5q105 16 105 123q0 58 -30.5 87t-79.5 33q-85 7 -171 -38zM222 180q0 314 11 585q2 25 38 27q14 0 25 -7t11 -21q-5 -82 -6 -148q-4 -64 -4 -148q49 31 108.5 42t115.5 -2q57 -14 92 -60t35 -125q0 -134 -96 -178
q-112 -51 -330 35z" />
    <glyph glyph-name="uni044D" unicode="&#x44d;" horiz-adv-x="805" 
d="M139 604q244 96 401 44q59 -20 92.5 -58.5t39.5 -78.5q30 -195 -67 -266q-99 -75 -352 -44q-23 3 -32 16.5t-6 30.5q3 15 15 24t26 3q200 -33 276 6q33 16 48 45t22 74q-73 10 -192 3q-39 -2 -101.5 -7.5t-65.5 -5.5q-11 -3 -15 6.5t-3 23.5q6 37 25 42q62 12 164 14
q109 5 197 -6q-3 37 -32.5 68.5t-83.5 45.5q-135 34 -329 -51q-27 -10 -41 21q-13 32 14 50z" />
    <glyph glyph-name="uni044E" unicode="&#x44e;" horiz-adv-x="805" 
d="M515 709q127 0 198 -71q70 -70 70 -187q0 -123 -71 -218q-75 -98 -199 -98q-234 0 -272 204q-64 9 -70 9q-17 1 -67 1q-4 -93 11 -181q0 -31 -35 -37q-37 -2 -41 31q-14 94 -9 224q4 113 15 240q3 14 15 20t27 4q34 -6 33 -39q-6 -77 -7 -102q-5 -52 -5 -88q44 4 65 0
q7 0 16 -1.5l24 -4l28 -4.5q18 125 87 207q74 91 187 91zM514 643q-91 0 -153 -90q-52 -77 -52 -180q0 -179 207 -179q94 0 149 80q51 77 51 173q0 92 -52.5 144t-149.5 52z" />
    <glyph glyph-name="uni044F" unicode="&#x44f;" horiz-adv-x="805" 
d="M575 510q0 36 -2 110q-2 72 -2 91q-175 16 -209 12q-33 -5 -49 -19.5t-21 -44.5q-6 -32 28 -57q31 -23 81 -44q40 -15 97 -31q55 -13 77 -17zM572 776q1 16 14.5 25.5t30.5 9.5q18 -1 28.5 -12.5t7.5 -33.5v-116v-190v-183q2 -88 4 -94q5 -22 -6 -35t-30 -14
q-19 0 -34 13.5t-16 38.5q-2 39 0 117v137q-51 12 -72 18q-12 2 -71 17l-82 -140l-100 -155q-32 -26 -62 -8q-13 7 -16 19.5t7 24.5q47 66 112 172l38 64l32 53q-77 17 -114.5 63t-28.5 101q10 49 23.5 75t46.5 39q67 27 288 -6z" />
    <glyph glyph-name="uni0451" unicode="&#x451;" horiz-adv-x="805" 
d="M578 817q25 0 40.5 -11t15.5 -31q0 -22 -17 -40.5t-41 -18.5q-25 0 -40 11.5t-15 31.5q0 22 17 40t40 18zM223 803q25 0 40.5 -11t15.5 -32t-17.5 -38.5t-40.5 -17.5q-56 0 -56 43q0 20 16.5 38t41.5 18zM252 412q140 -10 203 4q60 15 64 70q-5 69 -100 67
q-36 0 -72.5 -11t-52.5 -26q-42 -33 -42 -104zM188 284q-49 149 25 252q71 99 216 99q91 0 134 -63q38 -60 18 -142q-26 -57 -81 -78q-64 -23 -229 -16q1 -48 28 -79.5t70 -45.5q39 -12 86 -4.5t85 33.5q16 8 32 5.5t26 -12.5q21 -28 -16 -57q-29 -22 -84 -36t-112 -9
q-60 6 -115 40q-54 34 -83 113z" />
    <glyph glyph-name="uni2015" unicode="&#x2015;" horiz-adv-x="805" 
d="M155 426q74 -14 213 -16q148 -5 260 12q15 2 25.5 -6.5t13.5 -23.5q8 -36 -27 -48q-100 -16 -275 -10q-138 0 -218 14q-38 6 -28 45q3 15 14 25t22 8z" />
    <glyph glyph-name="quoteleft" unicode="&#x2018;" 
d="M549 324q0 -2 -3 -2q-43 -10 -43 -68v-2h43q5 0 5 -3v-85q0 -5 -5 -5h-91q-5 0 -5 7v83q0 44 27.5 76t68.5 32q3 0 3 -2v-31z" />
    <glyph glyph-name="quoteright" unicode="&#x2019;" 
d="M473 330q0 2 3 2q43 10 43 68v1h-43q-5 0 -5 4v84q0 6 5 6h91q5 0 5 -7v-83q0 -45 -27.5 -76.5t-68.5 -31.5q-3 0 -3 2v31z" />
    <glyph glyph-name="quotedblleft" unicode="&#x201c;" 
d="M620 324q0 -2 -3 -2q-43 -10 -43 -68v-2h43q5 0 5 -3v-85q0 -5 -5 -5h-91q-5 0 -5 7v83q0 44 27.5 76t68.5 32q3 0 3 -2v-31zM465 324q0 -2 -3 -2q-43 -10 -43 -68v-2h43q5 0 5 -3v-85q0 -5 -5 -5h-91q-5 0 -5 7v83q0 44 27.5 76t68.5 32q3 0 3 -2v-31z" />
    <glyph glyph-name="quotedblright" unicode="&#x201d;" 
d="M389 318q0 2 3 2q43 10 43 68v1h-43q-5 0 -5 4v84q0 6 5 6h91q5 0 5 -7v-83q0 -45 -27.5 -76.5t-68.5 -31.5q-3 0 -3 2v31zM543 318q0 2 3 2q43 10 43 68v1h-43q-5 0 -5 4v84q0 6 5 6h91q5 0 5 -7v-83q0 -45 -27.5 -76.5t-68.5 -31.5q-3 0 -3 2v31z" />
    <glyph glyph-name="dagger" unicode="&#x2020;" horiz-adv-x="805" 
d="M369 703q1 9 13.5 16t26.5 7q38 -2 34 -39q-1 -8 -8 -58q-5 -35 -5 -71q18 -1 54 1q4 0 24 1.5t29 1.5q25 0 33 -32q7 -34 -19 -42q-49 -8 -121 -8q-2 -62 5 -152q8 -106 16 -135q5 -31 -33 -33q-39 0 -43 25q-24 104 -18 295q-74 -3 -138 8q-33 7 -27 43q2 13 11 23
t20 10q29 -4 63 -6q34 -1 69 0q0 37 4 69q6 54 10 76z" />
    <glyph glyph-name="daggerdbl" unicode="&#x2021;" horiz-adv-x="805" 
d="M369 703q1 9 13.5 16t26.5 7q38 -2 34 -39q-1 -8 -8 -58q-5 -35 -5 -71q18 -1 54 1q4 0 24 1.5t29 1.5q25 0 33 -32q7 -34 -19 -42q-49 -8 -121 -8q-2 -65 5 -157q14 0 40 2l37 3q11 1 18.5 -9t8.5 -23q2 -13 -3.5 -24.5t-17.5 -14.5q-45 -7 -76 -8q1 -31 9 -56
q5 -31 -33 -33q-39 0 -43 25q-3 13 -9 59q-67 -2 -106 2q-45 10 -40 39q1 12 11 21.5t27 11.5h48q16 0 54 2q-7 82 -3 160q-74 -3 -138 8q-33 7 -27 43q2 13 11 23t20 10q29 -4 63 -6q34 -1 69 0q0 37 4 69q6 54 10 76z" />
    <glyph glyph-name="twodotenleader" unicode="&#x2025;" horiz-adv-x="805" 
d="M217 415q23 0 40 -17t17 -39q0 -24 -17 -42t-39 -18q-59 0 -59 43q0 23 16 48t42 25zM561 411q23 0 40 -17t17 -39q0 -23 -17 -41.5t-39 -18.5q-59 0 -59 43q0 23 16 48t42 25z" />
    <glyph glyph-name="ellipsis" unicode="&#x2026;" horiz-adv-x="805" 
d="M473 -160v1040h53v-1040h-53z" />
    <glyph glyph-name="perthousand" unicode="&#x2030;" horiz-adv-x="805" 
d="M78 209l481 503q12 11 28 11.5t24 -8.5q11 -9 12 -21.5t-10 -25.5l-484 -510q-37 -29 -58 -4q-20 28 7 55zM371 302q45 0 75.5 -26t30.5 -69q0 -48 -32 -82q-28 -38 -74 -38t-76.5 26.5t-30.5 69.5q0 48 31 81q33 38 76 38zM197 683q45 0 75.5 -26.5t30.5 -69.5
q0 -45 -32 -82q-30 -37 -74 -37q-46 0 -76.5 26.5t-30.5 69.5q0 45 31 81q33 38 76 38zM201 625q-17 0 -31.5 -18.5t-14.5 -37.5q0 -38 46 -38q17 0 31 18t14 37q0 18 -13 28.5t-32 10.5zM375 244q-18 0 -32 -18t-14 -38q0 -38 46 -38q18 0 31.5 17.5t13.5 38.5
q0 17 -13 27.5t-32 10.5zM605 302q45 0 75.5 -26t30.5 -69q0 -48 -31 -82q-31 -38 -75 -38q-45 0 -76 26.5t-31 69.5q0 47 31 81q33 38 76 38zM609 244q-17 0 -31.5 -18.5t-14.5 -37.5q0 -38 46 -38q18 0 31.5 17.5t13.5 38.5q0 17 -13 27.5t-32 10.5z" />
    <glyph glyph-name="minute" unicode="&#x2032;" horiz-adv-x="805" 
d="M380 820q18 14 46 -3q12 -6 16.5 -15t-2.5 -15q-26 -15 -39.5 -31.5t-24.5 -46.5q-4 -22 -26 -12q-23 13 -23 31q8 66 53 92z" />
    <glyph glyph-name="second" unicode="&#x2033;" horiz-adv-x="805" 
d="M343 816q18 14 46 -3q12 -6 16 -14.5t-2 -15.5q-26 -15 -39.5 -31t-24.5 -46q-4 -23 -26 -13q-23 13 -23 31q8 66 53 92zM456 812q18 14 46 -3q12 -6 16.5 -14.5t-1.5 -15.5q-27 -15 -40.5 -31t-24.5 -46q-4 -22 -26 -13q-23 13 -23 31q8 65 53 92z" />
    <glyph glyph-name="uni203B" unicode="&#x203b;" horiz-adv-x="805" 
d="M160 591q-13 26 9 50t52 0q54 -72 172 -177l175 211q10 11 21 10t20 -11q9 -8 12.5 -21.5t-2.5 -22.5q-53 -80 -170 -218q46 -43 92 -93q85 -94 92 -101q12 -15 12.5 -32t-8.5 -25q-25 -25 -52 2l-76 79l-113 110l-90 -102l-77 -84q-18 -13 -33.5 -11t-26.5 15
q-11 11 -10 28.5t17 29.5q66 63 166 177q-121 113 -182 186zM195 453q19 0 30 -9.5t11 -25.5q0 -19 -11.5 -36t-28.5 -17q-44 0 -44 31q0 19 13.5 38t29.5 19zM389 656q18 0 29.5 -9.5t11.5 -25.5q0 -19 -12 -36t-28 -17q-44 0 -44 31q0 19 13 38t30 19zM395 263
q41 0 41 -35q0 -19 -12 -36t-28 -17q-44 0 -44 32q0 19 13 37.5t30 18.5zM582 476q41 0 41 -35q0 -19 -11.5 -36t-28.5 -17q-44 0 -44 31q0 19 13 38t30 19z" />
    <glyph glyph-name="uni2074" unicode="&#x2074;" horiz-adv-x="805" 
d="M244 751q9 16 31 10q24 -6 24 -23q-7 -100 0 -170l33 3q9 2 15 -5t7 -19q2 -29 -19 -30q-4 0 -9 -0.5t-8 -1t-5 -0.5q-6 -2 -14 -2q0 -5 0.5 -12t0.5 -12q2 -22 5 -33q1 -9 -6.5 -15t-18.5 -9q-27 -2 -28 19q-6 41 -6 60q-88 -9 -154 1q-14 2 -15 20q-1 20 6 30
q74 65 161 189zM242 658q-21 -33 -86 -98q48 0 89 4q-3 31 -3 94z" />
    <glyph glyph-name="uni207F" unicode="&#x207f;" horiz-adv-x="805" 
d="M393 -61q0 -14 -11 -22.5t-26 -9.5q-14 -3 -24 4.5t-8 23.5q8 81 -2 154q-15 110 -62 110q-73 0 -95 -25q-10 -11 -17 -52q-6 -41 -8 -100q-2 -74 -4 -88q-4 -29 -43 -29q-16 1 -26.5 9t-7.5 21q5 45 5 77q1 17 1 44q0 32 1 63q1 39 9 132q3 14 14 20.5t23 3.5
q31 -8 27 -57q8 21 42 36.5t76 17.5q44 2 77.5 -15.5t44.5 -57.5q21 -81 21 -172q-1 -24 -4 -53t-3 -35z" />
    <glyph glyph-name="uni2081" unicode="&#x2081;" horiz-adv-x="805" 
d="M86 210q48 24 93 66q14 10 32 0t19 -31q11 -149 -1 -280q26 0 40 2q11 3 18 -4.5t7 -20.5q-1 -13 -8.5 -22t-18.5 -9q-75 -5 -159 7q-12 0 -19 8.5t-6 21.5q2 29 30 25q13 -3 33 -5q4 0 13 -1t13 -1q10 162 2 231q-8 -9 -25 -16q-15 -9 -35 -17q-19 -16 -37 10
q-7 9 -5 20t14 16z" />
    <glyph glyph-name="uni2082" unicode="&#x2082;" horiz-adv-x="805" 
d="M133 12q57 16 87 35q41 29 41 69q0 64 -56 64q-24 0 -35 -5q-17 -10 -31 -36q-18 -23 -39 -6q-10 6 -13 17t3 20q30 70 125 70q44 0 77 -40q29 -37 29 -87q0 -55 -41 -96q-32 -32 -80 -48q62 -2 89 4q24 7 30 -24q2 -13 -2.5 -23t-15.5 -10q-31 -6 -86 -6t-83 6
q-15 1 -25.5 18t-2.5 41q1 23 29 37z" />
    <glyph glyph-name="uni2083" unicode="&#x2083;" horiz-adv-x="805" 
d="M80 226q17 24 60 37q44 13 83 0q72 -28 70 -119q0 -41 -22 -65q-17 -21 -31 -21l2 -2q2 -3 6.5 -9t7.5 -13q16 -34 2 -75q-19 -52 -79 -58q-33 -4 -77 7q-24 1 -22 26q0 10 6.5 17.5t17.5 7.5q42 -7 67 -4q18 3 27.5 10t8.5 23q-4 29 -35 42q-19 7 -58 7q-11 0 -17 7.5
t-6 17.5t6.5 18t17.5 8q36 -2 60 2q42 8 52 26q11 20 11 32q0 48 -37 62q-40 15 -83 -21q-14 -18 -35 -1t-3 38z" />
    <glyph glyph-name="uni2084" unicode="&#x2084;" horiz-adv-x="805" 
d="M244 234q9 16 31 10q24 -6 24 -24q-6 -99 0 -170l33 3q9 2 15 -4.5t7 -18.5q2 -29 -19 -30q-4 0 -9 -0.5t-8 -1t-5 -0.5q-6 -2 -14 -2q0 -4 0.5 -12t0.5 -13q2 -18 5 -33q1 -9 -6.5 -14.5t-18.5 -8.5q-27 -2 -28 18q-6 42 -6 61q-88 -9 -154 1q-12 1 -14.5 20t5.5 29
q79 70 161 190zM242 140q-22 -33 -86 -97q58 0 89 3q-3 32 -3 94z" />
    <glyph glyph-name="Euro" unicode="&#x20ac;" horiz-adv-x="805" 
d="M548 625q20 -3 32.5 -15.5t13.5 -27.5q1 -16 -12.5 -25.5t-38.5 -6.5q-70 6 -127 -14.5t-92 -51.5q103 -9 160 -16q24 -13 22 -33q-1 -9 -9 -14.5t-20 -2.5q-31 0 -96 7l-40 3t-40 4q-6 -12 -13 -58q47 -3 189 -19q22 -14 22 -35q-1 -11 -8.5 -17t-19.5 -3q-52 1 -99 6
q-45 1 -86 6q8 -45 39.5 -77.5t77.5 -45.5q105 -28 208 64q22 22 53 -4q12 -11 13.5 -25t-11.5 -29q-57 -48 -129.5 -70t-138.5 -10q-71 12 -120.5 62.5t-61.5 139.5q-24 -2 -35 -2l-37 -3q-27 0 -27 28q0 12 6 21.5t16 11.5q5 0 17 0.5t18 0.5t17 0.5t16 0.5q0 12 4 27
q2 23 5 31q-11 0 -34 -2t-33 -2q-25 0 -25 27q2 25 22 30q72 2 95 2q38 71 104 103q79 44 203 34z" />
    <glyph glyph-name="uni2103" unicode="&#x2103;" horiz-adv-x="805" 
d="M111 705q0 31 29 65q29 32 69 32q34 0 65 -28q33 -30 33 -62q0 -38 -35 -73q-32 -32 -67 -32q-39 0 -66.5 29t-27.5 69zM161 707q0 -19 11 -31t29 -12q15 0 31 16t16 33q0 15 -14 26.5t-29 11.5q-19 0 -31.5 -14t-12.5 -30zM646 641q23 -28 5 -54q-6 -10 -19 -14.5
t-26 1.5q-123 43 -187 20q-89 -27 -88 -172q-1 -34 16.5 -66t49.5 -53q76 -50 184 -19q28 1 43 -27q7 -9 5.5 -21.5t-12.5 -18.5q-47 -15 -106 -16q-61 -1 -117 18q-136 50 -136 207q0 115 45 178q40 56 109 69q54 12 128 -1q51 -9 106 -31z" />
    <glyph glyph-name="uni2109" unicode="&#x2109;" horiz-adv-x="805" 
d="M176 802q45 0 75 -26t30 -69q0 -49 -31 -82q-31 -38 -74 -38q-46 0 -77 26.5t-31 69.5q0 47 32 81q31 38 76 38zM176 743q-19 0 -34 -18.5t-15 -38.5q0 -18 14 -28.5t35 -10.5q18 0 32.5 18t14.5 39q0 17 -14 28t-33 11zM357 601q0 15 38 17q45 2 87 -2q69 -6 101 -11
q59 -7 79 -8q20 -5 20 -36q0 -13 -6.5 -22t-17.5 -8q-20 2 -64 4t-64 3q-18 0 -57.5 1.5t-52.5 1.5q2 -72 6 -147q105 0 209 -10q9 0 15 -10t7 -23q2 -33 -26 -33q-25 1 -63.5 3t-51.5 2q-9 0 -41 1.5t-48 1.5q0 -20 0.5 -59.5t0.5 -57.5v-81q0 -14 -10.5 -24t-24.5 -11
q-14 -2 -25 7t-11 28q0 2 -0.5 13.5t-1.5 30.5t-1 38q0 20 -2.5 73.5t-3.5 83.5q-2 111 -1 155q2 67 10 79z" />
    <glyph glyph-name="uni2113" unicode="&#x2113;" horiz-adv-x="805" 
d="M438 712q-9 -36 -11 -128q-4 -69 -2 -182q0 -38 2 -103.5t2 -73.5q5 -95 9 -110q2 -25 -7 -38t-23 -13t-25.5 10.5t-12.5 30.5q-16 99 -17 266q-6 209 10 345q0 19 12 31t27 13q37 2 36 -48z" />
    <glyph glyph-name="uni2116" unicode="&#x2116;" horiz-adv-x="805" 
d="M391 104h384q21 0 19 -31q-6 -31 -23 -31h-384q-21 0 -19 31q0 12 6 21.5t17 9.5zM41 204q0 49 15 169q13 115 20 138q6 42 34 43q30 2 49 -41q79 -169 148 -279q17 48 37 153q4 19 29 167q1 14 11 23t23 9q31 0 31 -37q-14 -98 -38 -207q-19 -100 -40 -160
q-13 -30 -45 -30q-34 0 -46 26q-36 55 -69 119l-67 138q-10 -42 -19 -117q-10 -88 -10 -120q1 -22 -9.5 -35.5t-24.5 -14.5q-15 -1 -23.5 12.5t-5.5 43.5zM597 454q66 0 106.5 -39t40.5 -104q0 -64 -48 -122q-50 -57 -112 -57q-64 0 -111 36t-47 102q0 68 53 124
q55 60 118 60zM594 384q-37 0 -71 -39q-33 -40 -33 -76q0 -67 91 -67q35 0 63 35q28 33 28 71q0 76 -78 76z" />
    <glyph glyph-name="uni2121" unicode="&#x2121;" horiz-adv-x="805" 
d="M47 657q132 22 237 13q26 -2 50 -5.5t42.5 -7.5t24.5 -5q34 -6 26 -42q-3 -13 -12.5 -22.5t-18.5 -6.5l-44 9q-24 4 -99 8q6 -122 7 -237q1 -88 1 -238q-3 -19 -14 -29t-25 -9q-14 0 -24.5 10.5t-11.5 27.5q0 23 0.5 102.5t0.5 127.5q-2 181 -5 245q-20 0 -55 -5
q-31 -5 -72 -6q-14 -3 -24 5t-12 22q-6 32 28 43zM376 350q111 -21 164 -1q43 16 48 69q-5 60 -75 66q-29 2 -57 -6t-44 -21q-15 -14 -25.5 -45.5t-10.5 -61.5zM313 231q-48 142 8 233q58 92 186 92q86 0 126 -58q36 -54 17 -131q-13 -31 -25.5 -47.5t-36.5 -26.5
q-50 -23 -195 -16q-1 -18 8 -53q12 -32 23 -39q36 -26 79.5 -25t105.5 31q16 8 31 6.5t25 -11.5q22 -24 -15 -53q-29 -22 -75 -35.5t-94 -7.5q-124 13 -168 141zM720 621q8 32 37 27q12 -1 21 -9.5t9 -20.5q-5 -77 -10 -241q-6 -190 -1 -262q0 -13 -9.5 -20.5t-23.5 -7.5
q-35 -2 -39 21v75v99v89q2 166 16 250z" />
    <glyph glyph-name="trademark" unicode="&#x2122;" horiz-adv-x="805" 
d="M169 782q11 -2 76 -9q47 -5 98 -5q15 -1 17 -25q0 -24 -17 -24q-15 -1 -35 -1l-29 3q0 -40 -2 -54q-1 -13 -3.5 -36.5t-2.5 -30.5q-7 -30 -34 -24q-11 2 -17.5 10t-3.5 19q11 58 13 118q-12 0 -30 2q-10 1 -38 7q-15 0 -13 25q6 25 21 25zM365 591v78q0 48 11 85
q6 21 28 22q24 2 34 -26q11 -33 19 -50q3 -7 6.5 -17.5t5.5 -17.5t4 -10q5 10 12 29t9 24q10 29 19 43q6 26 29 31q23 2 33 -27q0 -47 12 -145q4 -23 -20 -29q-9 -3 -17 0t-10 12q-8 36 -6 98q-6 -11 -19 -46l-21 -50q-4 -24 -29 -24q-11 0 -19 7t-8 20q-2 8 -14 46l-12 43
q-1 -8 -1 -27q0 -5 -0.5 -28.5t-0.5 -44.5q-5 -21 -24 -21q-21 0 -21 25z" />
    <glyph glyph-name="Omega" unicode="&#x2126;" horiz-adv-x="805" 
d="M214 102q-25 2 -26 27q-2 26 23 33q38 -2 65 3q60 8 33 61q-132 87 -129 248q8 263 217 269q222 -6 229 -283q-2 -153 -135 -237q-12 -63 23 -63q34 -6 74 0q24 -10 23 -27t-25 -28q-51 -7 -123 0q-42 8 -36 113q-3 46 36 65q92 50 95 182q-16 199 -160 208
q-129 -5 -149 -193q-11 -135 87 -192q45 -22 39 -70q9 -111 -41 -113q-56 -5 -120 -3z" />
    <glyph glyph-name="uni212B" unicode="&#x212b;" horiz-adv-x="805" 
d="M434 330q-2 5 -20 53q-13 32 -24 67q-4 -12 -13.5 -38.5t-14.5 -37.5l-17 -49q54 0 89 5zM297 705q0 30 28 65q32 32 70 32q32 0 65 -28q32 -29 32 -62q0 -39 -34 -73q-34 -32 -67 -32q-39 0 -66.5 29t-27.5 69zM347 707q0 -19 11 -31t29 -12q15 0 31 16t16 33
q0 14 -14 26t-29 12q-20 0 -32 -14t-12 -30zM354 523q13 33 43 25q26 -7 41 -39q70 -184 95 -259q15 -43 41 -137q4 -28 -28 -34q-35 -6 -42 20q-3 9 -8.5 33.5t-10.5 38.5q-13 52 -32 104q-74 -7 -127 -4q-11 -35 -15 -57l-33 -118q-6 -16 -18.5 -22t-24.5 -2
q-30 14 -21 50l22 77l41 123l44 123q12 32 33 78z" />
    <glyph glyph-name="onethird" unicode="&#x2153;" horiz-adv-x="805" 
d="M496 552q6 14 19 19.5t22 -0.5q12 -4 17.5 -15t0.5 -25q-20 -50 -103 -205l-55 -103.5t-55 -105.5q-18 -24 -43 -9q-27 14 -10 44q38 78 104 200l37 71.5l39 75zM105 650q48 24 93 65q15 10 32.5 1t19.5 -32q11 -149 -1 -279q25 0 39 2q12 3 18.5 -5t6.5 -21
q0 -12 -7.5 -21.5t-19.5 -9.5q-74 -5 -158 7q-27 0 -25 30t30 26q13 -3 32 -5q5 0 14 -1t12 -1q10 160 2 230q-7 -7 -24 -15l-35 -18q-21 -15 -37 11q-16 24 8 36zM504 291q17 26 56 37t77 2q40 -10 64 -41t16 -80q0 -41 -23 -66q-15 -20 -30 -20l2 -3q2 -2 6.5 -8.5
t7.5 -13.5q14 -30 2 -75q-20 -52 -79 -58q-31 -4 -78 7q-23 1 -21 27q0 9 7 16.5t16 7.5q45 -7 68 -4q17 3 27 10.5t9 22.5q-4 27 -35 42q-19 7 -58 7q-23 0 -23 25q0 11 6.5 19t17.5 8q46 -2 75 7q47 15 48 52q0 47 -37 64q-41 19 -83 -23q-14 -17 -35 -1q-22 18 -3 39z
" />
    <glyph glyph-name="twothirds" unicode="&#x2154;" horiz-adv-x="805" 
d="M486 552q6 14 19 19.5t22 -0.5q12 -4 17.5 -15t0.5 -25q-31 -76 -103 -205l-56 -106l-54 -103q-18 -24 -43 -9q-26 14 -10 44q17 35 104 200l37 71.5l39 75zM133 465q57 16 87 36q41 27 41 68q3 18 -9.5 35.5t-31.5 23.5q-48 17 -81 -36q-17 -22 -39 -6q-10 6 -13 17
t3 21q12 35 49.5 51.5t80.5 9.5t72.5 -37.5t28.5 -81.5q0 -55 -41 -96q-32 -32 -80 -48q62 -2 89 4q24 7 30 -24q2 -13 -2.5 -23t-15.5 -10q-31 -6 -86 -6t-83 6q-14 0 -21.5 13t-7.5 32q-2 42 30 51zM504 291q17 26 56 37t77 2q40 -10 64 -41t16 -80q0 -41 -23 -66
q-15 -20 -30 -20l2 -3q2 -2 6.5 -8.5t7.5 -13.5q14 -30 2 -75q-20 -52 -79 -58q-31 -4 -78 7q-23 1 -21 27q0 9 7 16.5t16 7.5q45 -7 68 -4q17 3 27 10.5t9 22.5q-4 27 -35 42q-19 7 -58 7q-23 0 -23 25q0 11 6.5 19t17.5 8q46 -2 75 7q47 15 48 52q0 47 -37 64
q-41 19 -83 -23q-14 -17 -35 -1q-22 18 -3 39z" />
    <glyph glyph-name="oneeighth" unicode="&#x215b;" horiz-adv-x="805" 
d="M486 552q6 14 19 19.5t22 -0.5q12 -4 17.5 -15t0.5 -25q-31 -76 -103 -205l-56 -106l-54 -103q-18 -24 -43 -9q-26 14 -10 44q17 35 104 200l37 71.5l39 75zM96 669q48 25 92 66q15 10 32.5 0t19.5 -31q11 -149 -1 -280q26 0 39 2q12 3 19 -4.5t7 -20.5q-1 -13 -8.5 -22
t-19.5 -9q-72 -5 -158 6q-27 0 -25 31q2 29 30 25q13 -3 32 -5q5 0 14 -1t13 -1q10 156 2 231q-8 -8 -25 -16q-21 -12 -35 -17q-20 -15 -37 10q-7 9 -5 20t14 16zM625 349q45 0 68.5 -24t26.5 -60q1 -33 -14 -61.5t-38 -34.5q20 -15 27 -43t0 -56q-7 -30 -30 -49.5
t-58 -19.5q-42 0 -64 21t-24 54q-3 29 10 55t36 34q-29 10 -43.5 40t-8.5 63q6 34 34 57.5t78 23.5zM618 293q-19 0 -35.5 -14.5t-16.5 -32.5q0 -37 40 -37q19 0 34.5 10.5t15.5 25.5q0 48 -38 48zM618 127q-16 0 -29.5 -10.5t-13.5 -28.5q0 -21 6 -27.5t25 -5.5q40 0 41 32
q-2 40 -29 40z" />
    <glyph glyph-name="threeeighths" unicode="&#x215c;" horiz-adv-x="805" 
d="M486 552q6 14 19 19.5t22 -0.5q12 -4 17.5 -15t0.5 -25q-31 -76 -103 -205l-56 -106l-54 -103q-18 -24 -43 -9q-26 14 -10 44q17 35 104 200l37 71.5l39 75zM88 683q18 26 56.5 37t76.5 2q41 -10 64.5 -40.5t15.5 -80.5q0 -42 -23 -65q-15 -21 -30 -21l2 -3q2 -2 6.5 -8
t7.5 -13q14 -30 2 -75q-19 -52 -79 -58q-31 -4 -78 7q-23 1 -21 26q0 10 6.5 17.5t16.5 7.5q45 -7 68 -4q17 3 27 10t9 23q-4 27 -35 42q-19 7 -58 7q-23 0 -23 25q0 11 6.5 18.5t17.5 7.5q46 -2 75 7q47 15 48 53q0 49 -37 63q-41 20 -83 -22q-14 -18 -35 -1t-3 38z
M576 330q45 0 68.5 -24t26.5 -60q1 -34 -14 -62t-38 -34q20 -15 27 -44t0 -56q-7 -30 -30 -49t-57 -19q-42 0 -64 21t-25 53q-3 29 10 55t37 34q-30 11 -44.5 40.5t-8.5 63.5t34 57.5t78 23.5zM569 274q-19 0 -35 -14t-16 -34q0 -37 40 -37q18 0 33.5 11t15.5 25
q0 49 -38 49zM569 108q-14 0 -28.5 -11t-14.5 -28q0 -22 6 -28t26 -5q40 0 41 32q-2 40 -30 40z" />
    <glyph glyph-name="fiveeighths" unicode="&#x215d;" horiz-adv-x="805" 
d="M486 552q6 14 19 19.5t22 -0.5q12 -4 17.5 -15t0.5 -25q-31 -76 -103 -205l-56 -106l-54 -103q-18 -24 -43 -9q-26 14 -10 44q17 35 104 200l37 71.5l39 75zM576 330q45 0 68.5 -24t26.5 -60q1 -34 -14 -62t-38 -34q20 -15 27 -44t0 -56q-7 -30 -30 -49t-57 -19
q-42 0 -64 21t-25 53q-3 29 10 55t37 34q-30 11 -44.5 40.5t-8.5 63.5t34 57.5t78 23.5zM569 274q-19 0 -35 -14t-16 -34q0 -37 40 -37q18 0 33.5 11t15.5 25q0 49 -38 49zM569 108q-14 0 -28.5 -11t-14.5 -28q0 -22 6 -28t26 -5q40 0 41 32q-2 40 -30 40zM118 503
q-24 6 -26 33q0 8 1 34t1 46q-3 25 7 36t35 14q15 2 59 0t70 -2q20 5 26 -23q2 -10 -3 -19.5t-16 -11.5q-72 -10 -124 -5v-51q71 -8 89 -12q50 -14 66 -44q25 -53 16 -92.5t-44 -65.5q-34 -25 -77.5 -28.5t-86.5 18.5q-9 2 -13 11t-1 19q7 24 27 19q69 -29 118 6
q45 35 13 89q-10 15 -48 21q-7 1 -89 8z" />
    <glyph glyph-name="seveneighths" unicode="&#x215e;" horiz-adv-x="805" 
d="M486 552q6 14 19 19.5t22 -0.5q12 -4 17.5 -15t0.5 -25q-31 -76 -103 -205l-56 -106l-54 -103q-18 -24 -43 -9q-26 14 -10 44q17 35 104 200l37 71.5l39 75zM275 380q-7 -25 -33 -19q-24 6 -18 26q16 81 21 126q8 85 4 124q-32 -2 -56 -2h-63l7 -118q1 -11 -6.5 -17
t-18.5 -6q-28 0 -29 22l-8 130q-4 14 3 26t25 12q54 2 83 2q51 0 74 5q15 6 27.5 -3t13.5 -26q4 -55 -5 -154q-8 -89 -21 -128zM576 330q45 0 68.5 -24t26.5 -60q1 -34 -14 -62t-38 -34q20 -15 27 -44t0 -56q-7 -30 -30 -49t-57 -19q-42 0 -64 21t-25 53q-3 29 10 55t37 34
q-30 11 -44.5 40.5t-8.5 63.5t34 57.5t78 23.5zM569 274q-19 0 -35 -14t-16 -34q0 -37 40 -37q18 0 33.5 11t15.5 25q0 49 -38 49zM569 108q-14 0 -28.5 -11t-14.5 -28q0 -22 6 -28t26 -5q40 0 41 32q-2 40 -30 40z" />
    <glyph glyph-name="uni2160" unicode="&#x2160;" horiz-adv-x="805" 
d="M434 675q-12 -133 -12 -316t12 -225q3 -25 -6 -37.5t-23 -12.5t-25 11t-12 30q-14 64 -19 237q-2 185 12 317q0 19 11.5 31t26.5 13q16 1 26.5 -11t8.5 -37z" />
    <glyph glyph-name="uni2161" unicode="&#x2161;" horiz-adv-x="805" 
d="M307 675q-12 -133 -12 -316t12 -225q3 -25 -6 -37.5t-23 -12.5t-25 11t-12 30q-14 64 -19 237q-2 185 12 317q0 19 11.5 31t26.5 13q16 1 26.5 -11t8.5 -37zM596 675q-12 -134 -12 -316q0 -183 12 -225q3 -25 -6 -37.5t-23 -12.5t-25 11t-12 30q-14 64 -19 237
q-2 185 12 317q0 19 11.5 31t27.5 13q15 1 25.5 -11t8.5 -37z" />
    <glyph glyph-name="uni2162" unicode="&#x2162;" horiz-adv-x="805" 
d="M275 675q-11 -140 -11 -316q0 -181 11 -225q3 -25 -5.5 -37.5t-22.5 -12.5t-25 10.5t-12 30.5q-15 69 -20 237q-2 187 13 317q0 19 11.5 31t26.5 13q16 1 26 -11t8 -37zM430 675q-12 -133 -12 -316t12 -225q3 -25 -6 -37.5t-23 -12.5t-25 11t-12 30q-14 64 -19 237
q-2 185 12 317q0 19 11.5 31t27.5 13q15 1 25.5 -11t8.5 -37zM596 675q-12 -134 -12 -316q0 -183 12 -225q3 -25 -6 -37.5t-23 -12.5t-25 11t-12 30q-14 64 -19 237q-2 185 12 317q0 19 11.5 31t27.5 13q15 1 25.5 -11t8.5 -37z" />
    <glyph glyph-name="uni2163" unicode="&#x2163;" horiz-adv-x="805" 
d="M320 668q-1 19 10 30t25 11q16 0 27.5 -8.5t12.5 -25.5q0 -129 21 -256q22 -153 61 -222q12 -24 23 -30.5t22 0.5t26 28q45 127 61 282q5 50 9.5 120t5.5 83q0 17 9.5 26t22.5 9q32 0 37 -32q-2 -155 -25 -302q-35 -199 -85 -259q-74 -95 -147 0q-62 78 -90 259
q-26 142 -26 287zM229 675q-12 -133 -12 -316t12 -225q2 -25 -7 -37.5t-23 -12.5t-25.5 10.5t-12.5 30.5q-14 64 -19 237q-2 185 12 317q0 19 12 31t27 13q37 2 36 -48z" />
    <glyph glyph-name="uni2164" unicode="&#x2164;" horiz-adv-x="805" 
d="M184 668q-1 19 9.5 30t25.5 11t26.5 -8.5t12.5 -25.5q0 -109 21 -256q22 -153 61 -222q19 -34 34 -33.5t37 31.5q40 106 62 282q4 49 8 118t6 85q0 17 9.5 26t23.5 9q13 0 24 -8.5t13 -23.5q-2 -148 -26 -302q-30 -195 -85 -259q-74 -95 -147 0q-60 77 -90 259
q-25 137 -25 287z" />
    <glyph glyph-name="uni2165" unicode="&#x2165;" horiz-adv-x="805" 
d="M115 668q-1 19 10 30t25 11q16 0 27 -8.5t12 -25.5q0 -123 22 -256q22 -148 60 -222q12 -24 23.5 -30.5t22.5 0.5t26 28q40 112 61 282q5 50 9.5 120t5.5 83q0 17 9 26t23 9q32 0 37 -32q-2 -155 -25 -302q-35 -199 -85 -259q-74 -95 -148 0q-61 78 -89 259
q-26 142 -26 287zM646 675q-11 -140 -11 -316q0 -181 11 -225q3 -25 -6 -37.5t-23 -12.5t-25.5 10.5t-12.5 30.5q-14 64 -19 237q-2 195 12 317q0 19 12 31t27 13q17 1 27 -11t8 -37z" />
    <glyph glyph-name="uni2166" unicode="&#x2166;" horiz-adv-x="805" 
d="M37 668q-1 19 10 30t25 11q16 0 27 -8.5t12 -25.5q0 -123 22 -256q22 -148 60 -222q12 -24 23.5 -30.5t22.5 0.5t26 28q40 112 61 282q5 50 9.5 120t5.5 83q0 17 9 26t23 9q32 0 37 -32q-2 -145 -25 -302q-35 -199 -85 -259q-75 -96 -148 0q-61 78 -89 259
q-26 142 -26 287zM568 675q-11 -140 -11 -316q0 -181 11 -225q3 -25 -6 -37.5t-23 -12.5q-15 0 -26 10.5t-12 30.5q-15 69 -20 237q-2 187 13 317q0 19 12 31t27 13q17 1 27 -11t8 -37zM742 675q-12 -134 -12 -316q0 -183 12 -225q3 -25 -6 -37.5t-23 -12.5q-15 0 -26 10.5
t-12 30.5q-15 69 -20 237q-2 187 13 317q0 19 11.5 31t27.5 13q17 1 27 -11t8 -37z" />
    <glyph glyph-name="uni2167" unicode="&#x2167;" horiz-adv-x="805" 
d="M18 668q-1 19 9.5 30t25.5 11t26.5 -8.5t12.5 -25.5q0 -135 12 -256q14 -152 50 -222q12 -24 23.5 -30.5t22.5 0.5t26 28q41 91 50 265q3 48 3.5 124t2.5 96q0 17 9.5 26t22.5 9q14 0 25 -8.5t13 -23.5l-3 -141q-1 -78 -11 -166q-9 -82 -27 -153q-17 -68 -50 -101
q-75 -96 -148 0q-57 73 -80 259q-15 104 -15 287zM480 675q-11 -140 -11 -316q0 -181 11 -225q3 -25 -5.5 -37.5t-22.5 -12.5t-25 10.5t-12 30.5q-17 81 -19 237q-2 195 12 317q0 19 11.5 31t26.5 13q16 1 26 -11t8 -37zM615 675q-11 -122 -11 -316q0 -187 11 -225
q3 -25 -5.5 -37.5t-22.5 -12.5t-25 10.5t-12 30.5q-15 69 -20 237q-2 187 13 317q0 19 11 31t27 13t26 -11t8 -37zM762 675q-12 -134 -12 -316q0 -183 12 -225q3 -25 -6 -37.5t-23 -12.5t-25 11t-12 30q-14 64 -19 237q-2 185 12 317q0 19 11.5 31t27.5 13q15 1 25.5 -11
t8.5 -37z" />
    <glyph glyph-name="uni2168" unicode="&#x2168;" horiz-adv-x="805" 
d="M643 726q5 12 19.5 15.5t26.5 -2.5q35 -13 22 -46q-43 -92 -87 -164l-91 -145q95 -122 223 -256q12 -12 11 -24.5t-12 -22.5q-30 -26 -52 -5q-149 166 -210 245q-34 -55 -90 -130l-94 -129q-9 -12 -23.5 -13t-26.5 8q-31 22 -9 48l103 140q64 90 93 137q-3 4 -108 133
q-65 78 -111 153q-21 34 10 51q30 15 48 -9q48 -78 99 -140l31 -36.5l37 -44.5l33 -42q7 12 36.5 58.5t43.5 72.5q33 50 78 148zM160 703q-6 -25 -12 -133q-2 -38 -2 -191q0 -112 4 -180q5 -88 10 -104q3 -25 -6 -38t-23 -13q-15 0 -26 11t-12 30q-15 70 -20 271
q-2 218 13 351q0 18 11.5 30.5t27.5 13.5q17 0 27 -12t8 -36z" />
    <glyph glyph-name="uni2169" unicode="&#x2169;" horiz-adv-x="805" 
d="M564 726q6 12 20.5 15.5t26.5 -2.5q35 -13 22 -46q-37 -80 -87 -164l-91 -145q95 -122 223 -256q11 -12 10 -24.5t-11 -22.5q-30 -26 -52 -5q-139 153 -210 245q-34 -55 -90 -130l-95 -129q-8 -12 -23 -13t-26 8q-31 22 -9 48l102 140q60 81 94 137q-3 4 -108 133
q-60 70 -112 153q-19 36 11 51t48 -9q39 -67 99 -140l31 -36.5l37 -44.5l33 -42q7 12 36.5 58.5t43.5 72.5q35 53 77 148z" />
    <glyph glyph-name="uni2170" unicode="&#x2170;" horiz-adv-x="805" 
d="M461 511q-26 -287 0 -377q3 -24 -6 -37t-23 -13q-15 0 -26 10.5t-12 30.5q-16 74 -20 155q-2 106 13 235q0 19 11.5 31t27.5 13t26.5 -11t8.5 -37z" />
    <glyph glyph-name="uni2171" unicode="&#x2171;" horiz-adv-x="805" 
d="M559 511q-26 -287 0 -377q3 -24 -6.5 -37t-23.5 -13t-25.5 10.5t-12.5 30.5q-15 67 -19 155q-2 104 12 235q0 19 12 31t27 13q17 1 27.5 -11t8.5 -37zM324 511q-11 -140 -11 -235q0 -98 11 -142q3 -25 -6 -37.5t-23 -12.5q-15 0 -26 10.5t-12 30.5q-16 74 -20 155
q-2 106 13 235q0 19 11.5 31t27.5 13q17 1 27 -11t8 -37z" />
    <glyph glyph-name="uni2172" unicode="&#x2172;" horiz-adv-x="805" 
d="M441 511q-11 -140 -11 -235q0 -98 11 -142q3 -25 -6 -37.5t-23 -12.5q-15 0 -26 10.5t-12 30.5q-16 74 -20 155q0 121 13 235q0 19 12 31t27 13q17 1 27 -11t8 -37zM236 511q-11 -140 -11 -235q0 -98 11 -142q3 -25 -6 -37.5t-23 -12.5q-15 0 -26 10.5t-12 30.5
q-16 74 -20 155q-2 106 13 235q0 19 12 31t27 13q17 1 27 -11t8 -37zM645 511q-26 -287 0 -377q2 -25 -7 -37.5t-23 -12.5t-25.5 10.5t-12.5 30.5q-15 67 -19 155q-2 104 12 235q0 19 12 31t27 13q37 2 36 -48z" />
    <glyph glyph-name="uni2173" unicode="&#x2173;" horiz-adv-x="805" 
d="M217 511q-26 -287 0 -377q3 -24 -6 -37t-23 -13q-16 0 -27 10.5t-12 30.5q-16 89 -19 155q-2 106 13 235q0 19 11.5 31t27.5 13t26.5 -11t8.5 -37zM295 521q-1 40 35 42q15 0 26.5 -9t12.5 -25q-1 -91 32 -198q31 -103 59 -134q33 -64 78 -2q39 58 66 171q19 94 26 168
q0 16 9 25.5t23 9.5q13 0 24 -9t13 -23q-1 -109 -46 -246q-40 -128 -80 -169q-74 -95 -147 0q-49 49 -87 168q-44 119 -44 231z" />
    <glyph glyph-name="uni2174" unicode="&#x2174;" horiz-adv-x="805" 
d="M207 521q-1 19 10 30t25 12q15 0 26.5 -9t12.5 -25q-1 -91 32 -198q31 -103 59 -134q33 -64 78 -2q39 58 66 171q19 94 26 168q0 16 9.5 25.5t22.5 9.5t24 -9t13 -23q-1 -109 -46 -246q-40 -128 -80 -169q-74 -95 -147 0q-46 46 -87 168q-44 119 -44 231z" />
    <glyph glyph-name="uni2175" unicode="&#x2175;" horiz-adv-x="805" 
d="M90 521q-1 40 35 42q15 0 26.5 -9t12.5 -25q-1 -91 32 -198q31 -103 59 -134q33 -65 78 -2q43 67 65 171q19 80 27 168q0 16 9.5 25.5t22.5 9.5t24 -9t13 -23q-1 -109 -46 -246q-40 -128 -80 -169q-74 -95 -147 0q-49 49 -87 168q-44 119 -44 231zM654 511
q-11 -140 -11 -235q0 -98 11 -142q3 -25 -6 -37.5t-23 -12.5q-15 0 -26 10.5t-12 30.5q-16 74 -20 155q-2 106 13 235q0 19 11.5 31t27.5 13q17 1 27 -11t8 -37z" />
    <glyph glyph-name="uni2176" unicode="&#x2176;" horiz-adv-x="805" 
d="M37 521q-1 19 10 30t25 12q15 0 26.5 -9t12.5 -25q-2 -97 25 -198q21 -100 51 -134q32 -64 78 -2q37 74 55 177q11 57 21 162q0 16 9.5 25.5t22.5 9.5t24 -9t13 -23q-1 -112 -38 -246q-39 -133 -72 -169q-75 -96 -148 0q-45 47 -79 168q-36 125 -36 231zM539 511
q-26 -287 0 -377q3 -24 -6 -37t-23 -13q-15 0 -26 10.5t-12 30.5q-16 74 -20 155q-2 106 13 235q0 19 11.5 31t27.5 13q17 1 27 -11t8 -37zM742 511q-26 -287 0 -377q3 -25 -6 -37.5t-23 -12.5q-15 0 -26 10.5t-12 30.5q-16 74 -20 155q-2 106 13 235q0 19 11.5 31t27.5 13
q17 1 27 -11t8 -37z" />
    <glyph glyph-name="uni2177" unicode="&#x2177;" horiz-adv-x="805" 
d="M18 521q-1 40 35 42q14 0 26 -9t13 -25q-1 -94 19 -198q22 -105 46 -134q33 -64 78 -2q31 81 44 186q5 35 8.5 90.5t4.5 62.5q0 16 9.5 25.5t22.5 9.5t24 -9t13 -23q-2 -119 -28 -246q-29 -133 -62 -169q-76 -94 -148 0q-43 44 -74 168q-31 113 -31 231zM490 511
q-11 -140 -11 -235q0 -98 11 -142q3 -25 -6 -37.5t-23 -12.5q-15 0 -26 10.5t-12 30.5q-16 74 -20 155q-2 106 13 235q0 19 11.5 31t27.5 13q17 1 27 -11t8 -37zM635 511q-26 -287 0 -377q3 -24 -6.5 -37t-23.5 -13t-25.5 10.5t-12.5 30.5q-16 89 -19 155q-2 106 13 235
q0 19 11.5 31t27.5 13t26.5 -11t8.5 -37zM770 511q-26 -287 0 -377q2 -25 -7 -37.5t-23 -12.5t-25.5 10.5t-12.5 30.5q-15 67 -19 155q-2 104 12 235q0 19 12 31t27 13q37 2 36 -48z" />
    <glyph glyph-name="uni2178" unicode="&#x2178;" horiz-adv-x="805" 
d="M362 544q45 -76 133 -174q77 101 133 183q28 37 58 16q30 -19 13 -51l-155 -205q89 -86 173 -159q24 -28 1 -56q-23 -26 -50 -5q-91 77 -172 161l-148 -178q-18 -11 -46 7q-28 19 -15 45q69 73 160 182q-84 93 -150 189q-23 41 2 62t63 -17zM203 511q-26 -287 0 -377
q3 -25 -6 -37.5t-23 -12.5q-15 0 -26 10.5t-12 30.5q-16 74 -20 155q-2 106 13 235q0 19 11.5 31t27.5 13q17 1 27 -11t8 -37z" />
    <glyph glyph-name="uni2179" unicode="&#x2179;" horiz-adv-x="805" 
d="M265 544q47 -80 132 -174q65 83 133 183q29 38 58 16q30 -20 14 -51l-156 -205q89 -86 173 -159q25 -28 2 -56q-23 -26 -51 -5q-91 77 -172 161l-148 -178q-18 -11 -46 7q-27 19 -15 45q77 82 161 182q-82 91 -151 189q-23 41 3 62q25 21 63 -17z" />
    <glyph glyph-name="arrowleft" unicode="&#x2190;" horiz-adv-x="805" 
d="M220 337q-8 5 -30.5 22t-33.5 24q-7 5 -25 19t-25 20q-9 6 -9 16t11 16q10 8 29 24.5t29 24.5q7 6 26 23.5t29 24.5q6 7 16 5t12 -13q0 -26 1 -41q0 -28 1 -36q56 -1 215 -1q102 0 212 2q12 0 19 -10.5t7 -23.5q0 -15 -7.5 -24.5t-20.5 -9.5q-128 -2 -208 -2
q-145 0 -211 1l3 -21q3 -16 4 -23q3 -21 -10.5 -27.5t-33.5 10.5z" />
    <glyph glyph-name="arrowup" unicode="&#x2191;" horiz-adv-x="805" 
d="M307 622q15 26 44 67l34 55q7 7 17 7.5t16 -9.5l50 -65q19 -25 53 -66q7 -6 5.5 -17t-11.5 -11h-82q2 -40 2 -218q-2 -158 -2 -207q0 -11 -10.5 -17.5t-24.5 -6.5q-13 0 -23.5 7.5t-9.5 21.5q0 61 2 207q1 72 1 211h-50q-22 0 -23.5 10.5t12.5 30.5z" />
    <glyph glyph-name="arrowright" unicode="&#x2192;" horiz-adv-x="805" 
d="M582 494l21 -16.5l23.5 -17.5l19.5 -14q7 -6 25 -18.5t25 -19.5q9 -6 9 -16t-11 -16l-60 -49q-9 -7 -27 -23.5t-27 -23.5q-7 -7 -17.5 -5.5t-10.5 13.5q-1 20 -1 77q-56 -3 -215 -3q-119 0 -212 7q-24 0 -24 34t26 34q107 -7 206 -7q148 0 213 3l-3 20q-3 21 -3 24
q-1 21 7 27t36 -10z" />
    <glyph glyph-name="arrowdown" unicode="&#x2193;" horiz-adv-x="805" 
d="M509 230q-3 -4 -19.5 -30t-25.5 -38q-28 -45 -32 -54q-8 -8 -18.5 -9t-15.5 9q-17 19 -50 64l-53 66q-9 5 -6.5 17t17.5 12h38q18 1 39 1q-5 74 -5 216q0 43 0.5 113t0.5 92q0 24 33 26q14 1 24 -5t10 -17q0 -31 -0.5 -102t-0.5 -109q-2 -132 2 -211q6 0 14.5 -0.5
t12.5 -0.5q5 0 23 2q22 0 25 -7.5t-13 -34.5z" />
    <glyph glyph-name="arrowboth" unicode="&#x2194;" horiz-adv-x="805" 
d="M174 323q-24 16 -64 46q-32 22 -49 39q-10 6 -10 15.5t12 15.5q17 16 57 50l55 48q6 7 16 5t12 -13v-39q0 -29 1 -38q152 0 220 1q86 0 168 2l-3 19q-3 21 -3 25q-5 27 9.5 29t33.5 -13q13 -11 34.5 -27l28.5 -21q19 -12 51 -38q9 -6 9 -15.5t-11 -15.5l-60 -50
q-9 -7 -27 -23.5t-27 -23.5q-7 -7 -17.5 -5.5t-10.5 13.5q-1 21 -1 77q-47 -3 -189 -3q-116 -2 -198 0q0 -4 0.5 -7t1.5 -7t1 -6l4 -24q6 -23 -10 -27.5t-34 11.5z" />
    <glyph glyph-name="arrowupdn" unicode="&#x2195;" horiz-adv-x="805" 
d="M324 274h38q-2 39 -2 41v22q0 2 0.5 28t0.5 54q0 9 2 225q-23 0 -32 -1q-17 -2 -26 -6q-10 -22 -27 -20q-14 5 -7 21q-15 0 -21.5 7.5t0 17t23.5 13.5q7 0 14 -0.5t13 -0.5l45 70q29 45 34 54q18 16 25 -1l25.5 -33l24.5 -32q46 -58 55 -66q6 -5 4 -13t-13 -8h-82
q0 -1 2 -145q0 -19 3 -223h11.5h11h8.5q15 2 27 7q7 22 26 20q16 -6 8 -20q23 0 23 -17t-25 -21h-27q-8 -14 -24 -37.5t-21 -32.5l-33 -54q-7 -7 -14 -7.5t-11 7.5q-2 2 -51 64l-54 66q-7 4 -5 12.5t13 8.5h38z" />
    <glyph glyph-name="uni2196" unicode="&#x2196;" horiz-adv-x="805" 
d="M570 222l-153 141l-160 143q-25 -25 -33 -47q11 -24 -3 -33q-14 -10 -20 8q-10 -11 -20 -10.5t-12 10.5t5 26l17 20q-14 56 -21 79q-3 15 -18 63q1 9 5.5 15.5t12.5 3.5q13 -2 41.5 -4t40.5 -3q48 -5 86 -5q7 0 11 -5.5t-1 -13.5q-3 -3 -13 -14t-16 -17l-27 -30
q6 -5 166 -146l151 -138q15 -15 -3 -37q-18 -24 -36 -6z" />
    <glyph glyph-name="uni2197" unicode="&#x2197;" horiz-adv-x="805" 
d="M175 276l163 127q99 76 168 135q-11 9 -21 24q-12 12 -21 19q-25 -9 -32 6q-3 5 0 11t11 8q-16 20 0 28q13 7 32 -7l15 -20q13 1 41 3t41 4q51 6 65 9q21 -7 15 -20q-5 -24 -19 -80q-13 -49 -19 -82q0 -10 -7 -13t-14 6q-3 2 -7 6.5t-10 12t-10 11.5q-4 6 -13 18l-12 16
q-49 -47 -170 -142l-160 -126q-17 -16 -37 8q-17 23 1 38z" />
    <glyph glyph-name="uni2198" unicode="&#x2198;" horiz-adv-x="805" 
d="M214 629l142 -151q104 -110 150 -154l21 21q14 20 16 24q-12 23 4 32q14 8 20 -10q12 11 21 9.5t10 -12t-6 -26.5q-6 -5 -19 -18l14 -81q9 -45 15 -62q-1 -10 -6 -15.5t-13 -2.5q-13 2 -41 6t-41 6q-55 10 -83 13q-9 -2 -13 4t4 14q23 23 29 28l30 30q-59 54 -155 157
l-141 148q-16 16 5 37q21 17 37 3z" />
    <glyph glyph-name="uni2199" unicode="&#x2199;" horiz-adv-x="805" 
d="M617 609l-150 -144l-50.5 -49l-57.5 -55.5l-45 -45.5q24 -25 46 -38q24 10 32 -4q4 -5 1.5 -11t-10.5 -8q17 -16 4 -29q-11 -11 -33 4l-18 19q-33 -8 -81 -16q-27 -5 -63 -14q-9 0 -14.5 5t-2.5 13l12 82l10 84q-2 7 5 11.5t16 -1.5q7 -11 28 -31l11 -10.5t11 -11t6 -6.5
l157 155l147 142q16 14 35 -5q20 -20 4 -36z" />
    <glyph glyph-name="arrowdblright" unicode="&#x21d2;" horiz-adv-x="805" 
d="M113 489q39 -4 167 -4l223 -4l-40 57q-21 28 -27 42q-3 5 1.5 14t13.5 15q23 15 35 1q21 -28 64 -95l65 -104q15 -32 0 -59l-67 -89q-42 -52 -69 -79q-12 -15 -35 -2q-20 15 -10 31q7 12 23 30q17 19 28 38q-72 -8 -205 -10q-126 0 -159 3q-20 1 -20 27t22 26
q93 -5 189 -4q118 2 214 17l31 48l-31 46q-50 0 -91 1q-40 1 -125 1q-176 2 -201 2q-23 2 -23 26q0 10 7.5 17.5t19.5 7.5z" />
    <glyph glyph-name="arrowdblboth" unicode="&#x21d4;" horiz-adv-x="805" 
d="M189 520q68 -1 242 -1q86 0 191 -3l-38 60q-18 24 -26 43q-6 14 16 29q24 16 35 -1q11 -15 61 -98q31 -50 60 -104q15 -32 -1 -60q-9 -10 -33 -39.5l-38 -46.5q-42 -51 -72 -75q-14 -17 -33 -2q-22 16 -10 32q5 8 24 29q25 28 31 36q-38 0 -118.5 2t-108.5 2
q-143 6 -196 10q3 -6 38 -61q6 -9 14 -23.5t11 -18.5q5 -15 -16 -30q-23 -13 -34 3q-13 17 -61 95l-61 107q-9 27 2 58l70 85q39 50 73 78q14 13 34 0q22 -14 11 -31q-40 -48 -67 -75zM125 424l29 -45q61 -3 229 -3q176 0 256 1l33 46l-28 47q-58 -1 -241 1q-147 2 -245 0z
" />
    <glyph glyph-name="universal" unicode="&#x2200;" horiz-adv-x="805" 
d="M334 382q16 -52 21 -72l29 -89l41 99q7 14 16 37t10 27q-92 0 -117 -2zM418 149q-17 -36 -47 -27q-27 8 -40 46q-68 203 -98 310q-20 72 -39 165q-2 14 7.5 22.5t23.5 9.5q12 2 24.5 -4t17.5 -18q9 -56 16 -87q18 -72 34 -128q65 5 155 -1q3 8 9.5 29.5t12.5 36.5
q9 32 46 139q16 37 45 24q13 -6 18.5 -20t0.5 -32q-4 -18 -34 -96l-57 -150l-59 -144q-26 -61 -36 -75z" />
    <glyph glyph-name="partialdiff" unicode="&#x2202;" horiz-adv-x="805" 
d="M492 416q-128 -29 -152 -46q-30 -19 -24 -69q7 -63 57 -83q47 -14 104 27q25 16 25 75q0 26 -10 96zM547 515q53 -213 2 -292q-24 -37 -63 -51t-81 -24q-82 -17 -127 55q-39 65 -26 148q9 55 61 83q49 27 168 53q-11 44 -16 56q-5 13 -16 37q-24 44 -123 44
q-19 0 -30.5 9t-12.5 22t7.5 22t23.5 10q106 4 156 -30q48 -37 77 -142z" />
    <glyph glyph-name="existential" unicode="&#x2203;" horiz-adv-x="805" 
d="M554 165q-60 -7 -207 3q-108 8 -166 22q-20 5 -14 33q2 11 9.5 19t15.5 7q64 -10 158 -17q101 -9 145 -9q1 46 8 150q-157 2 -253 12q-9 0 -13.5 10t-2.5 22q1 12 7.5 21t17.5 8q57 -7 127 -12q68 -5 119 -3v102q0 25 -18 30q-39 9 -129 7q-26 -1 -68 -4t-54 -3
q-11 0 -18 9t-8 21q-2 13 5 23t21 11q105 4 195 2q64 -5 105 -9q24 -6 29 -18q4 -8 4 -28q0 -8 0.5 -41t0.5 -56q0 -44 -2 -132q-1 -25 -3 -66.5t-2 -54.5q-5 -55 -9 -59z" />
    <glyph glyph-name="gradient" unicode="&#x2207;" horiz-adv-x="805" 
d="M669 618q-11 -20 -17 -40q8 0 23 -1t21 -1q16 -4 14 -30q-6 -25 -29 -24q-8 0 -27 1.5t-28 1.5l-161 -341q-23 -47 -63 -7q-23 21 -91 133q-124 189 -163 244q-11 17 0.5 30t32.5 12q67 0 405 -12q9 22 35 68q12 16 35 3q25 -14 13 -37zM562 529q-26 0 -85 2l-89 3
q-26 1 -78.5 2.5t-73.5 3.5q7 -17 88 -141q82 -125 105 -156q22 41 60 127z" />
    <glyph glyph-name="element" unicode="&#x2208;" horiz-adv-x="805" 
d="M656 565q22 -15 17 -44q-6 -30 -36 -20q-224 55 -331 35q-93 -21 -93 -111q139 -12 164 -13q109 -5 239 7q30 1 37 -27q6 -32 -32 -39q-75 -15 -211 -10q-45 2 -201 14q0 -66 77 -97q105 -37 328 -14q10 1 19 -8t11 -21q6 -31 -25 -36q-135 -13 -230.5 -10.5t-149.5 25.5
q-56 23 -80 70.5t-24 129.5q0 138 95 189q129 68 426 -20z" />
    <glyph glyph-name="suchthat" unicode="&#x220b;" horiz-adv-x="805" 
d="M162 565q294 88 424 20q98 -52 98 -189q0 -82 -25 -129.5t-82 -70.5q-53 -23 -149 -25.5t-229 10.5q-33 6 -25 36q2 13 10 21.5t19 7.5q223 -23 328 14q78 31 78 97q-167 -13 -202 -14q-137 -5 -210 10q-20 4 -28 15t-6 24q2 12 12.5 20t25.5 7q131 -12 238 -7
q16 1 166 13q0 90 -93 111q-110 20 -330 -35q-35 -10 -37 20q-6 30 17 44z" />
    <glyph glyph-name="product" unicode="&#x220f;" horiz-adv-x="805" 
d="M660 652q9 0 15.5 -10.5t7.5 -22.5q1 -14 -6 -24t-21 -10q-11 0 -35 1t-36 1q0 -28 0.5 -66.5t1.5 -88.5t1 -78v-177q0 -14 -10.5 -24t-24.5 -11q-14 -2 -24.5 7t-10.5 28q0 3 0.5 63.5t0.5 108.5q0 43 -0.5 126t-0.5 113q-35 0 -111 -0.5t-115 -0.5q1 -43 1 -197
q0 -44 -1 -107t-1 -73q0 -15 -10 -24.5t-25 -10.5q-14 -2 -24.5 7t-10.5 28q0 11 1.5 70l2.5 100q0 42 0.5 113t0.5 92q-14 0 -40.5 -0.5t-39.5 -0.5q-12 0 -18.5 10t-6.5 24q0 12 7 22.5t18 13.5q13 0 57.5 1t73.5 1q159 3 167 3q107 0 146 -1q63 -2 70 -6z" />
    <glyph glyph-name="summation" unicode="&#x2211;" horiz-adv-x="805" 
d="M549 623q27 -6 27 -39q-1 -14 -9 -23.5t-22 -8.5q-64 4 -162 4h-131l73 -85l93 -100q28 -28 2 -47l-105 -75l-92 -66q88 -2 182 3q122 7 210 26q27 6 34 -24q6 -32 -18 -40q-80 -28 -259 -30q-81 -2 -138 1q-64 4 -91 9q-25 6 -33.5 19t7.5 28q50 46 112 88l117 84
q-23 27 -117 123q-63 66 -86 114q-7 12 1 27t28 17q74 -2 162 -2q140 0 215 -3z" />
    <glyph glyph-name="radical" unicode="&#x221a;" horiz-adv-x="805" 
d="M136 517q22 -46 51 -114q30 -71 42 -91q1 10 28 163l14.5 87l15.5 91q0 17 11 31.5t28 12.5q43 -8 177 -6q134 6 170 6q12 0 18.5 -9.5t6.5 -21.5q0 -32 -20 -34q-20 0 -217 -4q-72 -5 -106 4q-19 -118 -34 -194q-17 -97 -42 -205q-8 -24 -35 -29q-26 -5 -45 20
q-22 33 -60 119q-42 97 -67 138q-8 16 -3 29.5t18 20.5q33 15 49 -14z" />
    <glyph glyph-name="proportional" unicode="&#x221d;" horiz-adv-x="805" 
d="M606 548q18 18 46 -7q11 -10 13.5 -23t-6.5 -23q-59 -60 -118 -110l106 -92q9 -9 9 -23t-7 -24q-7 -12 -17 -15t-23 7q-10 8 -32 27l-33 28l-28.5 24.5t-28.5 23.5q-107 -80 -173 -80q-106 0 -166 49q-43 40 -43 85q0 57 24 108q34 65 92 65q59 0 115 -28
q59 -32 146 -106q20 17 58 53q8 7 30 28t36 33zM427 391q-85 66 -113 80q-42 23 -84 23q-25 0 -40.5 -22t-15.5 -68q0 -28 26 -51q27 -21 105 -21q43 0 122 59z" />
    <glyph glyph-name="infinity" unicode="&#x221e;" horiz-adv-x="805" 
d="M131 420q0 -56 35 -84q47 -32 116 37l44 43q24 20 35 40q-24 37 -54 75q-33 35 -62 35q-49 0 -81.5 -40.5t-32.5 -105.5zM667 455q0 59 -38 84q-30 19 -93 19q-34 0 -65 -42q-27 -34 -36 -60q24 -55 48 -88q27 -38 65 -38q53 0 87 41q32 38 32 84zM719 455
q0 -85 -56 -138q-50 -50 -108 -50q-55 0 -94 41q-11 11 -21 25.5t-23 36.5t-20 32q-89 -96 -152 -124q-61 -27 -99 -12t-54 57q-16 41 -16 84q0 85 43 143q53 66 144 66q37 0 75 -34q10 -10 58 -73q25 38 61 74q35 36 76 36q186 0 186 -164z" />
    <glyph glyph-name="angle" unicode="&#x2220;" horiz-adv-x="805" 
d="M494 652q17 7 38 -17q9 -10 10 -21.5t-7 -18.5q-65 -41 -126 -91l-174 -139q43 -4 170 2q79 1 191 8q14 -3 22.5 -14t8.5 -24q0 -12 -10 -22t-27 -11q-31 0 -232 -3q-108 -5 -159 -1q-38 0 -45 29q-9 24 14 47q69 73 186 172q67 55 140 104z" />
    <glyph glyph-name="uni2225" unicode="&#x2225;" horiz-adv-x="805" 
d="M261 678q3 14 16 20t29 4q15 -2 26 -12t11 -24q-10 -181 -14 -314q-5 -189 8 -270q0 -31 -38 -37q-40 -2 -44 30q-5 36 -7 123q0 113 1 173l3 91.5t2 83.5l2.5 49.5l2.5 49t2 33.5zM440 682q3 14 16.5 20t28.5 4q37 -6 37 -37q-11 -227 -13 -313q-5 -189 8 -271
q0 -15 -11 -24.5t-27 -11.5q-40 -2 -44 30q-5 36 -7 123q0 113 1 173q1 32 3 91t2 84q1 23 2.5 69t3.5 63z" />
    <glyph glyph-name="logicaland" unicode="&#x2227;" horiz-adv-x="805" 
d="M154 220q8 31 82 176q77 148 118 244q16 29 47 34q31 4 54 -36l36 -71q14 -26 37 -81l134 -326q6 -23 0 -38.5t-18 -19.5q-12 -6 -25.5 -0.5t-18.5 19.5l-106 249l-86 196q-38 -67 -97 -191l-91 -190q-16 -27 -45 -14q-31 16 -21 49z" />
    <glyph glyph-name="logicalor" unicode="&#x2228;" horiz-adv-x="805" 
d="M154 556q-10 33 21 48q28 14 45 -13l91 -190q54 -115 97 -191q73 167 84 194l104 246q6 14 19 19t27 1q13 -3 19.5 -17t0.5 -36l-81 -202l-53 -125q-39 -89 -73 -152q-23 -41 -54 -37q-31 5 -47 35q-38 91 -118 243q-73 144 -82 177z" />
    <glyph glyph-name="intersection" unicode="&#x2229;" horiz-adv-x="805" 
d="M572 160q-6 -14 -21 -20t-30 -3q-16 3 -24 13t-2 23q48 224 -6 345q-19 44 -46 65t-46 21q-87 -6 -113 -84q-35 -105 39 -315q8 -14 0.5 -25t-21.5 -13q-38 -6 -53 33q-69 210 -32 340q38 132 177 139q27 1 71 -26q45 -27 80 -89q86 -152 27 -404z" />
    <glyph glyph-name="union" unicode="&#x222a;" horiz-adv-x="805" 
d="M572 644q60 -255 -27 -405q-35 -62 -80 -89q-43 -27 -71 -25q-139 4 -177 138q-37 129 32 341q15 38 53 32q14 -3 21.5 -13.5t-0.5 -23.5q-74 -213 -39 -317q27 -80 113 -82q18 -1 45.5 20t46.5 65q54 120 6 343q-6 14 2 24.5t24 13.5q38 6 51 -22z" />
    <glyph glyph-name="integral" unicode="&#x222b;" horiz-adv-x="805" 
d="M479 673q12 80 61 92t112 -39q17 -16 8 -44t-27 -16q-55 27 -58 27q-24 4 -28 -25q-57 -398 -125 -536q-34 -68 -78.5 -85.5t-99.5 10.5q-29 18 -20 48q9 29 40 17q77 -47 132 131q35 114 83 420z" />
    <glyph glyph-name="uni222C" unicode="&#x222c;" horiz-adv-x="805" 
d="M566 673q12 80 61.5 92t112.5 -39q17 -16 8 -44q-4 -12 -11.5 -16.5t-15.5 0.5q-55 27 -58 27q-24 4 -28 -25q-59 -403 -125 -536q-34 -68 -78.5 -85.5t-99.5 10.5q-30 17 -20 48q3 12 14 17.5t26 -0.5q41 -25 73.5 10.5t57.5 120.5q37 113 83 420zM322 683
q12 80 61.5 92t112.5 -39q17 -16 8 -44q-10 -29 -27 -17q-51 27 -58 28q-24 5 -28 -26q-60 -406 -125 -535q-35 -68 -79 -85.5t-99 10.5q-31 17 -21 48q4 12 14.5 17t25.5 -1q41 -24 74 12t58 120q36 111 83 420z" />
    <glyph glyph-name="uni222E" unicode="&#x222e;" horiz-adv-x="805" 
d="M449 683q12 85 66 116q52 32 116 -14q18 -17 8 -44q-10 -29 -28 -17q-34 27 -63 8q-25 -16 -30 -55q-2 -11 -5 -30l-4 -25l-8 -53q99 -31 99 -153q0 -79 -46 -127.5t-123 -48.5q-40 -132 -93 -170q-53 -36 -123 -2q-30 17 -21 47q4 12 15 17t25 0q76 -44 128 119
q-44 14 -68 48t-24 77q0 84 43 137q43 60 120 65q1 8 3 25.5t4 25.5q7 45 9 54zM489 499q-19 -116 -42 -200q42 5 65 34t23 77q0 70 -46 89zM379 305q21 76 41 200q-43 -7 -65 -47q-21 -40 -21 -87q0 -53 45 -66z" />
    <glyph glyph-name="therefore" unicode="&#x2234;" horiz-adv-x="805" 
d="M166 229q22 0 39 -17t17 -39t-17 -38.5t-39 -16.5q-23 0 -39.5 16.5t-16.5 38.5t16.5 39t39.5 17zM635 231q22 0 38.5 -17t16.5 -39t-16.5 -38.5t-38.5 -16.5q-24 0 -40 16.5t-16 38.5t16.5 39t39.5 17zM410 663q23 0 39.5 -17t16.5 -39q0 -23 -16.5 -39.5t-39.5 -16.5
t-39.5 16.5t-16.5 39.5q0 22 16.5 39t39.5 17z" />
    <glyph glyph-name="uni2235" unicode="&#x2235;" horiz-adv-x="805" 
d="M604 633q23 0 41 -18t18 -41q0 -24 -17.5 -42t-41.5 -18q-60 0 -60 39q0 26 17 52q19 28 43 28zM209 629q23 0 41.5 -18t18.5 -41q0 -24 -18 -42t-41 -18q-61 0 -61 39q0 26 17 52q21 28 43 28zM385 295q23 0 41 -18t18 -41q0 -24 -17.5 -42t-40.5 -18q-61 0 -61 39
q0 26 17 52q21 28 43 28z" />
    <glyph glyph-name="similar" unicode="&#x223c;" horiz-adv-x="805" 
d="M121 377q72 64 150 57q61 -5 115 -58q44 -54 89 -42q35 13 109 95q13 27 50 6q33 -25 18 -49q-72 -105 -156 -131q-75 -18 -120 23q-79 75 -123 75q-6 0 -12.5 -1.5t-13 -4.5l-11 -5t-12.5 -7.5t-11.5 -8.5t-13 -10l-13.5 -10q-25 -18 -48 15q-22 31 3 56z" />
    <glyph glyph-name="uni223D" unicode="&#x223d;" horiz-adv-x="805" 
d="M321 544q14 -3 18.5 -16t1.5 -27q-3 -15 -12 -23.5t-18 -3.5q-67 21 -108 -5q-40 -25 -35 -79q9 -35 36 -55.5t61 -22.5q74 -5 110 66q18 50 59 95.5t89 66.5q50 20 99 2q50 -17 86 -95q13 -31 3 -68t-38 -65q-30 -30 -73.5 -40.5t-105.5 5.5q-16 6 -23 17.5t-4 23.5
q6 29 31 23q64 -14 106 7t42 64q-4 35 -27.5 52.5t-56.5 11.5q-36 -7 -71.5 -40t-61.5 -93q-31 -60 -84 -84.5t-110 -14.5q-54 11 -92 49q-39 40 -39 103q0 92 73 134q68 38 144 12z" />
    <glyph glyph-name="uni2252" unicode="&#x2252;" horiz-adv-x="805" 
d="M182 494q176 49 276 49q67 0 157 -33q20 -11 12 -44q-4 -13 -12 -21t-14 -4q-7 2 -26.5 8t-26 7.5t-21.5 5.5t-23.5 5l-21 2.5t-25.5 1.5q-73 0 -259 -40q-11 -5 -19.5 1.5t-10.5 18.5q-8 30 14 43zM188 318q118 10 434 4q23 -6 25 -38q0 -33 -24 -34q-54 1 -115 2.5
t-95.5 2.5t-59.5 1q-49 0 -162 -5q-14 0 -21 10t-6 24q1 12 8 22.5t16 10.5zM525 195q19 0 30 -9.5t11 -25.5q0 -19 -11.5 -36t-28.5 -17q-44 0 -44 31q0 19 13.5 38t29.5 19zM256 671q41 0 41 -35q0 -18 -12 -35t-28 -17q-44 0 -44 31q0 19 13 37.5t30 18.5z" />
    <glyph glyph-name="notequal" unicode="&#x2260;" horiz-adv-x="805" 
d="M182 365q41 -10 156 -15q35 75 65 147q-145 0 -227 14q-35 6 -27 39q3 13 12.5 22.5t20.5 7.5q81 -19 248 -17q27 69 47 132q11 29 48 21q37 -7 30 -42l-11.5 -29.5l-10.5 -27.5l-10.5 -27.5l-9.5 -25.5q88 7 114 12q12 2 22 -6t13 -21q6 -30 -25 -42q-53 -9 -152 -9
q-15 -37 -35 -80q-9 -19 -31 -70q124 -2 208 13q12 2 22 -6t13 -21q2 -12 -4 -24t-21 -17q-103 -16 -251 -11q-21 -41 -36 -73q-16 -30 -34 -70q-27 -41 -56 -18q-12 8 -15.5 24.5t5.5 32.5t23 45l34 61q-97 7 -131 12q-35 6 -27 39q3 13 12.5 22.5t20.5 7.5z" />
    <glyph glyph-name="equivalence" unicode="&#x2261;" horiz-adv-x="805" 
d="M180 621q176 49 276 49q67 0 157 -33q20 -11 12 -44q-4 -13 -12 -21t-14 -4q-7 2 -26.5 8t-26 7.5t-21.5 5.5t-23.5 5l-21 2.5t-25.5 1.5q-73 0 -259 -40q-11 -5 -19.5 1.5t-10.5 18.5q-8 30 14 43zM188 244q118 10 434 4q23 -6 25 -39q0 -33 -24 -34q-164 6 -245 6
q-95 0 -187 -4q-14 0 -21 10t-6 23t8 23.5t16 10.5zM186 445q118 10 434 4q24 -6 26 -38q0 -14 -6.5 -24t-18.5 -11q-48 0 -93.5 0.5t-89.5 2t-63 1.5q-140 0 -186 -2q-14 0 -21 10t-6 24q1 12 8 22.5t16 10.5z" />
    <glyph glyph-name="lessequal" unicode="&#x2264;" horiz-adv-x="805" 
d="M490 652q43 11 58 -25q6 -12 0.5 -26.5t-19.5 -19.5q-79 -38 -141 -82q-28 -19 -113 -94q110 -16 137 -18q64 -6 137 3q14 3 23.5 -7t11.5 -26q1 -16 -6 -28t-21 -13q-268 0 -356 42q-15 7 -16 25t23 49q92 87 129 117q85 71 153 103zM191 259q87 -17 174 -22
q125 -9 221 7q12 2 22 -6t13 -21q6 -30 -25 -42q-89 -13 -234 -5q-95 7 -176 21q-35 6 -27 39q3 13 12.5 22t19.5 7z" />
    <glyph glyph-name="greaterequal" unicode="&#x2265;" horiz-adv-x="805" 
d="M309 652q68 -32 151 -103q42 -35 129 -117q24 -31 23.5 -49t-14.5 -25q-88 -42 -356 -42q-15 1 -23 13t-6 28q1 16 11 26t26 7q71 -9 137 -3q25 2 136 18q-76 68 -112 94q-56 40 -141 82q-15 5 -20 19.5t1 26.5q13 36 58 25zM607 259q10 2 19.5 -7t12.5 -22
q8 -33 -26 -39q-80 -14 -177 -21q-145 -8 -233 5q-34 12 -26 42q2 13 12 21t24 6q95 -16 221 -7q86 5 173 22z" />
    <glyph glyph-name="uni226A" unicode="&#x226a;" horiz-adv-x="805" 
d="M572 642q6 6 18 3t21 -12q12 -9 16 -21.5t-2 -22.5q-97 -100 -122 -129l-104 -113q68 -84 129 -143l27 -24l27.5 -24t21.5 -21q20 -19 0 -43q-7 -9 -17.5 -11.5t-20.5 4.5q-73 58 -87 73q-42 37 -125 142q-13 -13 -32 6q-16 20 -2 41q31 50 112 140zM211 491l141 155
q6 6 17.5 3t21.5 -12q26 -26 13 -44q-92 -94 -122 -129q-86 -92 -103 -113q72 -91 129 -143l37.5 -33t38.5 -36q20 -20 0 -43q-7 -10 -18 -12.5t-20 5.5q-70 55 -88 73q-39 34 -124 142q-15 -13 -32 6q-17 21 -2 41q22 37 111 140z" />
    <glyph glyph-name="uni226B" unicode="&#x226b;" horiz-adv-x="805" 
d="M207 634l140 -155q88 -102 112 -140q14 -20 -3 -41q-21 -16 -32 -5q-75 -96 -125 -143q-13 -13 -26.5 -24.5t-31 -24.5t-28.5 -23q-21 -17 -40 6q-22 26 0 43q12 13 37 34t39 35q50 45 129 143l-103 114q-23 26 -66 71l-55 58q-15 17 12 44q25 21 41 8zM428 638l139 -155
q83 -91 113 -140q14 -20 -3 -41q-21 -17 -32 -6q-75 -96 -125 -142q-13 -13 -26.5 -24.5t-31 -24.5t-28.5 -23q-12 -8 -22.5 -5.5t-17.5 11.5q-22 26 0 43q13 14 39 36.5l37 32.5q50 45 129 143l-103 114q-1 1 -121 128q-16 18 12 44q23 23 41 9z" />
    <glyph glyph-name="propersubset" unicode="&#x2282;" horiz-adv-x="805" 
d="M654 555q25 -14 15 -45t-39 -20q-219 61 -345 10q-46 -19 -69 -47t-23 -49q2 -83 81 -111q101 -41 313 23q12 4 22.5 -4.5t14.5 -22.5q8 -37 -27 -49q-225 -60 -350 -18q-126 44 -126 188q0 32 30 76q30 45 94 75q162 76 409 -6z" />
    <glyph glyph-name="propersuperset" unicode="&#x2283;" horiz-adv-x="805" 
d="M154 537q247 82 409 6q64 -31 94 -76q31 -43 31 -76q0 -144 -128 -187q-123 -43 -350 17q-34 11 -26 49q3 15 12.5 23t23.5 4q211 -64 313 -23q76 30 82 111q0 22 -23.5 49.5t-69.5 46.5q-126 51 -345 -10q-30 -12 -38 21q-4 12 0 25t15 20z" />
    <glyph glyph-name="reflexsubset" unicode="&#x2286;" horiz-adv-x="805" 
d="M654 624q11 -6 15 -20t0 -25q-9 -32 -39 -21q-219 61 -345 10q-46 -19 -69 -46.5t-23 -49.5q2 -83 81 -111q101 -41 313 23q12 4 22.5 -4t14.5 -23q8 -37 -27 -49q-228 -60 -350 -17q-126 42 -126 187q0 32 30 76q30 45 94 75q155 77 409 -5zM158 191q76 6 221 6
q52 0 155.5 -2t136.5 -2q23 -6 25 -37q0 -32 -24 -33q-121 4 -271 4q-101 0 -239 -2q-29 0 -27 33q1 12 7.5 22.5t15.5 10.5z" />
    <glyph glyph-name="reflexsuperset" unicode="&#x2287;" horiz-adv-x="805" 
d="M174 624q255 83 408 5q64 -30 94 -75q31 -43 31 -76q0 -145 -128 -187q-120 -43 -350 17q-34 11 -26 49q3 15 13.5 23t22.5 4q212 -64 314 -23q76 27 82 111q0 22 -23.5 49.5t-69.5 46.5q-128 51 -346 -10q-14 -6 -24.5 0.5t-13.5 20.5q-4 12 0.5 25.5t15.5 19.5z
M670 191q9 0 15 -10.5t7 -22.5q2 -33 -26 -33q-142 2 -240 2q-149 0 -270 -4q-12 1 -18.5 10.5t-6.5 22.5t6.5 23.5t17.5 13.5q36 0 138 2t154 2q147 0 223 -6z" />
    <glyph glyph-name="uni2299" unicode="&#x2299;" horiz-adv-x="805" 
d="M410 580q63 0 109 -48q42 -49 42 -113q0 -65 -47 -114q-51 -48 -114 -48q-67 0 -115 42q-48 45 -48 109q0 63 53 118q54 54 120 54zM405 776q149 0 249 -89q104 -91 104 -232q0 -147 -104 -264q-103 -118 -249 -118q-155 0 -252 79q-104 83 -104 224q0 150 104 272
q108 128 252 128zM398 710q-123 0 -207 -105q-78 -100 -78 -230q0 -124 78 -183q73 -56 207 -56q126 0 210 95q83 91 83 222q0 122 -83 191q-78 66 -210 66z" />
    <glyph glyph-name="perpendicular" unicode="&#x22a5;" horiz-adv-x="805" 
d="M426 202q-77 -5 -174 3q-79 5 -109 11q-35 6 -27 39q3 13 13 22.5t19 7.5q60 -12 205 -17q-11 181 -7 351q1 17 10 26.5t22 9.5q12 0 21.5 -9.5t12.5 -26.5q-2 -102 -2 -171q2 -94 6 -180q120 0 207 13q12 2 22 -6t13 -21q6 -30 -25 -42q-89 -12 -207 -10z" />
    <glyph glyph-name="uni2312" unicode="&#x2312;" horiz-adv-x="805" 
d="M176 688l53 49t48 33.5t58 22.5q96 18 215 -107q19 -22 -1 -43q-21 -23 -41 -9q-71 68 -115 81q-45 13 -78 0q-34 -15 -55 -41q-21 -25 -46 -40q-22 -13 -39 10q-16 23 1 44z" />
    <glyph glyph-name="uni2460" unicode="&#x2460;" horiz-adv-x="805" 
d="M266 537q32 15 70 42q25 16 65 53q15 12 33.5 1t20.5 -37q17 -206 -1 -410h32l38 3q12 3 19 -5.5t7 -20.5q-1 -13 -9.5 -23t-21.5 -10q-58 -3 -116 -1q-45 1 -111 11q-28 0 -28 31q2 28 33 27q45 -9 98 -10q13 233 0 362q-17 -16 -47 -34l-53 -27q-23 -16 -39 11
q-17 26 10 37zM405 759q164 0 273 -96q112 -99 112 -254q0 -79 -30 -154.5t-82 -133.5q-116 -129 -274 -129q-170 0 -274 86q-113 89 -113 244q0 165 113 299q121 138 275 138zM398 692q-133 0 -229 -116q-87 -110 -87 -256q0 -135 87 -202q79 -62 228 -62q141 0 234 106
q92 102 92 244q0 135 -93 213q-87 73 -232 73z" />
    <glyph glyph-name="uni2461" unicode="&#x2461;" horiz-adv-x="805" 
d="M285 257q97 25 152 64q75 49 75 128q0 56 -27 92t-80 36q-47 0 -68 -9q-32 -14 -65 -69q-16 -24 -40 -8q-21 18 -8 40q26 55 70.5 80t117.5 25q75 0 119 -57q43 -55 43 -130q0 -111 -96 -178q-68 -47 -156 -65q-17 -3 -16.5 -10t11.5 -4q38 -8 99 -8q60 0 103 8
q12 4 20 -3.5t9 -20.5q2 -12 -3.5 -22.5t-17.5 -10.5q-42 -9 -125 -9q-81 0 -122 9q-21 1 -31 17t-9 40q1 22 13 40.5t32 24.5zM405 759q164 0 273 -96q112 -99 112 -254q0 -79 -30 -154.5t-82 -133.5q-116 -129 -274 -129q-170 0 -274 86q-113 89 -113 244q0 165 113 299
q121 138 275 138zM398 692q-133 0 -229 -116q-87 -110 -87 -256q0 -135 87 -202q79 -62 228 -62q141 0 234 106q92 102 92 244q0 135 -93 213q-87 73 -232 73z" />
    <glyph glyph-name="uni2462" unicode="&#x2462;" horiz-adv-x="805" 
d="M405 759q164 0 273 -96q112 -99 112 -254q0 -79 -30 -154.5t-82 -133.5q-116 -129 -274 -129q-170 0 -274 86q-113 89 -113 244q0 165 113 299q121 138 275 138zM398 692q-133 0 -229 -116q-87 -110 -87 -256q0 -135 87 -202q79 -62 228 -62q141 0 234 106q92 102 92 244
q0 135 -93 213q-87 73 -232 73zM268 600q40 43 99.5 56t111.5 -7q55 -20 88.5 -67.5t28.5 -115.5q0 -52 -37 -94q-37 -39 -81 -45q35 -20 51 -58q24 -52 4 -107q-22 -61 -116 -71q-52 -7 -123 5q-28 1 -28 30q1 12 8.5 20.5t19.5 8.5q79 -10 120 -5q72 9 67 68q-4 40 -63 68
q-53 26 -105 24q-13 0 -20.5 9t-7.5 21t8 21.5t21 9.5q66 -4 123 6q96 24 96 93q-11 106 -92 121q-33 9 -69.5 0t-60.5 -30q-8 -11 -21 -12t-21 6q-24 18 -1 45z" />
    <glyph glyph-name="uni2463" unicode="&#x2463;" horiz-adv-x="805" 
d="M437 624q3 8 15 11.5t24 0.5q28 -6 28 -29q-11 -158 0 -297l69 6q11 2 18.5 -6.5t8.5 -20.5q2 -32 -25 -36l-37 -3q-33 -3 -34 -3q0 -20 2 -54q0 -2 7 -57q1 -11 -7.5 -18.5t-21.5 -9.5q-11 -1 -21.5 4.5t-11.5 17.5q-10 59 -10 115q-154 -16 -268 0q-12 0 -14 24t8 37
q81 71 150 158q60 76 120 160zM436 518q-50 -76 -187 -218q86 -5 191 7q-6 90 -4 211zM405 759q164 0 273 -96q112 -99 112 -254q0 -79 -30 -154.5t-82 -133.5q-116 -129 -274 -129q-170 0 -274 86q-113 89 -113 244q0 165 113 299q121 138 275 138zM398 692
q-133 0 -229 -116q-87 -110 -87 -256q0 -135 87 -202q79 -62 228 -62q141 0 234 106q92 102 92 244q0 135 -93 213q-87 73 -232 73z" />
    <glyph glyph-name="uni2464" unicode="&#x2464;" horiz-adv-x="805" 
d="M276 412q-18 5 -25 15t-8 31q-1 19 -1 30.5t1 42.5t1 55q-3 29 11.5 46.5t40.5 14.5q70 -7 113 -6q39 0 111 12q11 3 20.5 -5.5t11.5 -21.5q2 -12 -4 -23t-20 -14q-55 -8 -115 -10q-54 0 -103 5v-113q109 -9 154 -20q83 -21 105 -68q37 -82 18 -146q-19 -62 -69 -100
q-52 -37 -123 -43q-70 -6 -132 29q-12 3 -16.5 13t-0.5 22q3 12 12 18.5t21 2.5q56 -19 109 -17t90 24q83 53 34 171q-20 29 -87 40q-15 3 -149 15zM405 759q164 0 273 -96q112 -99 112 -254q0 -79 -30 -154.5t-82 -133.5q-116 -129 -274 -129q-170 0 -274 86
q-113 89 -113 244q0 165 113 299q121 138 275 138zM398 692q-133 0 -229 -116q-87 -110 -87 -256q0 -135 87 -202q79 -62 228 -62q141 0 234 106q92 102 92 244q0 135 -93 213q-87 73 -232 73z" />
    <glyph glyph-name="uni2465" unicode="&#x2465;" horiz-adv-x="805" 
d="M405 759q164 0 273 -96q112 -99 112 -254q0 -79 -30 -154.5t-82 -133.5q-116 -129 -274 -129q-170 0 -274 86q-113 89 -113 244q0 165 113 299q121 138 275 138zM398 692q-133 0 -229 -116q-87 -110 -87 -256q0 -135 87 -202q79 -62 228 -62q141 0 234 106q92 102 92 244
q0 135 -93 213q-87 73 -232 73zM348 630q-6 -38 -17 -90q-7 -30 -18 -94q95 23 174 -6q104 -42 105 -155q0 -106 -53 -147q-52 -40 -151 -40q-98 -1 -137 65q-33 53 -28 155q5 78 29 182q6 28 18 76.5l16 65.5q2 12 13 17t23 2q13 -2 21 -11t5 -20zM303 378q-24 -63 -8 -130
q16 -89 95 -90q83 0 113 30q27 27 27 94q-4 79 -78 101q-65 22 -149 -5z" />
    <glyph glyph-name="uni2466" unicode="&#x2466;" horiz-adv-x="805" 
d="M526 116q-10 -34 -40 -26q-11 2 -17.5 11t-1.5 20q21 94 35 213q14 139 5 220q-32 -3 -105 -3q-18 0 -58.5 -0.5t-60.5 -0.5l12 -211q1 -12 -7.5 -19.5t-21.5 -7.5t-23.5 7.5t-11.5 20.5l-12 217q-10 49 32 49q35 3 140 3q82 0 126 9q22 8 36 -2t15 -35q7 -95 -7 -252
q-12 -139 -35 -213zM405 759q164 0 273 -96q112 -99 112 -254q0 -79 -30 -154.5t-82 -133.5q-116 -129 -274 -129q-170 0 -274 86q-113 89 -113 244q0 165 113 299q121 138 275 138zM398 692q-133 0 -229 -116q-87 -110 -87 -256q0 -135 87 -202q79 -62 228 -62
q141 0 234 106q92 102 92 244q0 135 -93 213q-87 73 -232 73z" />
    <glyph glyph-name="uni2467" unicode="&#x2467;" horiz-adv-x="805" 
d="M425 404q38 16 61 46.5t23 53.5q0 41 -16 66q-31 45 -103 45q-99 0 -99 -104q0 -44 36 -75.5t98 -31.5zM421 328q-60 -15 -79 -30q-31 -23 -31 -74q-1 -42 29.5 -65.5t82.5 -23.5q48 3 75.5 29.5t27.5 68.5q0 40 -38 66q-26 21 -67 29zM571 503q0 -77 -87 -130
q37 -13 65 -42q36 -43 36 -94q0 -83 -58 -123q-41 -31 -104 -31q-68 -7 -118 32q-58 38 -57 104q0 49 14 80q20 46 67 63q-36 2 -64 41q-34 41 -34 107q0 77 42.5 120t115.5 43q95 0 142 -58q40 -46 40 -112zM405 759q164 0 273 -96q112 -99 112 -254q0 -79 -30 -154.5
t-82 -133.5q-116 -129 -274 -129q-170 0 -274 86q-113 89 -113 244q0 165 113 299q121 138 275 138zM398 692q-133 0 -229 -116q-87 -110 -87 -256q0 -135 87 -202q79 -62 228 -62q141 0 234 106q92 102 92 244q0 135 -93 213q-87 73 -232 73z" />
    <glyph glyph-name="uni2468" unicode="&#x2468;" horiz-adv-x="805" 
d="M405 759q164 0 273 -96q112 -99 112 -254q0 -79 -30 -154.5t-82 -133.5q-116 -129 -274 -129q-170 0 -274 86q-113 89 -113 244q0 165 113 299q121 138 275 138zM398 692q-133 0 -229 -116q-87 -110 -87 -256q0 -135 87 -202q79 -62 228 -62q141 0 234 106q92 102 92 244
q0 135 -93 213q-87 73 -232 73zM439 118q37 86 58 181q-16 -5 -59 -7q-59 -2 -97 6q-56 13 -90 48q-40 44 -39 117q0 106 52 146q53 41 152 41q101 0 142 -71q33 -62 26 -164q-6 -80 -38 -184q-22 -72 -46 -127q-5 -25 -37 -19q-13 3 -20.5 12.5t-3.5 20.5zM509 362
q12 83 6 130q-15 97 -102 98q-85 0 -113 -31q-27 -30 -27 -95q0 -55 32 -81q31 -24 73 -30q62 -9 131 9z" />
    <glyph glyph-name="uni2469" unicode="&#x2469;" horiz-adv-x="805" 
d="M680 377q0 -95 -50 -142q-41 -37 -117 -37q-74 0 -108 27q-47 40 -47 146q0 105 39 151t119 46q164 0 164 -191zM615 377q0 69 -24.5 101t-76.5 32q-40 -2 -61 -21q-31 -33 -31 -118q0 -65 19 -90.5t73 -25.5q48 0 71 23q30 30 30 99zM134 522q36 20 56 39q25 20 57 51
q15 12 33.5 0.5t20.5 -36.5q17 -208 -1 -410h32q22 2 38 2q12 3 19 -5t7 -21q-1 -13 -9.5 -22.5t-22.5 -9.5q-64 -3 -99 -2q-41 2 -93 9q76 -61 225 -61q141 0 234 106q92 102 92 244q0 135 -93 213q-87 73 -232 73q-83 0 -152 -46.5t-112 -123.5zM129 160q-4 15 41 13
q11 0 36 -2.5t34 -2.5q15 227 0 362q-33 -35 -62 -54q-43 -28 -65 3q-41 -73 -38.5 -161t54.5 -158zM405 759q164 0 273 -96q112 -99 112 -254q0 -79 -30 -154.5t-82 -133.5q-116 -129 -274 -129q-170 0 -274 86q-113 89 -113 244q0 165 113 299q121 138 275 138z" />
    <glyph glyph-name="uni246A" unicode="&#x246a;" horiz-adv-x="805" 
d="M134 522q36 20 56 39q25 20 57 51q15 12 33.5 0.5t20.5 -36.5q17 -208 -1 -410h32q22 2 38 2q12 3 19 -5t7 -21q-1 -13 -9.5 -22.5t-22.5 -9.5q-64 -3 -99 -2q-41 2 -93 9q83 -60 204 -65q122 -5 192 56q-43 0 -109 11q-28 0 -28 31q2 27 33 26q9 -1 22.5 -3.5t18.5 -3.5
q9 -1 40 -1q15 227 0 362q-29 -28 -88 -62q-23 -16 -39 11q-16 26 10 37q42 22 64 42l60 54q14 12 33 0.5t20 -36.5q17 -208 -1 -410q19 0 31 1q88 98 88 239q0 135 -93 213q-87 73 -232 73q-83 0 -152 -46.5t-112 -123.5zM129 160q0 21 42 16q11 0 35.5 -4t33.5 -4
q15 227 0 362q-30 -32 -64 -54q-44 -28 -63 3q-45 -73 -36 -181q12 -104 52 -138zM405 759q164 0 273 -96q112 -99 112 -254q0 -79 -30 -154.5t-82 -133.5q-116 -129 -274 -129q-170 0 -274 86q-113 89 -113 244q0 165 113 299q121 138 275 138z" />
    <glyph glyph-name="uni246B" unicode="&#x246b;" horiz-adv-x="805" 
d="M145 541q20 13 38 30q7 7 45 41q14 12 32.5 0.5t20.5 -36.5q17 -208 -1 -410q6 0 21 1t22 1q28 2 36 -4q0 48 11 62q3 5 7.5 8t10.5 5.5t9 3.5q93 21 148 59q72 52 72 125q0 56 -28 87t-70 35q-41 5 -79 -12.5t-55 -52.5q-17 -24 -39 -8q-21 18 -8 40q24 52 79 77
q56 26 115 18q63 -8 103 -52q45 -48 45 -132q0 -107 -94 -174q-57 -40 -151 -62q-19 -3 -18.5 -10t13.5 -4q40 -11 124 -5q70 2 78 -9q91 102 91 243q0 135 -93 213q-87 73 -232 73q-79 0 -144.5 -41t-108.5 -110zM368 137q-10 -30 -47 -31q-2 0 -145 8q92 -62 217 -60
q124 0 184 60q-59 -8 -124 -3q-80 7 -85 26zM120 172q1 1 39 -1q60 -3 62 -3q15 220 0 362q-31 -31 -54 -46q-34 -23 -59 -18q-39 -62 -32 -153q5 -87 44 -141zM405 759q164 0 273 -96q112 -99 112 -254q0 -79 -30 -154.5t-82 -133.5q-116 -129 -274 -129q-170 0 -274 86
q-113 89 -113 244q0 165 113 299q121 138 275 138z" />
    <glyph glyph-name="uni246C" unicode="&#x246c;" horiz-adv-x="805" 
d="M134 522q36 20 56 39q25 20 57 51q15 12 33.5 0.5t20.5 -36.5q17 -208 -1 -410q7 0 25.5 2.5t27.5 2.5q37 0 42 -17l14.5 -3t35 -4t46.5 -1q34 1 66 16q30 15 32 56q-6 41 -64 68q-53 26 -105 24q-27 0 -27 30q0 12 7.5 21.5t21.5 9.5q80 -8 139 8q80 24 80 91
q7 35 -8.5 68t-46.5 50q-28 21 -75 15t-93 -42q-17 -23 -42 -6q-24 18 -1 45q21 32 72 51q52 21 106 14q-42 22 -98.5 28t-118.5 -9q-142 -35 -202 -162zM376 112q-7 -2 -27 -4t-71 -0.5t-106 9.5q71 -62 200 -67q123 -2 177 45q-44 -11 -104 -9q-62 2 -69 26zM129 160
q5 20 45 18q7 -1 31.5 -5.5t34.5 -4.5q15 227 0 362q-25 -27 -67 -53q-47 -26 -60 2q-42 -86 -36 -172q6 -90 52 -147zM696 534q12 -107 -26 -158q-31 -41 -85 -49q30 -15 49 -52q23 -44 12 -96q48 57 72 155q27 115 -22 200zM405 759q164 0 273 -96q112 -99 112 -254
q0 -79 -30 -154.5t-82 -133.5q-116 -129 -274 -129q-170 0 -274 86q-113 89 -113 244q0 165 113 299q121 138 275 138z" />
    <glyph glyph-name="uni246D" unicode="&#x246d;" horiz-adv-x="805" 
d="M134 522q36 20 56 39q25 20 57 51q15 12 33.5 0.5t20.5 -36.5q17 -208 -1 -410h32q22 2 38 2q12 3 19 -5t7 -21q-1 -13 -9.5 -22.5t-22.5 -9.5q-64 -3 -99 -2q-41 2 -93 9q116 -68 240 -62q129 5 194 82q-8 66 -8 108q-100 -10 -248 9q-12 0 -14 25q-2 24 8 37
q77 80 170 202l45 57.5l35 45t13 15.5q-46 37 -113.5 51t-135.5 0q-73 -14 -132.5 -55.5t-91.5 -109.5zM129 160q5 19 45 17q8 -1 22.5 -3.5t25 -4t18.5 -1.5q15 227 0 362q-29 -31 -66 -54q-45 -29 -61 3q-48 -75 -39 -183q12 -100 55 -136zM659 590q-10 -148 1 -280l51 4
q20 60 15 125q-7 95 -67 151zM688 250q-21 -3 -28 -3q0 -21 2 -45q15 22 26 48zM592 518q-23 -37 -73 -100l-93 -108q13 0 40.5 -2l41.5 -3q56 -2 89 2q-7 78 -5 211zM405 759q164 0 273 -96q112 -99 112 -254q0 -79 -30 -154.5t-82 -133.5q-116 -129 -274 -129
q-170 0 -274 86q-113 89 -113 244q0 165 113 299q121 138 275 138z" />
    <glyph glyph-name="uni246E" unicode="&#x246e;" horiz-adv-x="805" 
d="M134 522q36 20 56 39q25 20 57 51q15 12 33.5 0.5t20.5 -36.5q17 -208 -1 -410h32q22 2 38 2q12 3 19 -5t7 -21q-1 -13 -9.5 -22.5t-22.5 -9.5q-64 -3 -99 -2q-41 2 -93 9q88 -69 223 -67q130 2 195 74q-74 -32 -174 8q-24 6 -16 36q8 28 31 21q72 -24 112.5 -17t61.5 38
q20 28 21.5 68t-11.5 66q-17 28 -68 36q-4 1 -121 13q-28 7 -30 42q-1 13 0 52.5t1 65.5q-1 28 11 44t35 13q105 -12 195 3q-50 42 -118.5 62.5t-139.5 12.5q-76 -7 -141 -48.5t-105 -117.5zM129 160q5 20 46 15q10 0 33 -3.5t32 -3.5q15 227 0 362q-29 -31 -63 -53
q-44 -27 -64 2q-43 -72 -36 -163q6 -85 52 -156zM681 561q-6 -6 -77 -14q-77 -7 -147 0v-95q129 -5 187 -52q65 -52 35 -169q34 71 42 145q15 112 -40 185zM405 759q164 0 273 -96q112 -99 112 -254q0 -79 -30 -154.5t-82 -133.5q-116 -129 -274 -129q-170 0 -274 86
q-113 89 -113 244q0 165 113 299q121 138 275 138z" />
    <glyph glyph-name="uni2474" unicode="&#x2474;" horiz-adv-x="805" 
d="M266 537q32 15 70 42q25 16 65 53q15 12 33.5 1t20.5 -37q17 -206 -1 -410h32l38 3q12 3 19 -5.5t7 -20.5q-1 -13 -9.5 -23t-21.5 -10q-58 -3 -116 -1q-45 1 -111 11q-28 0 -28 31q2 28 33 27q45 -9 98 -10q13 233 0 362q-17 -16 -47 -34l-53 -27q-23 -16 -39 11
q-17 26 10 37zM675 705q-5 15 2.5 29t20.5 17q13 6 26 -2t19 -30q49 -153 36 -343q-13 -195 -84 -318q-9 -22 -22.5 -31.5t-23.5 -3.5q-23 16 -2 80q63 152 74 271q15 155 -46 331zM139 687q-49 -102 -41 -278q6 -166 61 -302q21 -67 -3 -82q-9 -7 -22 1.5t-24 31.5
q-68 116 -75 339q-3 96 7 174q11 83 29 124q11 23 25 31.5t27 4.5q12 -4 17 -16t-1 -28z" />
    <glyph glyph-name="uni2475" unicode="&#x2475;" horiz-adv-x="805" 
d="M675 705q-5 15 2.5 29t20.5 17q13 6 26 -2t19 -30q49 -153 36 -343q-13 -195 -84 -318q-9 -22 -22.5 -31.5t-23.5 -3.5q-23 16 -2 80q63 152 74 271q15 155 -46 331zM139 687q-49 -102 -41 -278q6 -166 61 -302q21 -67 -3 -82q-9 -7 -22 1.5t-24 31.5q-68 116 -75 339
q-3 96 7 174q11 83 29 124q11 23 25 31.5t27 4.5q12 -4 17 -16t-1 -28zM285 257q97 25 152 64q75 49 75 128q0 56 -27 92t-80 36q-47 0 -68 -9q-32 -14 -65 -69q-16 -24 -40 -8q-21 18 -8 40q26 55 70.5 80t117.5 25q75 0 119 -57q43 -55 43 -130q0 -111 -96 -178
q-68 -47 -156 -65q-17 -3 -16.5 -10t11.5 -4q38 -8 99 -8q60 0 103 8q12 4 20 -3.5t9 -20.5q2 -12 -3.5 -22.5t-17.5 -10.5q-42 -9 -125 -9q-81 0 -122 9q-21 1 -31 17t-9 40q1 22 13 40.5t32 24.5z" />
    <glyph glyph-name="uni2476" unicode="&#x2476;" horiz-adv-x="805" 
d="M268 600q40 43 99.5 56t111.5 -7q55 -20 88.5 -67.5t28.5 -115.5q0 -52 -37 -94q-37 -39 -81 -45q35 -20 51 -58q24 -52 4 -107q-22 -61 -116 -71q-52 -7 -123 5q-28 1 -28 30q1 12 8.5 20.5t19.5 8.5q79 -10 120 -5q72 9 67 68q-4 40 -63 68q-53 26 -105 24
q-13 0 -20.5 9t-7.5 21t8 21.5t21 9.5q66 -4 123 6q96 24 96 93q-11 106 -92 121q-33 9 -69.5 0t-60.5 -30q-8 -11 -21 -12t-21 6q-24 18 -1 45zM675 705q-5 15 2.5 29t20.5 17q13 6 26 -2t19 -30q49 -153 36 -343q-13 -195 -84 -318q-9 -22 -22.5 -31.5t-23.5 -3.5
q-23 16 -2 80q63 152 74 271q15 155 -46 331zM139 687q-49 -102 -41 -278q6 -166 61 -302q21 -67 -3 -82q-9 -7 -22 1.5t-24 31.5q-68 116 -75 339q-3 96 7 174q11 83 29 124q11 23 25 31.5t27 4.5q12 -4 17 -16t-1 -28z" />
    <glyph glyph-name="uni2477" unicode="&#x2477;" horiz-adv-x="805" 
d="M437 624q3 8 15 11.5t24 0.5q28 -6 28 -29q-11 -158 0 -297l69 6q11 2 18.5 -6.5t8.5 -20.5q2 -32 -25 -36l-37 -3q-33 -3 -34 -3q0 -20 2 -54q0 -2 7 -57q1 -11 -7.5 -18.5t-21.5 -9.5q-11 -1 -21.5 4.5t-11.5 17.5q-10 59 -10 115q-154 -16 -268 0q-12 0 -14 24t8 37
q81 71 150 158q60 76 120 160zM436 518q-50 -76 -187 -218q86 -5 191 7q-6 90 -4 211zM675 705q-5 15 2.5 29t20.5 17q13 6 26 -2t19 -30q49 -153 36 -343q-13 -195 -84 -318q-9 -22 -22.5 -31.5t-23.5 -3.5q-23 16 -2 80q63 152 74 271q15 155 -46 331zM139 687
q-49 -102 -41 -278q6 -166 61 -302q21 -67 -3 -82q-9 -7 -22 1.5t-24 31.5q-68 116 -75 339q-3 96 7 174q11 83 29 124q11 23 25 31.5t27 4.5q12 -4 17 -16t-1 -28z" />
    <glyph glyph-name="uni2478" unicode="&#x2478;" horiz-adv-x="805" 
d="M675 705q-5 15 2.5 29t20.5 17q13 6 26 -2t19 -30q49 -153 36 -343q-13 -195 -84 -318q-9 -22 -22.5 -31.5t-23.5 -3.5q-23 16 -2 80q63 152 74 271q15 155 -46 331zM139 687q-49 -102 -41 -278q6 -166 61 -302q21 -67 -3 -82q-9 -7 -22 1.5t-24 31.5q-68 116 -75 339
q-3 96 7 174q11 83 29 124q11 23 25 31.5t27 4.5q12 -4 17 -16t-1 -28zM276 412q-18 5 -25 15t-8 31q-1 19 -1 30.5t1 42.5t1 55q-3 29 11.5 46.5t40.5 14.5q70 -7 113 -6q39 0 111 12q11 3 20.5 -5.5t11.5 -21.5q2 -12 -4 -23t-20 -14q-55 -8 -115 -10q-54 0 -103 5v-113
q109 -9 154 -20q83 -21 105 -68q37 -82 18 -146q-19 -62 -69 -100q-52 -37 -123 -43q-70 -6 -132 29q-12 3 -16.5 13t-0.5 22q3 12 12 18.5t21 2.5q56 -19 109 -17t90 24q83 53 34 171q-20 29 -87 40q-15 3 -149 15z" />
    <glyph glyph-name="uni2479" unicode="&#x2479;" horiz-adv-x="805" 
d="M348 630q-6 -38 -17 -90q-7 -30 -18 -94q95 23 174 -6q104 -42 105 -155q0 -106 -53 -147q-52 -40 -151 -40q-98 -1 -137 65q-33 53 -28 155q5 78 29 182q6 28 18 76.5l16 65.5q2 12 13 17t23 2q13 -2 21 -11t5 -20zM303 378q-24 -63 -8 -130q16 -89 95 -90q83 0 113 30
q27 27 27 94q-4 79 -78 101q-65 22 -149 -5zM675 705q-5 15 2.5 29t20.5 17q13 6 26 -2t19 -30q49 -153 36 -343q-13 -195 -84 -318q-9 -22 -22.5 -31.5t-23.5 -3.5q-23 16 -2 80q63 152 74 271q15 155 -46 331zM139 687q-49 -102 -41 -278q6 -166 61 -302q21 -67 -3 -82
q-9 -7 -22 1.5t-24 31.5q-68 116 -75 339q-3 96 7 174q11 83 29 124q11 23 25 31.5t27 4.5q12 -4 17 -16t-1 -28z" />
    <glyph glyph-name="uni247A" unicode="&#x247a;" horiz-adv-x="805" 
d="M526 116q-10 -34 -40 -26q-11 2 -17.5 11t-1.5 20q21 94 35 213q14 139 5 220q-32 -3 -105 -3q-18 0 -58.5 -0.5t-60.5 -0.5l12 -211q1 -12 -7.5 -19.5t-21.5 -7.5t-23.5 7.5t-11.5 20.5l-12 217q-10 49 32 49q35 3 140 3q82 0 126 9q22 8 36 -2t15 -35q7 -95 -7 -252
q-12 -139 -35 -213zM675 705q-5 15 2.5 29t20.5 17q13 6 26 -2t19 -30q49 -153 36 -343q-13 -195 -84 -318q-9 -22 -22.5 -31.5t-23.5 -3.5q-23 16 -2 80q63 152 74 271q15 155 -46 331zM139 687q-49 -102 -41 -278q6 -166 61 -302q21 -67 -3 -82q-9 -7 -22 1.5t-24 31.5
q-68 116 -75 339q-3 96 7 174q11 83 29 124q11 23 25 31.5t27 4.5q12 -4 17 -16t-1 -28z" />
    <glyph glyph-name="uni247B" unicode="&#x247b;" horiz-adv-x="805" 
d="M425 404q38 16 61 46.5t23 53.5q0 41 -16 66q-31 45 -103 45q-99 0 -99 -104q0 -44 36 -75.5t98 -31.5zM421 328q-60 -15 -79 -30q-31 -23 -31 -74q-1 -42 29.5 -65.5t82.5 -23.5q48 3 75.5 29.5t27.5 68.5q0 40 -38 66q-26 21 -67 29zM571 503q0 -77 -87 -130
q37 -13 65 -42q36 -43 36 -94q0 -83 -58 -123q-41 -31 -104 -31q-68 -7 -118 32q-58 38 -57 104q0 49 14 80q20 46 67 63q-36 2 -64 41q-34 41 -34 107q0 77 42.5 120t115.5 43q95 0 142 -58q40 -46 40 -112zM675 705q-5 15 2.5 29t20.5 17q13 6 26 -2t19 -30
q49 -153 36 -343q-13 -195 -84 -318q-9 -22 -22.5 -31.5t-23.5 -3.5q-23 16 -2 80q63 152 74 271q15 155 -46 331zM139 687q-49 -102 -41 -278q6 -166 61 -302q21 -67 -3 -82q-9 -7 -22 1.5t-24 31.5q-68 116 -75 339q-3 96 7 174q11 83 29 124q11 23 25 31.5t27 4.5
q12 -4 17 -16t-1 -28z" />
    <glyph glyph-name="uni247C" unicode="&#x247c;" horiz-adv-x="805" 
d="M439 118q37 86 58 181q-16 -5 -59 -7q-59 -2 -97 6q-56 13 -90 48q-40 44 -39 117q0 106 52 146q53 41 152 41q101 0 142 -71q33 -62 26 -164q-6 -80 -38 -184q-22 -72 -46 -127q-5 -25 -37 -19q-13 3 -20.5 12.5t-3.5 20.5zM509 362q12 83 6 130q-15 97 -102 98
q-85 0 -113 -31q-27 -30 -27 -95q0 -55 32 -81q31 -24 73 -30q62 -9 131 9zM675 705q-5 15 2.5 29t20.5 17q13 6 26 -2t19 -30q49 -153 36 -343q-13 -195 -84 -318q-9 -22 -22.5 -31.5t-23.5 -3.5q-23 16 -2 80q63 152 74 271q15 155 -46 331zM139 687q-49 -102 -41 -278
q6 -166 61 -302q21 -67 -3 -82q-9 -7 -22 1.5t-24 31.5q-68 116 -75 339q-3 96 7 174q11 83 29 124q11 23 25 31.5t27 4.5q12 -4 17 -16t-1 -28z" />
    <glyph glyph-name="uni247D" unicode="&#x247d;" horiz-adv-x="805" 
d="M123 516q34 18 65 42l59 54q15 12 33.5 0.5t20.5 -36.5q17 -208 -1 -410h32q22 2 38 2q12 3 19 -5t7 -21q-1 -13 -9.5 -22.5t-22.5 -9.5q-53 -4 -106 -2q-48 1 -104 11q33 -94 7 -104q-10 -5 -25 7.5t-26 35.5q-68 116 -75 339q-3 96 7 174q11 83 29 124q11 23 25 31.5
t27 4.5q12 -4 17 -16t-1 -28q-42 -85 -42 -241q0 -150 40 -276q4 12 41 7q45 -9 62 -9q15 227 0 362q-24 -24 -40 -34q-25 -16 -48 -28q-22 -16 -39 11q-16 26 10 37zM680 377q0 -95 -50 -142q-41 -37 -117 -37q-74 0 -108 27q-47 40 -47 146q0 105 39 151t119 46
q164 0 164 -191zM615 377q0 69 -24.5 101t-76.5 32q-40 -2 -61 -21q-31 -33 -31 -118q0 -65 19 -90.5t73 -25.5q48 0 71 23q30 30 30 99zM675 705q-5 15 2.5 29t20.5 17q13 6 26 -2t19 -30q49 -153 36 -343q-13 -195 -84 -318q-9 -22 -22.5 -31.5t-23.5 -3.5q-23 16 -2 80
q63 152 74 271q15 155 -46 331z" />
    <glyph glyph-name="uni247E" unicode="&#x247e;" horiz-adv-x="805" 
d="M123 516q34 18 65 42l59 54q15 12 33.5 0.5t20.5 -36.5q17 -208 -1 -410h32q22 2 38 2q12 3 19 -5t7 -21q-1 -13 -9.5 -22.5t-22.5 -9.5q-53 -4 -106 -2q-48 1 -104 11q38 -83 9 -99q-11 -6 -26.5 4.5t-26.5 33.5q-68 116 -75 339q-3 96 7 174q11 83 29 124
q11 23 25 31.5t27 4.5q12 -4 17 -16t-1 -28q-42 -85 -42 -241q0 -150 40 -276q9 10 44 5q44 -7 59 -7q15 227 0 362q-24 -24 -40 -34q-25 -16 -48 -28q-22 -16 -39 11q-16 26 10 37zM428 516q42 22 64 42l60 54q14 12 33 0.5t20 -36.5q17 -208 -1 -410q29 0 42 1q22 0 25 -1
q47 132 52 243q6 140 -48 296q-5 15 2.5 29t20.5 17q13 6 26 -2t19 -30q49 -153 36 -343q-13 -195 -84 -318q-9 -22 -22.5 -31.5t-23.5 -3.5q-23 16 -2 80q-27 1 -63 4q-105 9 -125 12q-28 0 -28 31q2 27 33 26q9 -1 22.5 -3.5t18.5 -3.5q9 -1 40 -1q15 227 0 362
q-29 -28 -88 -62q-23 -16 -39 11q-16 26 10 37z" />
    <glyph glyph-name="uni247F" unicode="&#x247f;" horiz-adv-x="805" 
d="M100 514l44 26q50 34 84 72q14 12 32.5 0.5t20.5 -36.5q17 -208 -1 -410h47q26 0 32 -2q-9 40 6 59q4 5 9.5 9t13 7t9.5 4q93 21 148 59q72 52 72 125q0 57 -27 92.5t-79 35.5h-15h-14.5t-15 -1.5t-15.5 -4.5q-37 -15 -66 -65q-17 -24 -40 -8q-23 17 -9 40
q26 56 66.5 77.5t115.5 21.5q74 0 119 -58q43 -56 43 -130q0 -107 -94 -174q-57 -40 -151 -62q-19 -3 -18.5 -10t13.5 -4q29 -6 85 -8q51 -2 89 6q12 4 20.5 -3t9.5 -20q2 -13 -3.5 -23t-17.5 -10q-59 -13 -134 -8q-82 2 -111 26q0 -35 -81 -35q-12 0 -132 14
q43 -96 12 -106q-12 -3 -29 11t-28 37q-68 116 -75 339q-3 96 7 174q11 83 29 124q11 23 25 31.5t27 4.5q12 -4 17 -16t-1 -28q-32 -66 -39 -173zM135 179l4 -1q4 -1 12 -2.5t15 -2.5q28 -5 55 -5q15 220 0 362q-36 -36 -65 -54q-43 -29 -58 -1q-6 -153 37 -296zM675 705
q-5 15 2.5 29t20.5 17q13 6 26 -2t19 -30q49 -153 36 -343q-13 -195 -84 -318q-9 -22 -22.5 -31.5t-23.5 -3.5q-23 16 -2 80q63 152 74 271q15 155 -46 331z" />
    <glyph glyph-name="uni2480" unicode="&#x2480;" horiz-adv-x="805" 
d="M123 516q34 18 65 42l59 54q15 12 33.5 0.5t20.5 -36.5q17 -208 -1 -410q7 0 26 3t28 3q36 2 41 -18l31 -6q34 -6 68 -5q36 1 67 17q29 15 28 58q-6 46 -65 73q-51 21 -104 19q-27 0 -27 30q0 12 7.5 21.5t21.5 9.5q53 -2 101 4q72 10 95 35q23 26 23 60q0 46 -19 80
t-52 48q-25 9 -64 6q-37 -1 -88 -43q-17 -23 -42 -6q-24 18 -1 45q26 37 88 57q67 21 124 -1q59 -24 89 -75.5t27 -114.5q0 -55 -37 -94t-81 -45q34 -18 52 -58q22 -51 4 -107q-26 -67 -129 -76q-101 -9 -136 26q-18 -13 -89 -8q-76 5 -133 15q36 -81 9 -98q-12 -6 -27 4
t-26 33q-68 116 -75 339q-3 96 7 174q11 83 29 124q11 23 25 31.5t27 4.5q12 -4 17 -16t-1 -28q-42 -85 -42 -241q0 -150 40 -276q16 12 47 7q43 -9 56 -9q15 227 0 362q-24 -24 -40 -34q-25 -16 -48 -28q-22 -16 -39 11q-16 26 10 37zM675 705q-5 15 2.5 29t20.5 17
q13 6 26 -2t19 -30q49 -153 36 -343q-13 -195 -84 -318q-9 -22 -22.5 -31.5t-23.5 -3.5q-23 16 -2 80q63 152 74 271q15 155 -46 331z" />
    <glyph glyph-name="uni2481" unicode="&#x2481;" horiz-adv-x="805" 
d="M123 516q34 18 65 42l59 54q15 12 33.5 0.5t20.5 -36.5q17 -208 -1 -410h32q22 2 38 2q12 3 19 -5t7 -21q-1 -13 -9.5 -22.5t-22.5 -9.5q-53 -4 -106 -2q-48 1 -104 11q44 -103 14 -111q-12 -3 -29.5 12t-28.5 38q-68 116 -75 339q-3 96 7 174q11 83 29 124
q11 23 25 31.5t27 4.5q12 -4 17 -16t-1 -28q-42 -85 -42 -241q0 -150 40 -276q6 14 43 7q57 -9 60 -9q15 227 0 362q-24 -24 -40 -34q-25 -16 -48 -28q-22 -16 -39 11q-16 26 10 37zM593 624q4 8 15.5 11.5t23.5 0.5q28 -5 28 -29q-11 -158 0 -297l53 5q33 183 -38 390
q-5 15 2.5 29t20.5 17q13 6 26 -2t19 -30q49 -153 36 -343q-13 -195 -84 -318q-9 -22 -25.5 -33.5t-27.5 -7.5q-29 13 8 94q-41 -6 -50 47q-2 12 -2 87q-100 -10 -248 9q-12 0 -14 25q-2 24 8 37q130 137 249 308zM698 251q-14 -2 -16 -2q-14 -2 -22 -2q0 -21 2 -47
q0 -18 5 -46q18 47 31 97zM592 518q-23 -37 -73 -100l-93 -108q13 0 40.5 -2l41.5 -3q56 -2 89 2q-7 78 -5 211z" />
    <glyph glyph-name="uni2482" unicode="&#x2482;" horiz-adv-x="805" 
d="M123 516q34 18 65 42l59 54q15 12 33.5 0.5t20.5 -36.5q17 -208 -1 -410h32q22 2 38 2q12 3 19 -5t7 -21q-1 -13 -9.5 -22.5t-22.5 -9.5q-53 -4 -106 -2q-48 1 -104 11q34 -85 8 -101q-11 -5 -26 6t-26 34q-68 116 -75 339q-3 96 7 174q11 83 29 124q11 23 25 31.5
t27 4.5q12 -4 17 -16t-1 -28q-42 -85 -42 -241q0 -150 40 -276q5 14 42 7q60 -9 61 -9q15 227 0 362q-24 -24 -40 -34q-25 -16 -48 -28q-22 -16 -39 11q-16 26 10 37zM426 393q-18 6 -24 15.5t-7 28.5q0 12 1 49.5t1 66.5q-1 28 11 44t35 13q111 -13 215 6q11 2 19.5 -6
t10.5 -21q2 -31 -22 -37q-97 -14 -209 -5v-95q92 -9 124 -19q64 -18 86 -62q26 -50 17 -119q-11 -62 -44 -95q-42 -44 -111 -46q-55 -1 -113 21q-24 6 -16 36q8 28 31 21q106 -46 163 9q54 51 21 146q-17 28 -68 36q-4 1 -121 13zM675 705q-5 15 2.5 29t20.5 17q13 6 26 -2
t19 -30q49 -153 36 -343q-13 -195 -84 -318q-9 -22 -22.5 -31.5t-23.5 -3.5q-23 16 -2 80q63 152 74 271q15 155 -46 331z" />
    <glyph glyph-name="uni249C" unicode="&#x249c;" horiz-adv-x="805" 
d="M352 521q-100 0 -100 -141q0 -81 31 -115q28 -28 83 -28q47 0 75 41t28 107q0 61 -24 98q-23 38 -93 38zM349 582q83 0 127 -36q34 -29 54 -95q26 -80 39 -110q21 -46 60 -99q17 -24 -9 -46q-29 -23 -41 1q-10 15 -36 58q-19 34 -26 51q-30 -128 -148 -128
q-85 0 -131.5 51t-46.5 151q0 94 35 143q39 59 123 59zM675 705q-5 15 2.5 29t20.5 17q13 6 26 -2t19 -30q49 -153 36 -343q-13 -195 -84 -318q-9 -22 -22.5 -31.5t-23.5 -3.5q-23 16 -2 80q63 152 74 271q15 155 -46 331zM139 687q-49 -102 -41 -278q6 -166 61 -302
q21 -67 -3 -82q-9 -7 -22 1.5t-24 31.5q-68 116 -75 339q-3 96 7 174q11 83 29 124q11 23 25 31.5t27 4.5q12 -4 17 -16t-1 -28z" />
    <glyph glyph-name="uni249D" unicode="&#x249d;" horiz-adv-x="805" 
d="M317 432q-7 -154 4 -249q134 -11 176 25q18 14 23.5 37t5.5 63q1 76 -59 104q-37 14 -150 20zM319 494q164 -13 215 -46q32 -21 45 -54.5t12 -87.5q0 -87 -29 -127q-29 -39 -70 -51q-25 -7 -56 -7.5t-69 2.5t-55 3q-47 -5 -52 36q-12 60 -12 211q2 167 16 276
q1 16 11.5 23t24.5 6q32 -6 31 -33q-8 -59 -9 -71q-3 -23 -3 -80zM675 705q-5 15 2.5 29t20.5 17q13 6 26 -2t19 -30q49 -153 36 -343q-13 -195 -84 -318q-9 -22 -22.5 -31.5t-23.5 -3.5q-23 16 -2 80q63 152 74 271q15 155 -46 331zM139 687q-49 -102 -41 -278
q6 -166 61 -302q21 -67 -3 -82q-9 -7 -22 1.5t-24 31.5q-68 116 -75 339q-3 96 7 174q11 83 29 124q11 23 25 31.5t27 4.5q12 -4 17 -16t-1 -28z" />
    <glyph glyph-name="uni249E" unicode="&#x249e;" horiz-adv-x="805" 
d="M543 513q18 -21 1 -44t-41 -5q-61 43 -123 43q-38 0 -72 -50q-31 -51 -31 -100t31 -90q29 -42 72 -42q41 0 73 18q39 18 51 55q11 25 38 10q28 -15 18 -43q-18 -49 -69 -76t-116 -27q-67 0 -117 57q-51 59 -51 138q0 85 48 145q46 67 118 67q108 0 170 -56zM675 705
q-5 15 2.5 29t20.5 17q13 6 26 -2t19 -30q49 -153 36 -343q-13 -195 -84 -318q-9 -22 -22.5 -31.5t-23.5 -3.5q-23 16 -2 80q63 152 74 271q15 155 -46 331zM139 687q-49 -102 -41 -278q6 -166 61 -302q21 -67 -3 -82q-9 -7 -22 1.5t-24 31.5q-68 116 -75 339q-3 96 7 174
q11 83 29 124q11 23 25 31.5t27 4.5q12 -4 17 -16t-1 -28z" />
    <glyph glyph-name="uni249F" unicode="&#x249f;" horiz-adv-x="805" 
d="M479 422q-118 -6 -151 -20q-62 -28 -58 -104q0 -28 1 -42t7 -31.5t19 -26.5q41 -35 177 -25q7 70 5 249zM477 484q-2 63 -4 80q-1 20 -8 72q-2 14 7 22.5t23 9.5q32 2 36 -30q14 -135 16 -275q0 -149 -11 -212q-5 -40 -52 -34q-41 -1 -91 -6t-90 8q-98 26 -98 177
q-4 103 56 141q51 35 216 47zM675 705q-5 15 2.5 29t20.5 17q13 6 26 -2t19 -30q49 -153 36 -343q-13 -195 -84 -318q-9 -22 -22.5 -31.5t-23.5 -3.5q-23 16 -2 80q63 152 74 271q15 155 -46 331zM139 687q-49 -102 -41 -278q6 -166 61 -302q21 -67 -3 -82q-9 -7 -22 1.5
t-24 31.5q-68 116 -75 339q-3 96 7 174q11 83 29 124q11 23 25 31.5t27 4.5q12 -4 17 -16t-1 -28z" />
    <glyph glyph-name="uni24A0" unicode="&#x24a0;" horiz-adv-x="805" 
d="M422 574q85 -18 127 -68q36 -45 44 -109q12 -50 -35 -55q-58 -8 -130 -8q-81 0 -146 13q0 -40 33 -74t86 -42q34 -7 69 5.5t53 43.5q7 9 18.5 9.5t21.5 -5.5q25 -16 13 -40q-24 -40 -81 -65q-56 -22 -107 -11q-94 15 -143 91q-42 70 -28 148q13 83 64 128q58 50 141 39z
M527 402q-2 32 -25 66q-23 35 -86 47q-48 12 -87 -19q-41 -37 -42 -87q135 -26 240 -7zM675 705q-5 15 2.5 29t20.5 17q13 6 26 -2t19 -30q49 -153 36 -343q-13 -195 -84 -318q-9 -22 -22.5 -31.5t-23.5 -3.5q-23 16 -2 80q63 152 74 271q15 155 -46 331zM139 687
q-49 -102 -41 -278q6 -166 61 -302q21 -67 -3 -82q-9 -7 -22 1.5t-24 31.5q-68 116 -75 339q-3 96 7 174q11 83 29 124q11 23 25 31.5t27 4.5q12 -4 17 -16t-1 -28z" />
    <glyph glyph-name="uni24A1" unicode="&#x24a1;" horiz-adv-x="805" 
d="M675 705q-5 15 2.5 29t20.5 17q13 6 26 -2t19 -30q49 -153 36 -343q-13 -195 -84 -318q-9 -22 -22.5 -31.5t-23.5 -3.5q-23 16 -2 80q63 152 74 271q15 155 -46 331zM139 687q-49 -102 -41 -278q6 -166 61 -302q21 -67 -3 -82q-9 -7 -22 1.5t-24 31.5q-68 116 -75 339
q-3 96 7 174q11 83 29 124q11 23 25 31.5t27 4.5q12 -4 17 -16t-1 -28zM429 582q-64 -10 -77 -104q-4 -30 0 -132q68 -6 146 0q12 2 20 -5.5t9 -20.5q0 -32 -25 -36q-84 -5 -147 -1q6 -85 15 -152q0 -30 -29 -32q-12 -1 -21 5t-10 17q-19 93 -25 165l-32 4l-35 4
q-15 0 -21.5 10.5t-4.5 24.5q1 12 10 21t22 7q11 -4 30 -4q4 0 13.5 -1.5t14.5 -1.5l-4 62q-2 46 9 96q10 47 41 89q32 42 96 46q120 4 168 -79q20 -37 19 -79t-20 -82q-14 -26 -44 -16q-29 14 -18 35q15 22 18 50t-8 56q-28 61 -110 54z" />
    <glyph glyph-name="uni24A2" unicode="&#x24a2;" horiz-adv-x="805" 
d="M402 583q-39 -2 -67 -27q-37 -30 -33 -87q1 -57 41 -90q36 -27 82 -25q60 1 89 44q23 34 23 83q-3 54 -40 78.5t-95 23.5zM408 648q77 2 130 -37q63 -46 69 -125q11 -250 -81 -337q-68 -64 -200 -51q-20 1 -30 12t-8 24q3 13 14.5 21t27.5 4q118 -9 171 62q35 48 37 108
q-32 -38 -104 -38q-93 -3 -143 48t-51 127q-4 84 49 134q44 43 119 48zM675 705q-5 15 2.5 29t20.5 17q13 6 26 -2t19 -30q49 -153 36 -343q-13 -195 -84 -318q-9 -22 -22.5 -31.5t-23.5 -3.5q-23 16 -2 80q63 152 74 271q15 155 -46 331zM139 687q-49 -102 -41 -278
q6 -166 61 -302q21 -67 -3 -82q-9 -7 -22 1.5t-24 31.5q-68 116 -75 339q-3 96 7 174q11 83 29 124q11 23 25 31.5t27 4.5q12 -4 17 -16t-1 -28z" />
    <glyph glyph-name="uni24A3" unicode="&#x24a3;" horiz-adv-x="805" 
d="M562 307l-2 -141q-7 -38 -39 -38q-13 1 -22 11t-7 26l5 142q0 92 -59 111q-13 5 -30 7t-34.5 2.5t-39 0.5h-43.5q2 -140 16 -238q3 -29 -5 -44.5t-21 -16.5q-13 0 -24 11.5t-12 30.5q-13 65 -19 205q-7 144 5 268q1 16 11.5 23t24.5 6q32 -6 32 -33q-7 -49 -8 -71
q-2 -46 -1 -80q161 2 210 -27q62 -36 62 -155zM675 705q-5 15 2.5 29t20.5 17q13 6 26 -2t19 -30q49 -153 36 -343q-13 -195 -84 -318q-9 -22 -22.5 -31.5t-23.5 -3.5q-23 16 -2 80q63 152 74 271q15 155 -46 331zM139 687q-49 -102 -41 -278q6 -166 61 -302q21 -67 -3 -82
q-9 -7 -22 1.5t-24 31.5q-68 116 -75 339q-3 96 7 174q11 83 29 124q11 23 25 31.5t27 4.5q12 -4 17 -16t-1 -28z" />
    <glyph glyph-name="uni24A4" unicode="&#x24a4;" horiz-adv-x="805" 
d="M440 448q-19 -229 0 -301q3 -21 -5 -32.5t-22 -11.5q-13 -1 -23.5 9t-10.5 26q-15 75 -16 124q-2 79 10 189q0 15 11 26t24 12q14 1 23.5 -9.5t8.5 -31.5zM675 705q-5 15 2.5 29t20.5 17q13 6 26 -2t19 -30q49 -153 36 -343q-13 -195 -84 -318q-9 -22 -22.5 -31.5
t-23.5 -3.5q-23 16 -2 80q63 152 74 271q15 155 -46 331zM139 687q-49 -102 -41 -278q6 -166 61 -302q21 -67 -3 -82q-9 -7 -22 1.5t-24 31.5q-68 116 -75 339q-3 96 7 174q11 83 29 124q11 23 25 31.5t27 4.5q12 -4 17 -16t-1 -28zM400 693q32 0 46.5 -18t14.5 -45
q0 -33 -12 -45.5t-43 -12.5q-34 0 -43 20q-8 22 -8 38q0 63 45 63z" />
    <glyph glyph-name="uni24A5" unicode="&#x24a5;" horiz-adv-x="805" 
d="M675 705q-5 15 2.5 29t20.5 17q13 6 26 -2t19 -30q49 -153 36 -343q-13 -195 -84 -318q-9 -22 -22.5 -31.5t-23.5 -3.5q-23 16 -2 80q63 152 74 271q15 155 -46 331zM139 687q-49 -102 -41 -278q6 -166 61 -302q21 -67 -3 -82q-9 -7 -22 1.5t-24 31.5q-68 116 -75 339
q-3 96 7 174q11 83 29 124q11 23 25 31.5t27 4.5q12 -4 17 -16t-1 -28zM459 693q31 0 46 -18t15 -45q0 -33 -12.5 -45.5t-42.5 -12.5q-34 0 -43 20q-8 22 -8 38q0 36 11.5 49.5t33.5 13.5zM506 176q-20 -49 -61 -68t-87 -6t-78.5 52.5t-35.5 96.5q-3 16 4 27.5t20 14.5
q30 8 42 -22q3 -44 21.5 -70.5t42.5 -34.5q22 -8 42.5 -1.5t25.5 24.5q13 36 13 90q0 3 -11 158q-3 21 7 32t25 10q14 -1 25 -11t11 -27q9 -96 9 -178q-1 -47 -15 -87z" />
    <glyph glyph-name="uni24A6" unicode="&#x24a6;" horiz-adv-x="805" 
d="M333 626q-4 -17 -10 -109q-2 -97 -1 -147q42 35 103 95l96 107q11 12 25.5 12.5t21.5 -7.5q9 -9 11.5 -21t-3.5 -21q-60 -66 -122 -125q50 -74 70 -117q16 -31 48 -112q6 -19 0.5 -31.5t-17.5 -16.5t-24.5 1.5t-18.5 20.5q-9 20 -24 57t-23 54q-22 47 -59 96
q-26 -26 -42 -38l-41 -37q0 -100 10 -138q3 -22 -5.5 -33t-21.5 -11q-13 -1 -24 9t-11 26q-14 77 -15 213q-2 166 10 276q0 17 10 27.5t25 11.5q14 0 23.5 -10.5t8.5 -31.5zM675 705q-5 15 2.5 29t20.5 17q13 6 26 -2t19 -30q49 -153 36 -343q-13 -195 -84 -318
q-9 -22 -22.5 -31.5t-23.5 -3.5q-23 16 -2 80q63 152 74 271q15 155 -46 331zM139 687q-49 -102 -41 -278q6 -166 61 -302q21 -67 -3 -82q-9 -7 -22 1.5t-24 31.5q-68 116 -75 339q-3 96 7 174q11 83 29 124q11 23 25 31.5t27 4.5q12 -4 17 -16t-1 -28z" />
    <glyph glyph-name="uni24A7" unicode="&#x24a7;" horiz-adv-x="805" 
d="M435 616q-7 -34 -9 -105q-3 -44 -3 -148q0 -88 4 -143q2 -63 8 -81q3 -21 -5.5 -32.5t-22.5 -11.5q-12 -1 -23 9t-11 26q-14 74 -16 213q-2 166 10 277q0 15 11 26t24 12q14 1 24 -9.5t9 -32.5zM675 705q-5 15 2.5 29t20.5 17q13 6 26 -2t19 -30q49 -153 36 -343
q-13 -195 -84 -318q-9 -22 -22.5 -31.5t-23.5 -3.5q-23 16 -2 80q63 152 74 271q15 155 -46 331zM139 687q-49 -102 -41 -278q6 -166 61 -302q21 -67 -3 -82q-9 -7 -22 1.5t-24 31.5q-68 116 -75 339q-3 96 7 174q11 83 29 124q11 23 25 31.5t27 4.5q12 -4 17 -16t-1 -28z
" />
    </font>
</defs>
</svg>
